G04 #@! TF.GenerationSoftware,KiCad,Pcbnew,8.0.8+1*
G04 #@! TF.CreationDate,2025-02-28T15:38:13+00:00*
G04 #@! TF.ProjectId,belegt,62656c65-6774-42e6-9b69-6361645f7063,rev?*
G04 #@! TF.SameCoordinates,Original*
G04 #@! TF.FileFunction,Paste,Top*
G04 #@! TF.FilePolarity,Positive*
%FSLAX46Y46*%
G04 Gerber Fmt 4.6, Leading zero omitted, Abs format (unit mm)*
G04 Created by KiCad (PCBNEW 8.0.8+1) date 2025-02-28 15:38:13*
%MOMM*%
%LPD*%
G01*
G04 APERTURE LIST*
%ADD10R,1.000000X1.800000*%
%ADD11R,2.000000X1.780000*%
%ADD12O,1.600000X0.900000*%
%ADD13R,4.500000X2.000000*%
%ADD14R,0.500000X0.600000*%
%ADD15R,0.750000X0.300000*%
G04 APERTURE END LIST*
G36*
G01*
X125390000Y-102282500D02*
X125390000Y-101942500D01*
G75*
G02*
X125530000Y-101802500I140000J0D01*
G01*
X125810000Y-101802500D01*
G75*
G02*
X125950000Y-101942500I0J-140000D01*
G01*
X125950000Y-102282500D01*
G75*
G02*
X125810000Y-102422500I-140000J0D01*
G01*
X125530000Y-102422500D01*
G75*
G02*
X125390000Y-102282500I0J140000D01*
G01*
G37*
G36*
G01*
X126350000Y-102282500D02*
X126350000Y-101942500D01*
G75*
G02*
X126490000Y-101802500I140000J0D01*
G01*
X126770000Y-101802500D01*
G75*
G02*
X126910000Y-101942500I0J-140000D01*
G01*
X126910000Y-102282500D01*
G75*
G02*
X126770000Y-102422500I-140000J0D01*
G01*
X126490000Y-102422500D01*
G75*
G02*
X126350000Y-102282500I0J140000D01*
G01*
G37*
G36*
G01*
X124170000Y-135010000D02*
X123830000Y-135010000D01*
G75*
G02*
X123690000Y-134870000I0J140000D01*
G01*
X123690000Y-134590000D01*
G75*
G02*
X123830000Y-134450000I140000J0D01*
G01*
X124170000Y-134450000D01*
G75*
G02*
X124310000Y-134590000I0J-140000D01*
G01*
X124310000Y-134870000D01*
G75*
G02*
X124170000Y-135010000I-140000J0D01*
G01*
G37*
G36*
G01*
X124170000Y-134050000D02*
X123830000Y-134050000D01*
G75*
G02*
X123690000Y-133910000I0J140000D01*
G01*
X123690000Y-133630000D01*
G75*
G02*
X123830000Y-133490000I140000J0D01*
G01*
X124170000Y-133490000D01*
G75*
G02*
X124310000Y-133630000I0J-140000D01*
G01*
X124310000Y-133910000D01*
G75*
G02*
X124170000Y-134050000I-140000J0D01*
G01*
G37*
G36*
G01*
X97550000Y-158245000D02*
X97550000Y-157945000D01*
G75*
G02*
X97700000Y-157795000I150000J0D01*
G01*
X99350000Y-157795000D01*
G75*
G02*
X99500000Y-157945000I0J-150000D01*
G01*
X99500000Y-158245000D01*
G75*
G02*
X99350000Y-158395000I-150000J0D01*
G01*
X97700000Y-158395000D01*
G75*
G02*
X97550000Y-158245000I0J150000D01*
G01*
G37*
G36*
G01*
X97550000Y-159515000D02*
X97550000Y-159215000D01*
G75*
G02*
X97700000Y-159065000I150000J0D01*
G01*
X99350000Y-159065000D01*
G75*
G02*
X99500000Y-159215000I0J-150000D01*
G01*
X99500000Y-159515000D01*
G75*
G02*
X99350000Y-159665000I-150000J0D01*
G01*
X97700000Y-159665000D01*
G75*
G02*
X97550000Y-159515000I0J150000D01*
G01*
G37*
G36*
G01*
X97550000Y-160785000D02*
X97550000Y-160485000D01*
G75*
G02*
X97700000Y-160335000I150000J0D01*
G01*
X99350000Y-160335000D01*
G75*
G02*
X99500000Y-160485000I0J-150000D01*
G01*
X99500000Y-160785000D01*
G75*
G02*
X99350000Y-160935000I-150000J0D01*
G01*
X97700000Y-160935000D01*
G75*
G02*
X97550000Y-160785000I0J150000D01*
G01*
G37*
G36*
G01*
X97550000Y-162055000D02*
X97550000Y-161755000D01*
G75*
G02*
X97700000Y-161605000I150000J0D01*
G01*
X99350000Y-161605000D01*
G75*
G02*
X99500000Y-161755000I0J-150000D01*
G01*
X99500000Y-162055000D01*
G75*
G02*
X99350000Y-162205000I-150000J0D01*
G01*
X97700000Y-162205000D01*
G75*
G02*
X97550000Y-162055000I0J150000D01*
G01*
G37*
G36*
G01*
X102500000Y-162055000D02*
X102500000Y-161755000D01*
G75*
G02*
X102650000Y-161605000I150000J0D01*
G01*
X104300000Y-161605000D01*
G75*
G02*
X104450000Y-161755000I0J-150000D01*
G01*
X104450000Y-162055000D01*
G75*
G02*
X104300000Y-162205000I-150000J0D01*
G01*
X102650000Y-162205000D01*
G75*
G02*
X102500000Y-162055000I0J150000D01*
G01*
G37*
G36*
G01*
X102500000Y-160785000D02*
X102500000Y-160485000D01*
G75*
G02*
X102650000Y-160335000I150000J0D01*
G01*
X104300000Y-160335000D01*
G75*
G02*
X104450000Y-160485000I0J-150000D01*
G01*
X104450000Y-160785000D01*
G75*
G02*
X104300000Y-160935000I-150000J0D01*
G01*
X102650000Y-160935000D01*
G75*
G02*
X102500000Y-160785000I0J150000D01*
G01*
G37*
G36*
G01*
X102500000Y-159515000D02*
X102500000Y-159215000D01*
G75*
G02*
X102650000Y-159065000I150000J0D01*
G01*
X104300000Y-159065000D01*
G75*
G02*
X104450000Y-159215000I0J-150000D01*
G01*
X104450000Y-159515000D01*
G75*
G02*
X104300000Y-159665000I-150000J0D01*
G01*
X102650000Y-159665000D01*
G75*
G02*
X102500000Y-159515000I0J150000D01*
G01*
G37*
G36*
G01*
X102500000Y-158245000D02*
X102500000Y-157945000D01*
G75*
G02*
X102650000Y-157795000I150000J0D01*
G01*
X104300000Y-157795000D01*
G75*
G02*
X104450000Y-157945000I0J-150000D01*
G01*
X104450000Y-158245000D01*
G75*
G02*
X104300000Y-158395000I-150000J0D01*
G01*
X102650000Y-158395000D01*
G75*
G02*
X102500000Y-158245000I0J150000D01*
G01*
G37*
G36*
G01*
X125090000Y-110482500D02*
X125090000Y-110142500D01*
G75*
G02*
X125230000Y-110002500I140000J0D01*
G01*
X125510000Y-110002500D01*
G75*
G02*
X125650000Y-110142500I0J-140000D01*
G01*
X125650000Y-110482500D01*
G75*
G02*
X125510000Y-110622500I-140000J0D01*
G01*
X125230000Y-110622500D01*
G75*
G02*
X125090000Y-110482500I0J140000D01*
G01*
G37*
G36*
G01*
X126050000Y-110482500D02*
X126050000Y-110142500D01*
G75*
G02*
X126190000Y-110002500I140000J0D01*
G01*
X126470000Y-110002500D01*
G75*
G02*
X126610000Y-110142500I0J-140000D01*
G01*
X126610000Y-110482500D01*
G75*
G02*
X126470000Y-110622500I-140000J0D01*
G01*
X126190000Y-110622500D01*
G75*
G02*
X126050000Y-110482500I0J140000D01*
G01*
G37*
G36*
G01*
X130605000Y-130770000D02*
X130605000Y-131140000D01*
G75*
G02*
X130470000Y-131275000I-135000J0D01*
G01*
X130200000Y-131275000D01*
G75*
G02*
X130065000Y-131140000I0J135000D01*
G01*
X130065000Y-130770000D01*
G75*
G02*
X130200000Y-130635000I135000J0D01*
G01*
X130470000Y-130635000D01*
G75*
G02*
X130605000Y-130770000I0J-135000D01*
G01*
G37*
G36*
G01*
X129585000Y-130770000D02*
X129585000Y-131140000D01*
G75*
G02*
X129450000Y-131275000I-135000J0D01*
G01*
X129180000Y-131275000D01*
G75*
G02*
X129045000Y-131140000I0J135000D01*
G01*
X129045000Y-130770000D01*
G75*
G02*
X129180000Y-130635000I135000J0D01*
G01*
X129450000Y-130635000D01*
G75*
G02*
X129585000Y-130770000I0J-135000D01*
G01*
G37*
G36*
G01*
X124245000Y-142700000D02*
X123945000Y-142700000D01*
G75*
G02*
X123795000Y-142550000I0J150000D01*
G01*
X123795000Y-141200000D01*
G75*
G02*
X123945000Y-141050000I150000J0D01*
G01*
X124245000Y-141050000D01*
G75*
G02*
X124395000Y-141200000I0J-150000D01*
G01*
X124395000Y-142550000D01*
G75*
G02*
X124245000Y-142700000I-150000J0D01*
G01*
G37*
G36*
G01*
X125515000Y-142700000D02*
X125215000Y-142700000D01*
G75*
G02*
X125065000Y-142550000I0J150000D01*
G01*
X125065000Y-141200000D01*
G75*
G02*
X125215000Y-141050000I150000J0D01*
G01*
X125515000Y-141050000D01*
G75*
G02*
X125665000Y-141200000I0J-150000D01*
G01*
X125665000Y-142550000D01*
G75*
G02*
X125515000Y-142700000I-150000J0D01*
G01*
G37*
G36*
G01*
X126785000Y-142700000D02*
X126485000Y-142700000D01*
G75*
G02*
X126335000Y-142550000I0J150000D01*
G01*
X126335000Y-141200000D01*
G75*
G02*
X126485000Y-141050000I150000J0D01*
G01*
X126785000Y-141050000D01*
G75*
G02*
X126935000Y-141200000I0J-150000D01*
G01*
X126935000Y-142550000D01*
G75*
G02*
X126785000Y-142700000I-150000J0D01*
G01*
G37*
G36*
G01*
X128055000Y-142700000D02*
X127755000Y-142700000D01*
G75*
G02*
X127605000Y-142550000I0J150000D01*
G01*
X127605000Y-141200000D01*
G75*
G02*
X127755000Y-141050000I150000J0D01*
G01*
X128055000Y-141050000D01*
G75*
G02*
X128205000Y-141200000I0J-150000D01*
G01*
X128205000Y-142550000D01*
G75*
G02*
X128055000Y-142700000I-150000J0D01*
G01*
G37*
G36*
G01*
X128055000Y-137450000D02*
X127755000Y-137450000D01*
G75*
G02*
X127605000Y-137300000I0J150000D01*
G01*
X127605000Y-135950000D01*
G75*
G02*
X127755000Y-135800000I150000J0D01*
G01*
X128055000Y-135800000D01*
G75*
G02*
X128205000Y-135950000I0J-150000D01*
G01*
X128205000Y-137300000D01*
G75*
G02*
X128055000Y-137450000I-150000J0D01*
G01*
G37*
G36*
G01*
X126785000Y-137450000D02*
X126485000Y-137450000D01*
G75*
G02*
X126335000Y-137300000I0J150000D01*
G01*
X126335000Y-135950000D01*
G75*
G02*
X126485000Y-135800000I150000J0D01*
G01*
X126785000Y-135800000D01*
G75*
G02*
X126935000Y-135950000I0J-150000D01*
G01*
X126935000Y-137300000D01*
G75*
G02*
X126785000Y-137450000I-150000J0D01*
G01*
G37*
G36*
G01*
X125515000Y-137450000D02*
X125215000Y-137450000D01*
G75*
G02*
X125065000Y-137300000I0J150000D01*
G01*
X125065000Y-135950000D01*
G75*
G02*
X125215000Y-135800000I150000J0D01*
G01*
X125515000Y-135800000D01*
G75*
G02*
X125665000Y-135950000I0J-150000D01*
G01*
X125665000Y-137300000D01*
G75*
G02*
X125515000Y-137450000I-150000J0D01*
G01*
G37*
G36*
G01*
X124245000Y-137450000D02*
X123945000Y-137450000D01*
G75*
G02*
X123795000Y-137300000I0J150000D01*
G01*
X123795000Y-135950000D01*
G75*
G02*
X123945000Y-135800000I150000J0D01*
G01*
X124245000Y-135800000D01*
G75*
G02*
X124395000Y-135950000I0J-150000D01*
G01*
X124395000Y-137300000D01*
G75*
G02*
X124245000Y-137450000I-150000J0D01*
G01*
G37*
G36*
G01*
X119400000Y-73362500D02*
X119400000Y-73137500D01*
G75*
G02*
X119512500Y-73025000I112500J0D01*
G01*
X119887500Y-73025000D01*
G75*
G02*
X120000000Y-73137500I0J-112500D01*
G01*
X120000000Y-73362500D01*
G75*
G02*
X119887500Y-73475000I-112500J0D01*
G01*
X119512500Y-73475000D01*
G75*
G02*
X119400000Y-73362500I0J112500D01*
G01*
G37*
G36*
G01*
X121500000Y-73362500D02*
X121500000Y-73137500D01*
G75*
G02*
X121612500Y-73025000I112500J0D01*
G01*
X121987500Y-73025000D01*
G75*
G02*
X122100000Y-73137500I0J-112500D01*
G01*
X122100000Y-73362500D01*
G75*
G02*
X121987500Y-73475000I-112500J0D01*
G01*
X121612500Y-73475000D01*
G75*
G02*
X121500000Y-73362500I0J112500D01*
G01*
G37*
G36*
G01*
X105220000Y-54585000D02*
X105220000Y-54215000D01*
G75*
G02*
X105355000Y-54080000I135000J0D01*
G01*
X105625000Y-54080000D01*
G75*
G02*
X105760000Y-54215000I0J-135000D01*
G01*
X105760000Y-54585000D01*
G75*
G02*
X105625000Y-54720000I-135000J0D01*
G01*
X105355000Y-54720000D01*
G75*
G02*
X105220000Y-54585000I0J135000D01*
G01*
G37*
G36*
G01*
X106240000Y-54585000D02*
X106240000Y-54215000D01*
G75*
G02*
X106375000Y-54080000I135000J0D01*
G01*
X106645000Y-54080000D01*
G75*
G02*
X106780000Y-54215000I0J-135000D01*
G01*
X106780000Y-54585000D01*
G75*
G02*
X106645000Y-54720000I-135000J0D01*
G01*
X106375000Y-54720000D01*
G75*
G02*
X106240000Y-54585000I0J135000D01*
G01*
G37*
G36*
G01*
X105220000Y-159585000D02*
X105220000Y-159215000D01*
G75*
G02*
X105355000Y-159080000I135000J0D01*
G01*
X105625000Y-159080000D01*
G75*
G02*
X105760000Y-159215000I0J-135000D01*
G01*
X105760000Y-159585000D01*
G75*
G02*
X105625000Y-159720000I-135000J0D01*
G01*
X105355000Y-159720000D01*
G75*
G02*
X105220000Y-159585000I0J135000D01*
G01*
G37*
G36*
G01*
X106240000Y-159585000D02*
X106240000Y-159215000D01*
G75*
G02*
X106375000Y-159080000I135000J0D01*
G01*
X106645000Y-159080000D01*
G75*
G02*
X106780000Y-159215000I0J-135000D01*
G01*
X106780000Y-159585000D01*
G75*
G02*
X106645000Y-159720000I-135000J0D01*
G01*
X106375000Y-159720000D01*
G75*
G02*
X106240000Y-159585000I0J135000D01*
G01*
G37*
G36*
G01*
X97550000Y-83245000D02*
X97550000Y-82945000D01*
G75*
G02*
X97700000Y-82795000I150000J0D01*
G01*
X99350000Y-82795000D01*
G75*
G02*
X99500000Y-82945000I0J-150000D01*
G01*
X99500000Y-83245000D01*
G75*
G02*
X99350000Y-83395000I-150000J0D01*
G01*
X97700000Y-83395000D01*
G75*
G02*
X97550000Y-83245000I0J150000D01*
G01*
G37*
G36*
G01*
X97550000Y-84515000D02*
X97550000Y-84215000D01*
G75*
G02*
X97700000Y-84065000I150000J0D01*
G01*
X99350000Y-84065000D01*
G75*
G02*
X99500000Y-84215000I0J-150000D01*
G01*
X99500000Y-84515000D01*
G75*
G02*
X99350000Y-84665000I-150000J0D01*
G01*
X97700000Y-84665000D01*
G75*
G02*
X97550000Y-84515000I0J150000D01*
G01*
G37*
G36*
G01*
X97550000Y-85785000D02*
X97550000Y-85485000D01*
G75*
G02*
X97700000Y-85335000I150000J0D01*
G01*
X99350000Y-85335000D01*
G75*
G02*
X99500000Y-85485000I0J-150000D01*
G01*
X99500000Y-85785000D01*
G75*
G02*
X99350000Y-85935000I-150000J0D01*
G01*
X97700000Y-85935000D01*
G75*
G02*
X97550000Y-85785000I0J150000D01*
G01*
G37*
G36*
G01*
X97550000Y-87055000D02*
X97550000Y-86755000D01*
G75*
G02*
X97700000Y-86605000I150000J0D01*
G01*
X99350000Y-86605000D01*
G75*
G02*
X99500000Y-86755000I0J-150000D01*
G01*
X99500000Y-87055000D01*
G75*
G02*
X99350000Y-87205000I-150000J0D01*
G01*
X97700000Y-87205000D01*
G75*
G02*
X97550000Y-87055000I0J150000D01*
G01*
G37*
G36*
G01*
X102500000Y-87055000D02*
X102500000Y-86755000D01*
G75*
G02*
X102650000Y-86605000I150000J0D01*
G01*
X104300000Y-86605000D01*
G75*
G02*
X104450000Y-86755000I0J-150000D01*
G01*
X104450000Y-87055000D01*
G75*
G02*
X104300000Y-87205000I-150000J0D01*
G01*
X102650000Y-87205000D01*
G75*
G02*
X102500000Y-87055000I0J150000D01*
G01*
G37*
G36*
G01*
X102500000Y-85785000D02*
X102500000Y-85485000D01*
G75*
G02*
X102650000Y-85335000I150000J0D01*
G01*
X104300000Y-85335000D01*
G75*
G02*
X104450000Y-85485000I0J-150000D01*
G01*
X104450000Y-85785000D01*
G75*
G02*
X104300000Y-85935000I-150000J0D01*
G01*
X102650000Y-85935000D01*
G75*
G02*
X102500000Y-85785000I0J150000D01*
G01*
G37*
G36*
G01*
X102500000Y-84515000D02*
X102500000Y-84215000D01*
G75*
G02*
X102650000Y-84065000I150000J0D01*
G01*
X104300000Y-84065000D01*
G75*
G02*
X104450000Y-84215000I0J-150000D01*
G01*
X104450000Y-84515000D01*
G75*
G02*
X104300000Y-84665000I-150000J0D01*
G01*
X102650000Y-84665000D01*
G75*
G02*
X102500000Y-84515000I0J150000D01*
G01*
G37*
G36*
G01*
X102500000Y-83245000D02*
X102500000Y-82945000D01*
G75*
G02*
X102650000Y-82795000I150000J0D01*
G01*
X104300000Y-82795000D01*
G75*
G02*
X104450000Y-82945000I0J-150000D01*
G01*
X104450000Y-83245000D01*
G75*
G02*
X104300000Y-83395000I-150000J0D01*
G01*
X102650000Y-83395000D01*
G75*
G02*
X102500000Y-83245000I0J150000D01*
G01*
G37*
G36*
G01*
X137243750Y-68987500D02*
X137756250Y-68987500D01*
G75*
G02*
X137975000Y-69206250I0J-218750D01*
G01*
X137975000Y-69643750D01*
G75*
G02*
X137756250Y-69862500I-218750J0D01*
G01*
X137243750Y-69862500D01*
G75*
G02*
X137025000Y-69643750I0J218750D01*
G01*
X137025000Y-69206250D01*
G75*
G02*
X137243750Y-68987500I218750J0D01*
G01*
G37*
G36*
G01*
X137243750Y-70562500D02*
X137756250Y-70562500D01*
G75*
G02*
X137975000Y-70781250I0J-218750D01*
G01*
X137975000Y-71218750D01*
G75*
G02*
X137756250Y-71437500I-218750J0D01*
G01*
X137243750Y-71437500D01*
G75*
G02*
X137025000Y-71218750I0J218750D01*
G01*
X137025000Y-70781250D01*
G75*
G02*
X137243750Y-70562500I218750J0D01*
G01*
G37*
D10*
X126100000Y-98612500D03*
X128600000Y-98612500D03*
G36*
G01*
X105330000Y-130490000D02*
X105670000Y-130490000D01*
G75*
G02*
X105810000Y-130630000I0J-140000D01*
G01*
X105810000Y-130910000D01*
G75*
G02*
X105670000Y-131050000I-140000J0D01*
G01*
X105330000Y-131050000D01*
G75*
G02*
X105190000Y-130910000I0J140000D01*
G01*
X105190000Y-130630000D01*
G75*
G02*
X105330000Y-130490000I140000J0D01*
G01*
G37*
G36*
G01*
X105330000Y-131450000D02*
X105670000Y-131450000D01*
G75*
G02*
X105810000Y-131590000I0J-140000D01*
G01*
X105810000Y-131870000D01*
G75*
G02*
X105670000Y-132010000I-140000J0D01*
G01*
X105330000Y-132010000D01*
G75*
G02*
X105190000Y-131870000I0J140000D01*
G01*
X105190000Y-131590000D01*
G75*
G02*
X105330000Y-131450000I140000J0D01*
G01*
G37*
G36*
G01*
X130605000Y-133270000D02*
X130605000Y-133640000D01*
G75*
G02*
X130470000Y-133775000I-135000J0D01*
G01*
X130200000Y-133775000D01*
G75*
G02*
X130065000Y-133640000I0J135000D01*
G01*
X130065000Y-133270000D01*
G75*
G02*
X130200000Y-133135000I135000J0D01*
G01*
X130470000Y-133135000D01*
G75*
G02*
X130605000Y-133270000I0J-135000D01*
G01*
G37*
G36*
G01*
X129585000Y-133270000D02*
X129585000Y-133640000D01*
G75*
G02*
X129450000Y-133775000I-135000J0D01*
G01*
X129180000Y-133775000D01*
G75*
G02*
X129045000Y-133640000I0J135000D01*
G01*
X129045000Y-133270000D01*
G75*
G02*
X129180000Y-133135000I135000J0D01*
G01*
X129450000Y-133135000D01*
G75*
G02*
X129585000Y-133270000I0J-135000D01*
G01*
G37*
G36*
G01*
X131562500Y-131256250D02*
X131562500Y-130743750D01*
G75*
G02*
X131781250Y-130525000I218750J0D01*
G01*
X132218750Y-130525000D01*
G75*
G02*
X132437500Y-130743750I0J-218750D01*
G01*
X132437500Y-131256250D01*
G75*
G02*
X132218750Y-131475000I-218750J0D01*
G01*
X131781250Y-131475000D01*
G75*
G02*
X131562500Y-131256250I0J218750D01*
G01*
G37*
G36*
G01*
X133137500Y-131256250D02*
X133137500Y-130743750D01*
G75*
G02*
X133356250Y-130525000I218750J0D01*
G01*
X133793750Y-130525000D01*
G75*
G02*
X134012500Y-130743750I0J-218750D01*
G01*
X134012500Y-131256250D01*
G75*
G02*
X133793750Y-131475000I-218750J0D01*
G01*
X133356250Y-131475000D01*
G75*
G02*
X133137500Y-131256250I0J218750D01*
G01*
G37*
G36*
G01*
X125650000Y-59550000D02*
X124350000Y-59550000D01*
G75*
G02*
X124100000Y-59300000I0J250000D01*
G01*
X124100000Y-58650000D01*
G75*
G02*
X124350000Y-58400000I250000J0D01*
G01*
X125650000Y-58400000D01*
G75*
G02*
X125900000Y-58650000I0J-250000D01*
G01*
X125900000Y-59300000D01*
G75*
G02*
X125650000Y-59550000I-250000J0D01*
G01*
G37*
G36*
G01*
X125650000Y-56600000D02*
X124350000Y-56600000D01*
G75*
G02*
X124100000Y-56350000I0J250000D01*
G01*
X124100000Y-55700000D01*
G75*
G02*
X124350000Y-55450000I250000J0D01*
G01*
X125650000Y-55450000D01*
G75*
G02*
X125900000Y-55700000I0J-250000D01*
G01*
X125900000Y-56350000D01*
G75*
G02*
X125650000Y-56600000I-250000J0D01*
G01*
G37*
G36*
G01*
X130605000Y-115770000D02*
X130605000Y-116140000D01*
G75*
G02*
X130470000Y-116275000I-135000J0D01*
G01*
X130200000Y-116275000D01*
G75*
G02*
X130065000Y-116140000I0J135000D01*
G01*
X130065000Y-115770000D01*
G75*
G02*
X130200000Y-115635000I135000J0D01*
G01*
X130470000Y-115635000D01*
G75*
G02*
X130605000Y-115770000I0J-135000D01*
G01*
G37*
G36*
G01*
X129585000Y-115770000D02*
X129585000Y-116140000D01*
G75*
G02*
X129450000Y-116275000I-135000J0D01*
G01*
X129180000Y-116275000D01*
G75*
G02*
X129045000Y-116140000I0J135000D01*
G01*
X129045000Y-115770000D01*
G75*
G02*
X129180000Y-115635000I135000J0D01*
G01*
X129450000Y-115635000D01*
G75*
G02*
X129585000Y-115770000I0J-135000D01*
G01*
G37*
G36*
G01*
X105330000Y-70490000D02*
X105670000Y-70490000D01*
G75*
G02*
X105810000Y-70630000I0J-140000D01*
G01*
X105810000Y-70910000D01*
G75*
G02*
X105670000Y-71050000I-140000J0D01*
G01*
X105330000Y-71050000D01*
G75*
G02*
X105190000Y-70910000I0J140000D01*
G01*
X105190000Y-70630000D01*
G75*
G02*
X105330000Y-70490000I140000J0D01*
G01*
G37*
G36*
G01*
X105330000Y-71450000D02*
X105670000Y-71450000D01*
G75*
G02*
X105810000Y-71590000I0J-140000D01*
G01*
X105810000Y-71870000D01*
G75*
G02*
X105670000Y-72010000I-140000J0D01*
G01*
X105330000Y-72010000D01*
G75*
G02*
X105190000Y-71870000I0J140000D01*
G01*
X105190000Y-71590000D01*
G75*
G02*
X105330000Y-71450000I140000J0D01*
G01*
G37*
G36*
G01*
X128420000Y-149740000D02*
X128080000Y-149740000D01*
G75*
G02*
X127940000Y-149600000I0J140000D01*
G01*
X127940000Y-149320000D01*
G75*
G02*
X128080000Y-149180000I140000J0D01*
G01*
X128420000Y-149180000D01*
G75*
G02*
X128560000Y-149320000I0J-140000D01*
G01*
X128560000Y-149600000D01*
G75*
G02*
X128420000Y-149740000I-140000J0D01*
G01*
G37*
G36*
G01*
X128420000Y-148780000D02*
X128080000Y-148780000D01*
G75*
G02*
X127940000Y-148640000I0J140000D01*
G01*
X127940000Y-148360000D01*
G75*
G02*
X128080000Y-148220000I140000J0D01*
G01*
X128420000Y-148220000D01*
G75*
G02*
X128560000Y-148360000I0J-140000D01*
G01*
X128560000Y-148640000D01*
G75*
G02*
X128420000Y-148780000I-140000J0D01*
G01*
G37*
G36*
G01*
X105330000Y-85490000D02*
X105670000Y-85490000D01*
G75*
G02*
X105810000Y-85630000I0J-140000D01*
G01*
X105810000Y-85910000D01*
G75*
G02*
X105670000Y-86050000I-140000J0D01*
G01*
X105330000Y-86050000D01*
G75*
G02*
X105190000Y-85910000I0J140000D01*
G01*
X105190000Y-85630000D01*
G75*
G02*
X105330000Y-85490000I140000J0D01*
G01*
G37*
G36*
G01*
X105330000Y-86450000D02*
X105670000Y-86450000D01*
G75*
G02*
X105810000Y-86590000I0J-140000D01*
G01*
X105810000Y-86870000D01*
G75*
G02*
X105670000Y-87010000I-140000J0D01*
G01*
X105330000Y-87010000D01*
G75*
G02*
X105190000Y-86870000I0J140000D01*
G01*
X105190000Y-86590000D01*
G75*
G02*
X105330000Y-86450000I140000J0D01*
G01*
G37*
G36*
G01*
X134240000Y-51670000D02*
X134240000Y-51330000D01*
G75*
G02*
X134380000Y-51190000I140000J0D01*
G01*
X134660000Y-51190000D01*
G75*
G02*
X134800000Y-51330000I0J-140000D01*
G01*
X134800000Y-51670000D01*
G75*
G02*
X134660000Y-51810000I-140000J0D01*
G01*
X134380000Y-51810000D01*
G75*
G02*
X134240000Y-51670000I0J140000D01*
G01*
G37*
G36*
G01*
X135200000Y-51670000D02*
X135200000Y-51330000D01*
G75*
G02*
X135340000Y-51190000I140000J0D01*
G01*
X135620000Y-51190000D01*
G75*
G02*
X135760000Y-51330000I0J-140000D01*
G01*
X135760000Y-51670000D01*
G75*
G02*
X135620000Y-51810000I-140000J0D01*
G01*
X135340000Y-51810000D01*
G75*
G02*
X135200000Y-51670000I0J140000D01*
G01*
G37*
G36*
G01*
X105137500Y-39650000D02*
X105362500Y-39650000D01*
G75*
G02*
X105475000Y-39762500I0J-112500D01*
G01*
X105475000Y-40137500D01*
G75*
G02*
X105362500Y-40250000I-112500J0D01*
G01*
X105137500Y-40250000D01*
G75*
G02*
X105025000Y-40137500I0J112500D01*
G01*
X105025000Y-39762500D01*
G75*
G02*
X105137500Y-39650000I112500J0D01*
G01*
G37*
G36*
G01*
X105137500Y-41750000D02*
X105362500Y-41750000D01*
G75*
G02*
X105475000Y-41862500I0J-112500D01*
G01*
X105475000Y-42237500D01*
G75*
G02*
X105362500Y-42350000I-112500J0D01*
G01*
X105137500Y-42350000D01*
G75*
G02*
X105025000Y-42237500I0J112500D01*
G01*
X105025000Y-41862500D01*
G75*
G02*
X105137500Y-41750000I112500J0D01*
G01*
G37*
G36*
G01*
X96900000Y-51225000D02*
X96900000Y-46275000D01*
G75*
G02*
X97150000Y-46025000I250000J0D01*
G01*
X98575000Y-46025000D01*
G75*
G02*
X98825000Y-46275000I0J-250000D01*
G01*
X98825000Y-51225000D01*
G75*
G02*
X98575000Y-51475000I-250000J0D01*
G01*
X97150000Y-51475000D01*
G75*
G02*
X96900000Y-51225000I0J250000D01*
G01*
G37*
G36*
G01*
X103675000Y-51225000D02*
X103675000Y-46275000D01*
G75*
G02*
X103925000Y-46025000I250000J0D01*
G01*
X105350000Y-46025000D01*
G75*
G02*
X105600000Y-46275000I0J-250000D01*
G01*
X105600000Y-51225000D01*
G75*
G02*
X105350000Y-51475000I-250000J0D01*
G01*
X103925000Y-51475000D01*
G75*
G02*
X103675000Y-51225000I0J250000D01*
G01*
G37*
G36*
G01*
X124362500Y-41300000D02*
X124362500Y-41600000D01*
G75*
G02*
X124212500Y-41750000I-150000J0D01*
G01*
X123037500Y-41750000D01*
G75*
G02*
X122887500Y-41600000I0J150000D01*
G01*
X122887500Y-41300000D01*
G75*
G02*
X123037500Y-41150000I150000J0D01*
G01*
X124212500Y-41150000D01*
G75*
G02*
X124362500Y-41300000I0J-150000D01*
G01*
G37*
G36*
G01*
X124362500Y-39400000D02*
X124362500Y-39700000D01*
G75*
G02*
X124212500Y-39850000I-150000J0D01*
G01*
X123037500Y-39850000D01*
G75*
G02*
X122887500Y-39700000I0J150000D01*
G01*
X122887500Y-39400000D01*
G75*
G02*
X123037500Y-39250000I150000J0D01*
G01*
X124212500Y-39250000D01*
G75*
G02*
X124362500Y-39400000I0J-150000D01*
G01*
G37*
G36*
G01*
X122487500Y-40350000D02*
X122487500Y-40650000D01*
G75*
G02*
X122337500Y-40800000I-150000J0D01*
G01*
X121162500Y-40800000D01*
G75*
G02*
X121012500Y-40650000I0J150000D01*
G01*
X121012500Y-40350000D01*
G75*
G02*
X121162500Y-40200000I150000J0D01*
G01*
X122337500Y-40200000D01*
G75*
G02*
X122487500Y-40350000I0J-150000D01*
G01*
G37*
G36*
G01*
X135050000Y-67100000D02*
X135050000Y-68400000D01*
G75*
G02*
X134800000Y-68650000I-250000J0D01*
G01*
X134150000Y-68650000D01*
G75*
G02*
X133900000Y-68400000I0J250000D01*
G01*
X133900000Y-67100000D01*
G75*
G02*
X134150000Y-66850000I250000J0D01*
G01*
X134800000Y-66850000D01*
G75*
G02*
X135050000Y-67100000I0J-250000D01*
G01*
G37*
G36*
G01*
X132100000Y-67100000D02*
X132100000Y-68400000D01*
G75*
G02*
X131850000Y-68650000I-250000J0D01*
G01*
X131200000Y-68650000D01*
G75*
G02*
X130950000Y-68400000I0J250000D01*
G01*
X130950000Y-67100000D01*
G75*
G02*
X131200000Y-66850000I250000J0D01*
G01*
X131850000Y-66850000D01*
G75*
G02*
X132100000Y-67100000I0J-250000D01*
G01*
G37*
G36*
G01*
X131562500Y-121256250D02*
X131562500Y-120743750D01*
G75*
G02*
X131781250Y-120525000I218750J0D01*
G01*
X132218750Y-120525000D01*
G75*
G02*
X132437500Y-120743750I0J-218750D01*
G01*
X132437500Y-121256250D01*
G75*
G02*
X132218750Y-121475000I-218750J0D01*
G01*
X131781250Y-121475000D01*
G75*
G02*
X131562500Y-121256250I0J218750D01*
G01*
G37*
G36*
G01*
X133137500Y-121256250D02*
X133137500Y-120743750D01*
G75*
G02*
X133356250Y-120525000I218750J0D01*
G01*
X133793750Y-120525000D01*
G75*
G02*
X134012500Y-120743750I0J-218750D01*
G01*
X134012500Y-121256250D01*
G75*
G02*
X133793750Y-121475000I-218750J0D01*
G01*
X133356250Y-121475000D01*
G75*
G02*
X133137500Y-121256250I0J218750D01*
G01*
G37*
D11*
X107985000Y-39730000D03*
X107985000Y-42270000D03*
X117515000Y-42270000D03*
X117515000Y-39730000D03*
G36*
G01*
X105220000Y-69585000D02*
X105220000Y-69215000D01*
G75*
G02*
X105355000Y-69080000I135000J0D01*
G01*
X105625000Y-69080000D01*
G75*
G02*
X105760000Y-69215000I0J-135000D01*
G01*
X105760000Y-69585000D01*
G75*
G02*
X105625000Y-69720000I-135000J0D01*
G01*
X105355000Y-69720000D01*
G75*
G02*
X105220000Y-69585000I0J135000D01*
G01*
G37*
G36*
G01*
X106240000Y-69585000D02*
X106240000Y-69215000D01*
G75*
G02*
X106375000Y-69080000I135000J0D01*
G01*
X106645000Y-69080000D01*
G75*
G02*
X106780000Y-69215000I0J-135000D01*
G01*
X106780000Y-69585000D01*
G75*
G02*
X106645000Y-69720000I-135000J0D01*
G01*
X106375000Y-69720000D01*
G75*
G02*
X106240000Y-69585000I0J135000D01*
G01*
G37*
G36*
G01*
X97550000Y-68245000D02*
X97550000Y-67945000D01*
G75*
G02*
X97700000Y-67795000I150000J0D01*
G01*
X99350000Y-67795000D01*
G75*
G02*
X99500000Y-67945000I0J-150000D01*
G01*
X99500000Y-68245000D01*
G75*
G02*
X99350000Y-68395000I-150000J0D01*
G01*
X97700000Y-68395000D01*
G75*
G02*
X97550000Y-68245000I0J150000D01*
G01*
G37*
G36*
G01*
X97550000Y-69515000D02*
X97550000Y-69215000D01*
G75*
G02*
X97700000Y-69065000I150000J0D01*
G01*
X99350000Y-69065000D01*
G75*
G02*
X99500000Y-69215000I0J-150000D01*
G01*
X99500000Y-69515000D01*
G75*
G02*
X99350000Y-69665000I-150000J0D01*
G01*
X97700000Y-69665000D01*
G75*
G02*
X97550000Y-69515000I0J150000D01*
G01*
G37*
G36*
G01*
X97550000Y-70785000D02*
X97550000Y-70485000D01*
G75*
G02*
X97700000Y-70335000I150000J0D01*
G01*
X99350000Y-70335000D01*
G75*
G02*
X99500000Y-70485000I0J-150000D01*
G01*
X99500000Y-70785000D01*
G75*
G02*
X99350000Y-70935000I-150000J0D01*
G01*
X97700000Y-70935000D01*
G75*
G02*
X97550000Y-70785000I0J150000D01*
G01*
G37*
G36*
G01*
X97550000Y-72055000D02*
X97550000Y-71755000D01*
G75*
G02*
X97700000Y-71605000I150000J0D01*
G01*
X99350000Y-71605000D01*
G75*
G02*
X99500000Y-71755000I0J-150000D01*
G01*
X99500000Y-72055000D01*
G75*
G02*
X99350000Y-72205000I-150000J0D01*
G01*
X97700000Y-72205000D01*
G75*
G02*
X97550000Y-72055000I0J150000D01*
G01*
G37*
G36*
G01*
X102500000Y-72055000D02*
X102500000Y-71755000D01*
G75*
G02*
X102650000Y-71605000I150000J0D01*
G01*
X104300000Y-71605000D01*
G75*
G02*
X104450000Y-71755000I0J-150000D01*
G01*
X104450000Y-72055000D01*
G75*
G02*
X104300000Y-72205000I-150000J0D01*
G01*
X102650000Y-72205000D01*
G75*
G02*
X102500000Y-72055000I0J150000D01*
G01*
G37*
G36*
G01*
X102500000Y-70785000D02*
X102500000Y-70485000D01*
G75*
G02*
X102650000Y-70335000I150000J0D01*
G01*
X104300000Y-70335000D01*
G75*
G02*
X104450000Y-70485000I0J-150000D01*
G01*
X104450000Y-70785000D01*
G75*
G02*
X104300000Y-70935000I-150000J0D01*
G01*
X102650000Y-70935000D01*
G75*
G02*
X102500000Y-70785000I0J150000D01*
G01*
G37*
G36*
G01*
X102500000Y-69515000D02*
X102500000Y-69215000D01*
G75*
G02*
X102650000Y-69065000I150000J0D01*
G01*
X104300000Y-69065000D01*
G75*
G02*
X104450000Y-69215000I0J-150000D01*
G01*
X104450000Y-69515000D01*
G75*
G02*
X104300000Y-69665000I-150000J0D01*
G01*
X102650000Y-69665000D01*
G75*
G02*
X102500000Y-69515000I0J150000D01*
G01*
G37*
G36*
G01*
X102500000Y-68245000D02*
X102500000Y-67945000D01*
G75*
G02*
X102650000Y-67795000I150000J0D01*
G01*
X104300000Y-67795000D01*
G75*
G02*
X104450000Y-67945000I0J-150000D01*
G01*
X104450000Y-68245000D01*
G75*
G02*
X104300000Y-68395000I-150000J0D01*
G01*
X102650000Y-68395000D01*
G75*
G02*
X102500000Y-68245000I0J150000D01*
G01*
G37*
G36*
G01*
X130605000Y-123270000D02*
X130605000Y-123640000D01*
G75*
G02*
X130470000Y-123775000I-135000J0D01*
G01*
X130200000Y-123775000D01*
G75*
G02*
X130065000Y-123640000I0J135000D01*
G01*
X130065000Y-123270000D01*
G75*
G02*
X130200000Y-123135000I135000J0D01*
G01*
X130470000Y-123135000D01*
G75*
G02*
X130605000Y-123270000I0J-135000D01*
G01*
G37*
G36*
G01*
X129585000Y-123270000D02*
X129585000Y-123640000D01*
G75*
G02*
X129450000Y-123775000I-135000J0D01*
G01*
X129180000Y-123775000D01*
G75*
G02*
X129045000Y-123640000I0J135000D01*
G01*
X129045000Y-123270000D01*
G75*
G02*
X129180000Y-123135000I135000J0D01*
G01*
X129450000Y-123135000D01*
G75*
G02*
X129585000Y-123270000I0J-135000D01*
G01*
G37*
G36*
G01*
X105330000Y-160490000D02*
X105670000Y-160490000D01*
G75*
G02*
X105810000Y-160630000I0J-140000D01*
G01*
X105810000Y-160910000D01*
G75*
G02*
X105670000Y-161050000I-140000J0D01*
G01*
X105330000Y-161050000D01*
G75*
G02*
X105190000Y-160910000I0J140000D01*
G01*
X105190000Y-160630000D01*
G75*
G02*
X105330000Y-160490000I140000J0D01*
G01*
G37*
G36*
G01*
X105330000Y-161450000D02*
X105670000Y-161450000D01*
G75*
G02*
X105810000Y-161590000I0J-140000D01*
G01*
X105810000Y-161870000D01*
G75*
G02*
X105670000Y-162010000I-140000J0D01*
G01*
X105330000Y-162010000D01*
G75*
G02*
X105190000Y-161870000I0J140000D01*
G01*
X105190000Y-161590000D01*
G75*
G02*
X105330000Y-161450000I140000J0D01*
G01*
G37*
G36*
G01*
X105220000Y-84585000D02*
X105220000Y-84215000D01*
G75*
G02*
X105355000Y-84080000I135000J0D01*
G01*
X105625000Y-84080000D01*
G75*
G02*
X105760000Y-84215000I0J-135000D01*
G01*
X105760000Y-84585000D01*
G75*
G02*
X105625000Y-84720000I-135000J0D01*
G01*
X105355000Y-84720000D01*
G75*
G02*
X105220000Y-84585000I0J135000D01*
G01*
G37*
G36*
G01*
X106240000Y-84585000D02*
X106240000Y-84215000D01*
G75*
G02*
X106375000Y-84080000I135000J0D01*
G01*
X106645000Y-84080000D01*
G75*
G02*
X106780000Y-84215000I0J-135000D01*
G01*
X106780000Y-84585000D01*
G75*
G02*
X106645000Y-84720000I-135000J0D01*
G01*
X106375000Y-84720000D01*
G75*
G02*
X106240000Y-84585000I0J135000D01*
G01*
G37*
G36*
G01*
X130950000Y-148200000D02*
X130950000Y-147900000D01*
G75*
G02*
X131100000Y-147750000I150000J0D01*
G01*
X132125000Y-147750000D01*
G75*
G02*
X132275000Y-147900000I0J-150000D01*
G01*
X132275000Y-148200000D01*
G75*
G02*
X132125000Y-148350000I-150000J0D01*
G01*
X131100000Y-148350000D01*
G75*
G02*
X130950000Y-148200000I0J150000D01*
G01*
G37*
G36*
G01*
X130950000Y-150100000D02*
X130950000Y-149800000D01*
G75*
G02*
X131100000Y-149650000I150000J0D01*
G01*
X132125000Y-149650000D01*
G75*
G02*
X132275000Y-149800000I0J-150000D01*
G01*
X132275000Y-150100000D01*
G75*
G02*
X132125000Y-150250000I-150000J0D01*
G01*
X131100000Y-150250000D01*
G75*
G02*
X130950000Y-150100000I0J150000D01*
G01*
G37*
G36*
G01*
X133225000Y-149150000D02*
X133225000Y-148850000D01*
G75*
G02*
X133375000Y-148700000I150000J0D01*
G01*
X134400000Y-148700000D01*
G75*
G02*
X134550000Y-148850000I0J-150000D01*
G01*
X134550000Y-149150000D01*
G75*
G02*
X134400000Y-149300000I-150000J0D01*
G01*
X133375000Y-149300000D01*
G75*
G02*
X133225000Y-149150000I0J150000D01*
G01*
G37*
G36*
G01*
X136030000Y-151815000D02*
X136030000Y-152185000D01*
G75*
G02*
X135895000Y-152320000I-135000J0D01*
G01*
X135625000Y-152320000D01*
G75*
G02*
X135490000Y-152185000I0J135000D01*
G01*
X135490000Y-151815000D01*
G75*
G02*
X135625000Y-151680000I135000J0D01*
G01*
X135895000Y-151680000D01*
G75*
G02*
X136030000Y-151815000I0J-135000D01*
G01*
G37*
G36*
G01*
X135010000Y-151815000D02*
X135010000Y-152185000D01*
G75*
G02*
X134875000Y-152320000I-135000J0D01*
G01*
X134605000Y-152320000D01*
G75*
G02*
X134470000Y-152185000I0J135000D01*
G01*
X134470000Y-151815000D01*
G75*
G02*
X134605000Y-151680000I135000J0D01*
G01*
X134875000Y-151680000D01*
G75*
G02*
X135010000Y-151815000I0J-135000D01*
G01*
G37*
G36*
G01*
X97550000Y-113245000D02*
X97550000Y-112945000D01*
G75*
G02*
X97700000Y-112795000I150000J0D01*
G01*
X99350000Y-112795000D01*
G75*
G02*
X99500000Y-112945000I0J-150000D01*
G01*
X99500000Y-113245000D01*
G75*
G02*
X99350000Y-113395000I-150000J0D01*
G01*
X97700000Y-113395000D01*
G75*
G02*
X97550000Y-113245000I0J150000D01*
G01*
G37*
G36*
G01*
X97550000Y-114515000D02*
X97550000Y-114215000D01*
G75*
G02*
X97700000Y-114065000I150000J0D01*
G01*
X99350000Y-114065000D01*
G75*
G02*
X99500000Y-114215000I0J-150000D01*
G01*
X99500000Y-114515000D01*
G75*
G02*
X99350000Y-114665000I-150000J0D01*
G01*
X97700000Y-114665000D01*
G75*
G02*
X97550000Y-114515000I0J150000D01*
G01*
G37*
G36*
G01*
X97550000Y-115785000D02*
X97550000Y-115485000D01*
G75*
G02*
X97700000Y-115335000I150000J0D01*
G01*
X99350000Y-115335000D01*
G75*
G02*
X99500000Y-115485000I0J-150000D01*
G01*
X99500000Y-115785000D01*
G75*
G02*
X99350000Y-115935000I-150000J0D01*
G01*
X97700000Y-115935000D01*
G75*
G02*
X97550000Y-115785000I0J150000D01*
G01*
G37*
G36*
G01*
X97550000Y-117055000D02*
X97550000Y-116755000D01*
G75*
G02*
X97700000Y-116605000I150000J0D01*
G01*
X99350000Y-116605000D01*
G75*
G02*
X99500000Y-116755000I0J-150000D01*
G01*
X99500000Y-117055000D01*
G75*
G02*
X99350000Y-117205000I-150000J0D01*
G01*
X97700000Y-117205000D01*
G75*
G02*
X97550000Y-117055000I0J150000D01*
G01*
G37*
G36*
G01*
X102500000Y-117055000D02*
X102500000Y-116755000D01*
G75*
G02*
X102650000Y-116605000I150000J0D01*
G01*
X104300000Y-116605000D01*
G75*
G02*
X104450000Y-116755000I0J-150000D01*
G01*
X104450000Y-117055000D01*
G75*
G02*
X104300000Y-117205000I-150000J0D01*
G01*
X102650000Y-117205000D01*
G75*
G02*
X102500000Y-117055000I0J150000D01*
G01*
G37*
G36*
G01*
X102500000Y-115785000D02*
X102500000Y-115485000D01*
G75*
G02*
X102650000Y-115335000I150000J0D01*
G01*
X104300000Y-115335000D01*
G75*
G02*
X104450000Y-115485000I0J-150000D01*
G01*
X104450000Y-115785000D01*
G75*
G02*
X104300000Y-115935000I-150000J0D01*
G01*
X102650000Y-115935000D01*
G75*
G02*
X102500000Y-115785000I0J150000D01*
G01*
G37*
G36*
G01*
X102500000Y-114515000D02*
X102500000Y-114215000D01*
G75*
G02*
X102650000Y-114065000I150000J0D01*
G01*
X104300000Y-114065000D01*
G75*
G02*
X104450000Y-114215000I0J-150000D01*
G01*
X104450000Y-114515000D01*
G75*
G02*
X104300000Y-114665000I-150000J0D01*
G01*
X102650000Y-114665000D01*
G75*
G02*
X102500000Y-114515000I0J150000D01*
G01*
G37*
G36*
G01*
X102500000Y-113245000D02*
X102500000Y-112945000D01*
G75*
G02*
X102650000Y-112795000I150000J0D01*
G01*
X104300000Y-112795000D01*
G75*
G02*
X104450000Y-112945000I0J-150000D01*
G01*
X104450000Y-113245000D01*
G75*
G02*
X104300000Y-113395000I-150000J0D01*
G01*
X102650000Y-113395000D01*
G75*
G02*
X102500000Y-113245000I0J150000D01*
G01*
G37*
G36*
G01*
X119755000Y-134550000D02*
X120055000Y-134550000D01*
G75*
G02*
X120205000Y-134700000I0J-150000D01*
G01*
X120205000Y-136350000D01*
G75*
G02*
X120055000Y-136500000I-150000J0D01*
G01*
X119755000Y-136500000D01*
G75*
G02*
X119605000Y-136350000I0J150000D01*
G01*
X119605000Y-134700000D01*
G75*
G02*
X119755000Y-134550000I150000J0D01*
G01*
G37*
G36*
G01*
X118485000Y-134550000D02*
X118785000Y-134550000D01*
G75*
G02*
X118935000Y-134700000I0J-150000D01*
G01*
X118935000Y-136350000D01*
G75*
G02*
X118785000Y-136500000I-150000J0D01*
G01*
X118485000Y-136500000D01*
G75*
G02*
X118335000Y-136350000I0J150000D01*
G01*
X118335000Y-134700000D01*
G75*
G02*
X118485000Y-134550000I150000J0D01*
G01*
G37*
G36*
G01*
X117215000Y-134550000D02*
X117515000Y-134550000D01*
G75*
G02*
X117665000Y-134700000I0J-150000D01*
G01*
X117665000Y-136350000D01*
G75*
G02*
X117515000Y-136500000I-150000J0D01*
G01*
X117215000Y-136500000D01*
G75*
G02*
X117065000Y-136350000I0J150000D01*
G01*
X117065000Y-134700000D01*
G75*
G02*
X117215000Y-134550000I150000J0D01*
G01*
G37*
G36*
G01*
X115945000Y-134550000D02*
X116245000Y-134550000D01*
G75*
G02*
X116395000Y-134700000I0J-150000D01*
G01*
X116395000Y-136350000D01*
G75*
G02*
X116245000Y-136500000I-150000J0D01*
G01*
X115945000Y-136500000D01*
G75*
G02*
X115795000Y-136350000I0J150000D01*
G01*
X115795000Y-134700000D01*
G75*
G02*
X115945000Y-134550000I150000J0D01*
G01*
G37*
G36*
G01*
X115945000Y-139500000D02*
X116245000Y-139500000D01*
G75*
G02*
X116395000Y-139650000I0J-150000D01*
G01*
X116395000Y-141300000D01*
G75*
G02*
X116245000Y-141450000I-150000J0D01*
G01*
X115945000Y-141450000D01*
G75*
G02*
X115795000Y-141300000I0J150000D01*
G01*
X115795000Y-139650000D01*
G75*
G02*
X115945000Y-139500000I150000J0D01*
G01*
G37*
G36*
G01*
X117215000Y-139500000D02*
X117515000Y-139500000D01*
G75*
G02*
X117665000Y-139650000I0J-150000D01*
G01*
X117665000Y-141300000D01*
G75*
G02*
X117515000Y-141450000I-150000J0D01*
G01*
X117215000Y-141450000D01*
G75*
G02*
X117065000Y-141300000I0J150000D01*
G01*
X117065000Y-139650000D01*
G75*
G02*
X117215000Y-139500000I150000J0D01*
G01*
G37*
G36*
G01*
X118485000Y-139500000D02*
X118785000Y-139500000D01*
G75*
G02*
X118935000Y-139650000I0J-150000D01*
G01*
X118935000Y-141300000D01*
G75*
G02*
X118785000Y-141450000I-150000J0D01*
G01*
X118485000Y-141450000D01*
G75*
G02*
X118335000Y-141300000I0J150000D01*
G01*
X118335000Y-139650000D01*
G75*
G02*
X118485000Y-139500000I150000J0D01*
G01*
G37*
G36*
G01*
X119755000Y-139500000D02*
X120055000Y-139500000D01*
G75*
G02*
X120205000Y-139650000I0J-150000D01*
G01*
X120205000Y-141300000D01*
G75*
G02*
X120055000Y-141450000I-150000J0D01*
G01*
X119755000Y-141450000D01*
G75*
G02*
X119605000Y-141300000I0J150000D01*
G01*
X119605000Y-139650000D01*
G75*
G02*
X119755000Y-139500000I150000J0D01*
G01*
G37*
G36*
G01*
X123925000Y-101012500D02*
X124075000Y-101012500D01*
G75*
G02*
X124150000Y-101087500I0J-75000D01*
G01*
X124150000Y-102412500D01*
G75*
G02*
X124075000Y-102487500I-75000J0D01*
G01*
X123925000Y-102487500D01*
G75*
G02*
X123850000Y-102412500I0J75000D01*
G01*
X123850000Y-101087500D01*
G75*
G02*
X123925000Y-101012500I75000J0D01*
G01*
G37*
G36*
G01*
X123425000Y-101012500D02*
X123575000Y-101012500D01*
G75*
G02*
X123650000Y-101087500I0J-75000D01*
G01*
X123650000Y-102412500D01*
G75*
G02*
X123575000Y-102487500I-75000J0D01*
G01*
X123425000Y-102487500D01*
G75*
G02*
X123350000Y-102412500I0J75000D01*
G01*
X123350000Y-101087500D01*
G75*
G02*
X123425000Y-101012500I75000J0D01*
G01*
G37*
G36*
G01*
X122925000Y-101012500D02*
X123075000Y-101012500D01*
G75*
G02*
X123150000Y-101087500I0J-75000D01*
G01*
X123150000Y-102412500D01*
G75*
G02*
X123075000Y-102487500I-75000J0D01*
G01*
X122925000Y-102487500D01*
G75*
G02*
X122850000Y-102412500I0J75000D01*
G01*
X122850000Y-101087500D01*
G75*
G02*
X122925000Y-101012500I75000J0D01*
G01*
G37*
G36*
G01*
X122425000Y-101012500D02*
X122575000Y-101012500D01*
G75*
G02*
X122650000Y-101087500I0J-75000D01*
G01*
X122650000Y-102412500D01*
G75*
G02*
X122575000Y-102487500I-75000J0D01*
G01*
X122425000Y-102487500D01*
G75*
G02*
X122350000Y-102412500I0J75000D01*
G01*
X122350000Y-101087500D01*
G75*
G02*
X122425000Y-101012500I75000J0D01*
G01*
G37*
G36*
G01*
X121925000Y-101012500D02*
X122075000Y-101012500D01*
G75*
G02*
X122150000Y-101087500I0J-75000D01*
G01*
X122150000Y-102412500D01*
G75*
G02*
X122075000Y-102487500I-75000J0D01*
G01*
X121925000Y-102487500D01*
G75*
G02*
X121850000Y-102412500I0J75000D01*
G01*
X121850000Y-101087500D01*
G75*
G02*
X121925000Y-101012500I75000J0D01*
G01*
G37*
G36*
G01*
X121425000Y-101012500D02*
X121575000Y-101012500D01*
G75*
G02*
X121650000Y-101087500I0J-75000D01*
G01*
X121650000Y-102412500D01*
G75*
G02*
X121575000Y-102487500I-75000J0D01*
G01*
X121425000Y-102487500D01*
G75*
G02*
X121350000Y-102412500I0J75000D01*
G01*
X121350000Y-101087500D01*
G75*
G02*
X121425000Y-101012500I75000J0D01*
G01*
G37*
G36*
G01*
X120925000Y-101012500D02*
X121075000Y-101012500D01*
G75*
G02*
X121150000Y-101087500I0J-75000D01*
G01*
X121150000Y-102412500D01*
G75*
G02*
X121075000Y-102487500I-75000J0D01*
G01*
X120925000Y-102487500D01*
G75*
G02*
X120850000Y-102412500I0J75000D01*
G01*
X120850000Y-101087500D01*
G75*
G02*
X120925000Y-101012500I75000J0D01*
G01*
G37*
G36*
G01*
X120425000Y-101012500D02*
X120575000Y-101012500D01*
G75*
G02*
X120650000Y-101087500I0J-75000D01*
G01*
X120650000Y-102412500D01*
G75*
G02*
X120575000Y-102487500I-75000J0D01*
G01*
X120425000Y-102487500D01*
G75*
G02*
X120350000Y-102412500I0J75000D01*
G01*
X120350000Y-101087500D01*
G75*
G02*
X120425000Y-101012500I75000J0D01*
G01*
G37*
G36*
G01*
X119925000Y-101012500D02*
X120075000Y-101012500D01*
G75*
G02*
X120150000Y-101087500I0J-75000D01*
G01*
X120150000Y-102412500D01*
G75*
G02*
X120075000Y-102487500I-75000J0D01*
G01*
X119925000Y-102487500D01*
G75*
G02*
X119850000Y-102412500I0J75000D01*
G01*
X119850000Y-101087500D01*
G75*
G02*
X119925000Y-101012500I75000J0D01*
G01*
G37*
G36*
G01*
X119425000Y-101012500D02*
X119575000Y-101012500D01*
G75*
G02*
X119650000Y-101087500I0J-75000D01*
G01*
X119650000Y-102412500D01*
G75*
G02*
X119575000Y-102487500I-75000J0D01*
G01*
X119425000Y-102487500D01*
G75*
G02*
X119350000Y-102412500I0J75000D01*
G01*
X119350000Y-101087500D01*
G75*
G02*
X119425000Y-101012500I75000J0D01*
G01*
G37*
G36*
G01*
X118925000Y-101012500D02*
X119075000Y-101012500D01*
G75*
G02*
X119150000Y-101087500I0J-75000D01*
G01*
X119150000Y-102412500D01*
G75*
G02*
X119075000Y-102487500I-75000J0D01*
G01*
X118925000Y-102487500D01*
G75*
G02*
X118850000Y-102412500I0J75000D01*
G01*
X118850000Y-101087500D01*
G75*
G02*
X118925000Y-101012500I75000J0D01*
G01*
G37*
G36*
G01*
X118425000Y-101012500D02*
X118575000Y-101012500D01*
G75*
G02*
X118650000Y-101087500I0J-75000D01*
G01*
X118650000Y-102412500D01*
G75*
G02*
X118575000Y-102487500I-75000J0D01*
G01*
X118425000Y-102487500D01*
G75*
G02*
X118350000Y-102412500I0J75000D01*
G01*
X118350000Y-101087500D01*
G75*
G02*
X118425000Y-101012500I75000J0D01*
G01*
G37*
G36*
G01*
X116425000Y-103012500D02*
X117750000Y-103012500D01*
G75*
G02*
X117825000Y-103087500I0J-75000D01*
G01*
X117825000Y-103237500D01*
G75*
G02*
X117750000Y-103312500I-75000J0D01*
G01*
X116425000Y-103312500D01*
G75*
G02*
X116350000Y-103237500I0J75000D01*
G01*
X116350000Y-103087500D01*
G75*
G02*
X116425000Y-103012500I75000J0D01*
G01*
G37*
G36*
G01*
X116425000Y-103512500D02*
X117750000Y-103512500D01*
G75*
G02*
X117825000Y-103587500I0J-75000D01*
G01*
X117825000Y-103737500D01*
G75*
G02*
X117750000Y-103812500I-75000J0D01*
G01*
X116425000Y-103812500D01*
G75*
G02*
X116350000Y-103737500I0J75000D01*
G01*
X116350000Y-103587500D01*
G75*
G02*
X116425000Y-103512500I75000J0D01*
G01*
G37*
G36*
G01*
X116425000Y-104012500D02*
X117750000Y-104012500D01*
G75*
G02*
X117825000Y-104087500I0J-75000D01*
G01*
X117825000Y-104237500D01*
G75*
G02*
X117750000Y-104312500I-75000J0D01*
G01*
X116425000Y-104312500D01*
G75*
G02*
X116350000Y-104237500I0J75000D01*
G01*
X116350000Y-104087500D01*
G75*
G02*
X116425000Y-104012500I75000J0D01*
G01*
G37*
G36*
G01*
X116425000Y-104512500D02*
X117750000Y-104512500D01*
G75*
G02*
X117825000Y-104587500I0J-75000D01*
G01*
X117825000Y-104737500D01*
G75*
G02*
X117750000Y-104812500I-75000J0D01*
G01*
X116425000Y-104812500D01*
G75*
G02*
X116350000Y-104737500I0J75000D01*
G01*
X116350000Y-104587500D01*
G75*
G02*
X116425000Y-104512500I75000J0D01*
G01*
G37*
G36*
G01*
X116425000Y-105012500D02*
X117750000Y-105012500D01*
G75*
G02*
X117825000Y-105087500I0J-75000D01*
G01*
X117825000Y-105237500D01*
G75*
G02*
X117750000Y-105312500I-75000J0D01*
G01*
X116425000Y-105312500D01*
G75*
G02*
X116350000Y-105237500I0J75000D01*
G01*
X116350000Y-105087500D01*
G75*
G02*
X116425000Y-105012500I75000J0D01*
G01*
G37*
G36*
G01*
X116425000Y-105512500D02*
X117750000Y-105512500D01*
G75*
G02*
X117825000Y-105587500I0J-75000D01*
G01*
X117825000Y-105737500D01*
G75*
G02*
X117750000Y-105812500I-75000J0D01*
G01*
X116425000Y-105812500D01*
G75*
G02*
X116350000Y-105737500I0J75000D01*
G01*
X116350000Y-105587500D01*
G75*
G02*
X116425000Y-105512500I75000J0D01*
G01*
G37*
G36*
G01*
X116425000Y-106012500D02*
X117750000Y-106012500D01*
G75*
G02*
X117825000Y-106087500I0J-75000D01*
G01*
X117825000Y-106237500D01*
G75*
G02*
X117750000Y-106312500I-75000J0D01*
G01*
X116425000Y-106312500D01*
G75*
G02*
X116350000Y-106237500I0J75000D01*
G01*
X116350000Y-106087500D01*
G75*
G02*
X116425000Y-106012500I75000J0D01*
G01*
G37*
G36*
G01*
X116425000Y-106512500D02*
X117750000Y-106512500D01*
G75*
G02*
X117825000Y-106587500I0J-75000D01*
G01*
X117825000Y-106737500D01*
G75*
G02*
X117750000Y-106812500I-75000J0D01*
G01*
X116425000Y-106812500D01*
G75*
G02*
X116350000Y-106737500I0J75000D01*
G01*
X116350000Y-106587500D01*
G75*
G02*
X116425000Y-106512500I75000J0D01*
G01*
G37*
G36*
G01*
X116425000Y-107012500D02*
X117750000Y-107012500D01*
G75*
G02*
X117825000Y-107087500I0J-75000D01*
G01*
X117825000Y-107237500D01*
G75*
G02*
X117750000Y-107312500I-75000J0D01*
G01*
X116425000Y-107312500D01*
G75*
G02*
X116350000Y-107237500I0J75000D01*
G01*
X116350000Y-107087500D01*
G75*
G02*
X116425000Y-107012500I75000J0D01*
G01*
G37*
G36*
G01*
X116425000Y-107512500D02*
X117750000Y-107512500D01*
G75*
G02*
X117825000Y-107587500I0J-75000D01*
G01*
X117825000Y-107737500D01*
G75*
G02*
X117750000Y-107812500I-75000J0D01*
G01*
X116425000Y-107812500D01*
G75*
G02*
X116350000Y-107737500I0J75000D01*
G01*
X116350000Y-107587500D01*
G75*
G02*
X116425000Y-107512500I75000J0D01*
G01*
G37*
G36*
G01*
X116425000Y-108012500D02*
X117750000Y-108012500D01*
G75*
G02*
X117825000Y-108087500I0J-75000D01*
G01*
X117825000Y-108237500D01*
G75*
G02*
X117750000Y-108312500I-75000J0D01*
G01*
X116425000Y-108312500D01*
G75*
G02*
X116350000Y-108237500I0J75000D01*
G01*
X116350000Y-108087500D01*
G75*
G02*
X116425000Y-108012500I75000J0D01*
G01*
G37*
G36*
G01*
X116425000Y-108512500D02*
X117750000Y-108512500D01*
G75*
G02*
X117825000Y-108587500I0J-75000D01*
G01*
X117825000Y-108737500D01*
G75*
G02*
X117750000Y-108812500I-75000J0D01*
G01*
X116425000Y-108812500D01*
G75*
G02*
X116350000Y-108737500I0J75000D01*
G01*
X116350000Y-108587500D01*
G75*
G02*
X116425000Y-108512500I75000J0D01*
G01*
G37*
G36*
G01*
X118425000Y-109337500D02*
X118575000Y-109337500D01*
G75*
G02*
X118650000Y-109412500I0J-75000D01*
G01*
X118650000Y-110737500D01*
G75*
G02*
X118575000Y-110812500I-75000J0D01*
G01*
X118425000Y-110812500D01*
G75*
G02*
X118350000Y-110737500I0J75000D01*
G01*
X118350000Y-109412500D01*
G75*
G02*
X118425000Y-109337500I75000J0D01*
G01*
G37*
G36*
G01*
X118925000Y-109337500D02*
X119075000Y-109337500D01*
G75*
G02*
X119150000Y-109412500I0J-75000D01*
G01*
X119150000Y-110737500D01*
G75*
G02*
X119075000Y-110812500I-75000J0D01*
G01*
X118925000Y-110812500D01*
G75*
G02*
X118850000Y-110737500I0J75000D01*
G01*
X118850000Y-109412500D01*
G75*
G02*
X118925000Y-109337500I75000J0D01*
G01*
G37*
G36*
G01*
X119425000Y-109337500D02*
X119575000Y-109337500D01*
G75*
G02*
X119650000Y-109412500I0J-75000D01*
G01*
X119650000Y-110737500D01*
G75*
G02*
X119575000Y-110812500I-75000J0D01*
G01*
X119425000Y-110812500D01*
G75*
G02*
X119350000Y-110737500I0J75000D01*
G01*
X119350000Y-109412500D01*
G75*
G02*
X119425000Y-109337500I75000J0D01*
G01*
G37*
G36*
G01*
X119925000Y-109337500D02*
X120075000Y-109337500D01*
G75*
G02*
X120150000Y-109412500I0J-75000D01*
G01*
X120150000Y-110737500D01*
G75*
G02*
X120075000Y-110812500I-75000J0D01*
G01*
X119925000Y-110812500D01*
G75*
G02*
X119850000Y-110737500I0J75000D01*
G01*
X119850000Y-109412500D01*
G75*
G02*
X119925000Y-109337500I75000J0D01*
G01*
G37*
G36*
G01*
X120425000Y-109337500D02*
X120575000Y-109337500D01*
G75*
G02*
X120650000Y-109412500I0J-75000D01*
G01*
X120650000Y-110737500D01*
G75*
G02*
X120575000Y-110812500I-75000J0D01*
G01*
X120425000Y-110812500D01*
G75*
G02*
X120350000Y-110737500I0J75000D01*
G01*
X120350000Y-109412500D01*
G75*
G02*
X120425000Y-109337500I75000J0D01*
G01*
G37*
G36*
G01*
X120925000Y-109337500D02*
X121075000Y-109337500D01*
G75*
G02*
X121150000Y-109412500I0J-75000D01*
G01*
X121150000Y-110737500D01*
G75*
G02*
X121075000Y-110812500I-75000J0D01*
G01*
X120925000Y-110812500D01*
G75*
G02*
X120850000Y-110737500I0J75000D01*
G01*
X120850000Y-109412500D01*
G75*
G02*
X120925000Y-109337500I75000J0D01*
G01*
G37*
G36*
G01*
X121425000Y-109337500D02*
X121575000Y-109337500D01*
G75*
G02*
X121650000Y-109412500I0J-75000D01*
G01*
X121650000Y-110737500D01*
G75*
G02*
X121575000Y-110812500I-75000J0D01*
G01*
X121425000Y-110812500D01*
G75*
G02*
X121350000Y-110737500I0J75000D01*
G01*
X121350000Y-109412500D01*
G75*
G02*
X121425000Y-109337500I75000J0D01*
G01*
G37*
G36*
G01*
X121925000Y-109337500D02*
X122075000Y-109337500D01*
G75*
G02*
X122150000Y-109412500I0J-75000D01*
G01*
X122150000Y-110737500D01*
G75*
G02*
X122075000Y-110812500I-75000J0D01*
G01*
X121925000Y-110812500D01*
G75*
G02*
X121850000Y-110737500I0J75000D01*
G01*
X121850000Y-109412500D01*
G75*
G02*
X121925000Y-109337500I75000J0D01*
G01*
G37*
G36*
G01*
X122425000Y-109337500D02*
X122575000Y-109337500D01*
G75*
G02*
X122650000Y-109412500I0J-75000D01*
G01*
X122650000Y-110737500D01*
G75*
G02*
X122575000Y-110812500I-75000J0D01*
G01*
X122425000Y-110812500D01*
G75*
G02*
X122350000Y-110737500I0J75000D01*
G01*
X122350000Y-109412500D01*
G75*
G02*
X122425000Y-109337500I75000J0D01*
G01*
G37*
G36*
G01*
X122925000Y-109337500D02*
X123075000Y-109337500D01*
G75*
G02*
X123150000Y-109412500I0J-75000D01*
G01*
X123150000Y-110737500D01*
G75*
G02*
X123075000Y-110812500I-75000J0D01*
G01*
X122925000Y-110812500D01*
G75*
G02*
X122850000Y-110737500I0J75000D01*
G01*
X122850000Y-109412500D01*
G75*
G02*
X122925000Y-109337500I75000J0D01*
G01*
G37*
G36*
G01*
X123425000Y-109337500D02*
X123575000Y-109337500D01*
G75*
G02*
X123650000Y-109412500I0J-75000D01*
G01*
X123650000Y-110737500D01*
G75*
G02*
X123575000Y-110812500I-75000J0D01*
G01*
X123425000Y-110812500D01*
G75*
G02*
X123350000Y-110737500I0J75000D01*
G01*
X123350000Y-109412500D01*
G75*
G02*
X123425000Y-109337500I75000J0D01*
G01*
G37*
G36*
G01*
X123925000Y-109337500D02*
X124075000Y-109337500D01*
G75*
G02*
X124150000Y-109412500I0J-75000D01*
G01*
X124150000Y-110737500D01*
G75*
G02*
X124075000Y-110812500I-75000J0D01*
G01*
X123925000Y-110812500D01*
G75*
G02*
X123850000Y-110737500I0J75000D01*
G01*
X123850000Y-109412500D01*
G75*
G02*
X123925000Y-109337500I75000J0D01*
G01*
G37*
G36*
G01*
X124750000Y-108512500D02*
X126075000Y-108512500D01*
G75*
G02*
X126150000Y-108587500I0J-75000D01*
G01*
X126150000Y-108737500D01*
G75*
G02*
X126075000Y-108812500I-75000J0D01*
G01*
X124750000Y-108812500D01*
G75*
G02*
X124675000Y-108737500I0J75000D01*
G01*
X124675000Y-108587500D01*
G75*
G02*
X124750000Y-108512500I75000J0D01*
G01*
G37*
G36*
G01*
X124750000Y-108012500D02*
X126075000Y-108012500D01*
G75*
G02*
X126150000Y-108087500I0J-75000D01*
G01*
X126150000Y-108237500D01*
G75*
G02*
X126075000Y-108312500I-75000J0D01*
G01*
X124750000Y-108312500D01*
G75*
G02*
X124675000Y-108237500I0J75000D01*
G01*
X124675000Y-108087500D01*
G75*
G02*
X124750000Y-108012500I75000J0D01*
G01*
G37*
G36*
G01*
X124750000Y-107512500D02*
X126075000Y-107512500D01*
G75*
G02*
X126150000Y-107587500I0J-75000D01*
G01*
X126150000Y-107737500D01*
G75*
G02*
X126075000Y-107812500I-75000J0D01*
G01*
X124750000Y-107812500D01*
G75*
G02*
X124675000Y-107737500I0J75000D01*
G01*
X124675000Y-107587500D01*
G75*
G02*
X124750000Y-107512500I75000J0D01*
G01*
G37*
G36*
G01*
X124750000Y-107012500D02*
X126075000Y-107012500D01*
G75*
G02*
X126150000Y-107087500I0J-75000D01*
G01*
X126150000Y-107237500D01*
G75*
G02*
X126075000Y-107312500I-75000J0D01*
G01*
X124750000Y-107312500D01*
G75*
G02*
X124675000Y-107237500I0J75000D01*
G01*
X124675000Y-107087500D01*
G75*
G02*
X124750000Y-107012500I75000J0D01*
G01*
G37*
G36*
G01*
X124750000Y-106512500D02*
X126075000Y-106512500D01*
G75*
G02*
X126150000Y-106587500I0J-75000D01*
G01*
X126150000Y-106737500D01*
G75*
G02*
X126075000Y-106812500I-75000J0D01*
G01*
X124750000Y-106812500D01*
G75*
G02*
X124675000Y-106737500I0J75000D01*
G01*
X124675000Y-106587500D01*
G75*
G02*
X124750000Y-106512500I75000J0D01*
G01*
G37*
G36*
G01*
X124750000Y-106012500D02*
X126075000Y-106012500D01*
G75*
G02*
X126150000Y-106087500I0J-75000D01*
G01*
X126150000Y-106237500D01*
G75*
G02*
X126075000Y-106312500I-75000J0D01*
G01*
X124750000Y-106312500D01*
G75*
G02*
X124675000Y-106237500I0J75000D01*
G01*
X124675000Y-106087500D01*
G75*
G02*
X124750000Y-106012500I75000J0D01*
G01*
G37*
G36*
G01*
X124750000Y-105512500D02*
X126075000Y-105512500D01*
G75*
G02*
X126150000Y-105587500I0J-75000D01*
G01*
X126150000Y-105737500D01*
G75*
G02*
X126075000Y-105812500I-75000J0D01*
G01*
X124750000Y-105812500D01*
G75*
G02*
X124675000Y-105737500I0J75000D01*
G01*
X124675000Y-105587500D01*
G75*
G02*
X124750000Y-105512500I75000J0D01*
G01*
G37*
G36*
G01*
X124750000Y-105012500D02*
X126075000Y-105012500D01*
G75*
G02*
X126150000Y-105087500I0J-75000D01*
G01*
X126150000Y-105237500D01*
G75*
G02*
X126075000Y-105312500I-75000J0D01*
G01*
X124750000Y-105312500D01*
G75*
G02*
X124675000Y-105237500I0J75000D01*
G01*
X124675000Y-105087500D01*
G75*
G02*
X124750000Y-105012500I75000J0D01*
G01*
G37*
G36*
G01*
X124750000Y-104512500D02*
X126075000Y-104512500D01*
G75*
G02*
X126150000Y-104587500I0J-75000D01*
G01*
X126150000Y-104737500D01*
G75*
G02*
X126075000Y-104812500I-75000J0D01*
G01*
X124750000Y-104812500D01*
G75*
G02*
X124675000Y-104737500I0J75000D01*
G01*
X124675000Y-104587500D01*
G75*
G02*
X124750000Y-104512500I75000J0D01*
G01*
G37*
G36*
G01*
X124750000Y-104012500D02*
X126075000Y-104012500D01*
G75*
G02*
X126150000Y-104087500I0J-75000D01*
G01*
X126150000Y-104237500D01*
G75*
G02*
X126075000Y-104312500I-75000J0D01*
G01*
X124750000Y-104312500D01*
G75*
G02*
X124675000Y-104237500I0J75000D01*
G01*
X124675000Y-104087500D01*
G75*
G02*
X124750000Y-104012500I75000J0D01*
G01*
G37*
G36*
G01*
X124750000Y-103512500D02*
X126075000Y-103512500D01*
G75*
G02*
X126150000Y-103587500I0J-75000D01*
G01*
X126150000Y-103737500D01*
G75*
G02*
X126075000Y-103812500I-75000J0D01*
G01*
X124750000Y-103812500D01*
G75*
G02*
X124675000Y-103737500I0J75000D01*
G01*
X124675000Y-103587500D01*
G75*
G02*
X124750000Y-103512500I75000J0D01*
G01*
G37*
G36*
G01*
X124750000Y-103012500D02*
X126075000Y-103012500D01*
G75*
G02*
X126150000Y-103087500I0J-75000D01*
G01*
X126150000Y-103237500D01*
G75*
G02*
X126075000Y-103312500I-75000J0D01*
G01*
X124750000Y-103312500D01*
G75*
G02*
X124675000Y-103237500I0J75000D01*
G01*
X124675000Y-103087500D01*
G75*
G02*
X124750000Y-103012500I75000J0D01*
G01*
G37*
G36*
G01*
X117110000Y-109642500D02*
X117110000Y-109982500D01*
G75*
G02*
X116970000Y-110122500I-140000J0D01*
G01*
X116690000Y-110122500D01*
G75*
G02*
X116550000Y-109982500I0J140000D01*
G01*
X116550000Y-109642500D01*
G75*
G02*
X116690000Y-109502500I140000J0D01*
G01*
X116970000Y-109502500D01*
G75*
G02*
X117110000Y-109642500I0J-140000D01*
G01*
G37*
G36*
G01*
X116150000Y-109642500D02*
X116150000Y-109982500D01*
G75*
G02*
X116010000Y-110122500I-140000J0D01*
G01*
X115730000Y-110122500D01*
G75*
G02*
X115590000Y-109982500I0J140000D01*
G01*
X115590000Y-109642500D01*
G75*
G02*
X115730000Y-109502500I140000J0D01*
G01*
X116010000Y-109502500D01*
G75*
G02*
X116150000Y-109642500I0J-140000D01*
G01*
G37*
G36*
G01*
X131562500Y-128756250D02*
X131562500Y-128243750D01*
G75*
G02*
X131781250Y-128025000I218750J0D01*
G01*
X132218750Y-128025000D01*
G75*
G02*
X132437500Y-128243750I0J-218750D01*
G01*
X132437500Y-128756250D01*
G75*
G02*
X132218750Y-128975000I-218750J0D01*
G01*
X131781250Y-128975000D01*
G75*
G02*
X131562500Y-128756250I0J218750D01*
G01*
G37*
G36*
G01*
X133137500Y-128756250D02*
X133137500Y-128243750D01*
G75*
G02*
X133356250Y-128025000I218750J0D01*
G01*
X133793750Y-128025000D01*
G75*
G02*
X134012500Y-128243750I0J-218750D01*
G01*
X134012500Y-128756250D01*
G75*
G02*
X133793750Y-128975000I-218750J0D01*
G01*
X133356250Y-128975000D01*
G75*
G02*
X133137500Y-128756250I0J218750D01*
G01*
G37*
G36*
G01*
X108185000Y-145780000D02*
X107815000Y-145780000D01*
G75*
G02*
X107680000Y-145645000I0J135000D01*
G01*
X107680000Y-145375000D01*
G75*
G02*
X107815000Y-145240000I135000J0D01*
G01*
X108185000Y-145240000D01*
G75*
G02*
X108320000Y-145375000I0J-135000D01*
G01*
X108320000Y-145645000D01*
G75*
G02*
X108185000Y-145780000I-135000J0D01*
G01*
G37*
G36*
G01*
X108185000Y-144760000D02*
X107815000Y-144760000D01*
G75*
G02*
X107680000Y-144625000I0J135000D01*
G01*
X107680000Y-144355000D01*
G75*
G02*
X107815000Y-144220000I135000J0D01*
G01*
X108185000Y-144220000D01*
G75*
G02*
X108320000Y-144355000I0J-135000D01*
G01*
X108320000Y-144625000D01*
G75*
G02*
X108185000Y-144760000I-135000J0D01*
G01*
G37*
G36*
G01*
X130605000Y-128270000D02*
X130605000Y-128640000D01*
G75*
G02*
X130470000Y-128775000I-135000J0D01*
G01*
X130200000Y-128775000D01*
G75*
G02*
X130065000Y-128640000I0J135000D01*
G01*
X130065000Y-128270000D01*
G75*
G02*
X130200000Y-128135000I135000J0D01*
G01*
X130470000Y-128135000D01*
G75*
G02*
X130605000Y-128270000I0J-135000D01*
G01*
G37*
G36*
G01*
X129585000Y-128270000D02*
X129585000Y-128640000D01*
G75*
G02*
X129450000Y-128775000I-135000J0D01*
G01*
X129180000Y-128775000D01*
G75*
G02*
X129045000Y-128640000I0J135000D01*
G01*
X129045000Y-128270000D01*
G75*
G02*
X129180000Y-128135000I135000J0D01*
G01*
X129450000Y-128135000D01*
G75*
G02*
X129585000Y-128270000I0J-135000D01*
G01*
G37*
G36*
G01*
X123025000Y-144375000D02*
X123025000Y-145625000D01*
G75*
G02*
X122775000Y-145875000I-250000J0D01*
G01*
X122150000Y-145875000D01*
G75*
G02*
X121900000Y-145625000I0J250000D01*
G01*
X121900000Y-144375000D01*
G75*
G02*
X122150000Y-144125000I250000J0D01*
G01*
X122775000Y-144125000D01*
G75*
G02*
X123025000Y-144375000I0J-250000D01*
G01*
G37*
G36*
G01*
X120100000Y-144375000D02*
X120100000Y-145625000D01*
G75*
G02*
X119850000Y-145875000I-250000J0D01*
G01*
X119225000Y-145875000D01*
G75*
G02*
X118975000Y-145625000I0J250000D01*
G01*
X118975000Y-144375000D01*
G75*
G02*
X119225000Y-144125000I250000J0D01*
G01*
X119850000Y-144125000D01*
G75*
G02*
X120100000Y-144375000I0J-250000D01*
G01*
G37*
G36*
G01*
X119935000Y-51530000D02*
X119565000Y-51530000D01*
G75*
G02*
X119430000Y-51395000I0J135000D01*
G01*
X119430000Y-51125000D01*
G75*
G02*
X119565000Y-50990000I135000J0D01*
G01*
X119935000Y-50990000D01*
G75*
G02*
X120070000Y-51125000I0J-135000D01*
G01*
X120070000Y-51395000D01*
G75*
G02*
X119935000Y-51530000I-135000J0D01*
G01*
G37*
G36*
G01*
X119935000Y-50510000D02*
X119565000Y-50510000D01*
G75*
G02*
X119430000Y-50375000I0J135000D01*
G01*
X119430000Y-50105000D01*
G75*
G02*
X119565000Y-49970000I135000J0D01*
G01*
X119935000Y-49970000D01*
G75*
G02*
X120070000Y-50105000I0J-135000D01*
G01*
X120070000Y-50375000D01*
G75*
G02*
X119935000Y-50510000I-135000J0D01*
G01*
G37*
G36*
G01*
X117025000Y-144375000D02*
X117025000Y-145625000D01*
G75*
G02*
X116775000Y-145875000I-250000J0D01*
G01*
X116150000Y-145875000D01*
G75*
G02*
X115900000Y-145625000I0J250000D01*
G01*
X115900000Y-144375000D01*
G75*
G02*
X116150000Y-144125000I250000J0D01*
G01*
X116775000Y-144125000D01*
G75*
G02*
X117025000Y-144375000I0J-250000D01*
G01*
G37*
G36*
G01*
X114100000Y-144375000D02*
X114100000Y-145625000D01*
G75*
G02*
X113850000Y-145875000I-250000J0D01*
G01*
X113225000Y-145875000D01*
G75*
G02*
X112975000Y-145625000I0J250000D01*
G01*
X112975000Y-144375000D01*
G75*
G02*
X113225000Y-144125000I250000J0D01*
G01*
X113850000Y-144125000D01*
G75*
G02*
X114100000Y-144375000I0J-250000D01*
G01*
G37*
G36*
G01*
X108185000Y-100780000D02*
X107815000Y-100780000D01*
G75*
G02*
X107680000Y-100645000I0J135000D01*
G01*
X107680000Y-100375000D01*
G75*
G02*
X107815000Y-100240000I135000J0D01*
G01*
X108185000Y-100240000D01*
G75*
G02*
X108320000Y-100375000I0J-135000D01*
G01*
X108320000Y-100645000D01*
G75*
G02*
X108185000Y-100780000I-135000J0D01*
G01*
G37*
G36*
G01*
X108185000Y-99760000D02*
X107815000Y-99760000D01*
G75*
G02*
X107680000Y-99625000I0J135000D01*
G01*
X107680000Y-99355000D01*
G75*
G02*
X107815000Y-99220000I135000J0D01*
G01*
X108185000Y-99220000D01*
G75*
G02*
X108320000Y-99355000I0J-135000D01*
G01*
X108320000Y-99625000D01*
G75*
G02*
X108185000Y-99760000I-135000J0D01*
G01*
G37*
G36*
G01*
X131562500Y-126256250D02*
X131562500Y-125743750D01*
G75*
G02*
X131781250Y-125525000I218750J0D01*
G01*
X132218750Y-125525000D01*
G75*
G02*
X132437500Y-125743750I0J-218750D01*
G01*
X132437500Y-126256250D01*
G75*
G02*
X132218750Y-126475000I-218750J0D01*
G01*
X131781250Y-126475000D01*
G75*
G02*
X131562500Y-126256250I0J218750D01*
G01*
G37*
G36*
G01*
X133137500Y-126256250D02*
X133137500Y-125743750D01*
G75*
G02*
X133356250Y-125525000I218750J0D01*
G01*
X133793750Y-125525000D01*
G75*
G02*
X134012500Y-125743750I0J-218750D01*
G01*
X134012500Y-126256250D01*
G75*
G02*
X133793750Y-126475000I-218750J0D01*
G01*
X133356250Y-126475000D01*
G75*
G02*
X133137500Y-126256250I0J218750D01*
G01*
G37*
G36*
G01*
X122540000Y-99727500D02*
X122540000Y-100097500D01*
G75*
G02*
X122405000Y-100232500I-135000J0D01*
G01*
X122135000Y-100232500D01*
G75*
G02*
X122000000Y-100097500I0J135000D01*
G01*
X122000000Y-99727500D01*
G75*
G02*
X122135000Y-99592500I135000J0D01*
G01*
X122405000Y-99592500D01*
G75*
G02*
X122540000Y-99727500I0J-135000D01*
G01*
G37*
G36*
G01*
X121520000Y-99727500D02*
X121520000Y-100097500D01*
G75*
G02*
X121385000Y-100232500I-135000J0D01*
G01*
X121115000Y-100232500D01*
G75*
G02*
X120980000Y-100097500I0J135000D01*
G01*
X120980000Y-99727500D01*
G75*
G02*
X121115000Y-99592500I135000J0D01*
G01*
X121385000Y-99592500D01*
G75*
G02*
X121520000Y-99727500I0J-135000D01*
G01*
G37*
G36*
G01*
X130605000Y-125770000D02*
X130605000Y-126140000D01*
G75*
G02*
X130470000Y-126275000I-135000J0D01*
G01*
X130200000Y-126275000D01*
G75*
G02*
X130065000Y-126140000I0J135000D01*
G01*
X130065000Y-125770000D01*
G75*
G02*
X130200000Y-125635000I135000J0D01*
G01*
X130470000Y-125635000D01*
G75*
G02*
X130605000Y-125770000I0J-135000D01*
G01*
G37*
G36*
G01*
X129585000Y-125770000D02*
X129585000Y-126140000D01*
G75*
G02*
X129450000Y-126275000I-135000J0D01*
G01*
X129180000Y-126275000D01*
G75*
G02*
X129045000Y-126140000I0J135000D01*
G01*
X129045000Y-125770000D01*
G75*
G02*
X129180000Y-125635000I135000J0D01*
G01*
X129450000Y-125635000D01*
G75*
G02*
X129585000Y-125770000I0J-135000D01*
G01*
G37*
G36*
G01*
X129420000Y-95272500D02*
X129080000Y-95272500D01*
G75*
G02*
X128940000Y-95132500I0J140000D01*
G01*
X128940000Y-94852500D01*
G75*
G02*
X129080000Y-94712500I140000J0D01*
G01*
X129420000Y-94712500D01*
G75*
G02*
X129560000Y-94852500I0J-140000D01*
G01*
X129560000Y-95132500D01*
G75*
G02*
X129420000Y-95272500I-140000J0D01*
G01*
G37*
G36*
G01*
X129420000Y-94312500D02*
X129080000Y-94312500D01*
G75*
G02*
X128940000Y-94172500I0J140000D01*
G01*
X128940000Y-93892500D01*
G75*
G02*
X129080000Y-93752500I140000J0D01*
G01*
X129420000Y-93752500D01*
G75*
G02*
X129560000Y-93892500I0J-140000D01*
G01*
X129560000Y-94172500D01*
G75*
G02*
X129420000Y-94312500I-140000J0D01*
G01*
G37*
G36*
G01*
X131562500Y-118756250D02*
X131562500Y-118243750D01*
G75*
G02*
X131781250Y-118025000I218750J0D01*
G01*
X132218750Y-118025000D01*
G75*
G02*
X132437500Y-118243750I0J-218750D01*
G01*
X132437500Y-118756250D01*
G75*
G02*
X132218750Y-118975000I-218750J0D01*
G01*
X131781250Y-118975000D01*
G75*
G02*
X131562500Y-118756250I0J218750D01*
G01*
G37*
G36*
G01*
X133137500Y-118756250D02*
X133137500Y-118243750D01*
G75*
G02*
X133356250Y-118025000I218750J0D01*
G01*
X133793750Y-118025000D01*
G75*
G02*
X134012500Y-118243750I0J-218750D01*
G01*
X134012500Y-118756250D01*
G75*
G02*
X133793750Y-118975000I-218750J0D01*
G01*
X133356250Y-118975000D01*
G75*
G02*
X133137500Y-118756250I0J218750D01*
G01*
G37*
G36*
G01*
X128920000Y-84490000D02*
X128580000Y-84490000D01*
G75*
G02*
X128440000Y-84350000I0J140000D01*
G01*
X128440000Y-84070000D01*
G75*
G02*
X128580000Y-83930000I140000J0D01*
G01*
X128920000Y-83930000D01*
G75*
G02*
X129060000Y-84070000I0J-140000D01*
G01*
X129060000Y-84350000D01*
G75*
G02*
X128920000Y-84490000I-140000J0D01*
G01*
G37*
G36*
G01*
X128920000Y-83530000D02*
X128580000Y-83530000D01*
G75*
G02*
X128440000Y-83390000I0J140000D01*
G01*
X128440000Y-83110000D01*
G75*
G02*
X128580000Y-82970000I140000J0D01*
G01*
X128920000Y-82970000D01*
G75*
G02*
X129060000Y-83110000I0J-140000D01*
G01*
X129060000Y-83390000D01*
G75*
G02*
X128920000Y-83530000I-140000J0D01*
G01*
G37*
G36*
G01*
X108185000Y-70780000D02*
X107815000Y-70780000D01*
G75*
G02*
X107680000Y-70645000I0J135000D01*
G01*
X107680000Y-70375000D01*
G75*
G02*
X107815000Y-70240000I135000J0D01*
G01*
X108185000Y-70240000D01*
G75*
G02*
X108320000Y-70375000I0J-135000D01*
G01*
X108320000Y-70645000D01*
G75*
G02*
X108185000Y-70780000I-135000J0D01*
G01*
G37*
G36*
G01*
X108185000Y-69760000D02*
X107815000Y-69760000D01*
G75*
G02*
X107680000Y-69625000I0J135000D01*
G01*
X107680000Y-69355000D01*
G75*
G02*
X107815000Y-69220000I135000J0D01*
G01*
X108185000Y-69220000D01*
G75*
G02*
X108320000Y-69355000I0J-135000D01*
G01*
X108320000Y-69625000D01*
G75*
G02*
X108185000Y-69760000I-135000J0D01*
G01*
G37*
G36*
G01*
X115280000Y-102315000D02*
X115280000Y-102685000D01*
G75*
G02*
X115145000Y-102820000I-135000J0D01*
G01*
X114875000Y-102820000D01*
G75*
G02*
X114740000Y-102685000I0J135000D01*
G01*
X114740000Y-102315000D01*
G75*
G02*
X114875000Y-102180000I135000J0D01*
G01*
X115145000Y-102180000D01*
G75*
G02*
X115280000Y-102315000I0J-135000D01*
G01*
G37*
G36*
G01*
X114260000Y-102315000D02*
X114260000Y-102685000D01*
G75*
G02*
X114125000Y-102820000I-135000J0D01*
G01*
X113855000Y-102820000D01*
G75*
G02*
X113720000Y-102685000I0J135000D01*
G01*
X113720000Y-102315000D01*
G75*
G02*
X113855000Y-102180000I135000J0D01*
G01*
X114125000Y-102180000D01*
G75*
G02*
X114260000Y-102315000I0J-135000D01*
G01*
G37*
G36*
G01*
X114420000Y-95172500D02*
X114080000Y-95172500D01*
G75*
G02*
X113940000Y-95032500I0J140000D01*
G01*
X113940000Y-94752500D01*
G75*
G02*
X114080000Y-94612500I140000J0D01*
G01*
X114420000Y-94612500D01*
G75*
G02*
X114560000Y-94752500I0J-140000D01*
G01*
X114560000Y-95032500D01*
G75*
G02*
X114420000Y-95172500I-140000J0D01*
G01*
G37*
G36*
G01*
X114420000Y-94212500D02*
X114080000Y-94212500D01*
G75*
G02*
X113940000Y-94072500I0J140000D01*
G01*
X113940000Y-93792500D01*
G75*
G02*
X114080000Y-93652500I140000J0D01*
G01*
X114420000Y-93652500D01*
G75*
G02*
X114560000Y-93792500I0J-140000D01*
G01*
X114560000Y-94072500D01*
G75*
G02*
X114420000Y-94212500I-140000J0D01*
G01*
G37*
G36*
G01*
X119510000Y-71670000D02*
X119510000Y-71330000D01*
G75*
G02*
X119650000Y-71190000I140000J0D01*
G01*
X119930000Y-71190000D01*
G75*
G02*
X120070000Y-71330000I0J-140000D01*
G01*
X120070000Y-71670000D01*
G75*
G02*
X119930000Y-71810000I-140000J0D01*
G01*
X119650000Y-71810000D01*
G75*
G02*
X119510000Y-71670000I0J140000D01*
G01*
G37*
G36*
G01*
X120470000Y-71670000D02*
X120470000Y-71330000D01*
G75*
G02*
X120610000Y-71190000I140000J0D01*
G01*
X120890000Y-71190000D01*
G75*
G02*
X121030000Y-71330000I0J-140000D01*
G01*
X121030000Y-71670000D01*
G75*
G02*
X120890000Y-71810000I-140000J0D01*
G01*
X120610000Y-71810000D01*
G75*
G02*
X120470000Y-71670000I0J140000D01*
G01*
G37*
G36*
G01*
X136450000Y-142950000D02*
X135300000Y-142950000D01*
G75*
G02*
X135200000Y-142850000I0J100000D01*
G01*
X135200000Y-142650000D01*
G75*
G02*
X135300000Y-142550000I100000J0D01*
G01*
X136450000Y-142550000D01*
G75*
G02*
X136550000Y-142650000I0J-100000D01*
G01*
X136550000Y-142850000D01*
G75*
G02*
X136450000Y-142950000I-100000J0D01*
G01*
G37*
G36*
G01*
X136450000Y-142300000D02*
X135300000Y-142300000D01*
G75*
G02*
X135200000Y-142200000I0J100000D01*
G01*
X135200000Y-142000000D01*
G75*
G02*
X135300000Y-141900000I100000J0D01*
G01*
X136450000Y-141900000D01*
G75*
G02*
X136550000Y-142000000I0J-100000D01*
G01*
X136550000Y-142200000D01*
G75*
G02*
X136450000Y-142300000I-100000J0D01*
G01*
G37*
G36*
G01*
X136450000Y-141650000D02*
X135300000Y-141650000D01*
G75*
G02*
X135200000Y-141550000I0J100000D01*
G01*
X135200000Y-141350000D01*
G75*
G02*
X135300000Y-141250000I100000J0D01*
G01*
X136450000Y-141250000D01*
G75*
G02*
X136550000Y-141350000I0J-100000D01*
G01*
X136550000Y-141550000D01*
G75*
G02*
X136450000Y-141650000I-100000J0D01*
G01*
G37*
G36*
G01*
X136450000Y-141000000D02*
X135300000Y-141000000D01*
G75*
G02*
X135200000Y-140900000I0J100000D01*
G01*
X135200000Y-140700000D01*
G75*
G02*
X135300000Y-140600000I100000J0D01*
G01*
X136450000Y-140600000D01*
G75*
G02*
X136550000Y-140700000I0J-100000D01*
G01*
X136550000Y-140900000D01*
G75*
G02*
X136450000Y-141000000I-100000J0D01*
G01*
G37*
G36*
G01*
X136450000Y-140350000D02*
X135300000Y-140350000D01*
G75*
G02*
X135200000Y-140250000I0J100000D01*
G01*
X135200000Y-140050000D01*
G75*
G02*
X135300000Y-139950000I100000J0D01*
G01*
X136450000Y-139950000D01*
G75*
G02*
X136550000Y-140050000I0J-100000D01*
G01*
X136550000Y-140250000D01*
G75*
G02*
X136450000Y-140350000I-100000J0D01*
G01*
G37*
D12*
X138550000Y-144750000D03*
G36*
G01*
X136550000Y-145450000D02*
X135650000Y-145450000D01*
G75*
G02*
X135400000Y-145200000I0J250000D01*
G01*
X135400000Y-144100000D01*
G75*
G02*
X135650000Y-143850000I250000J0D01*
G01*
X136550000Y-143850000D01*
G75*
G02*
X136800000Y-144100000I0J-250000D01*
G01*
X136800000Y-145200000D01*
G75*
G02*
X136550000Y-145450000I-250000J0D01*
G01*
G37*
G36*
G01*
X139250000Y-143600000D02*
X137850000Y-143600000D01*
G75*
G02*
X137600000Y-143350000I0J250000D01*
G01*
X137600000Y-141950000D01*
G75*
G02*
X137850000Y-141700000I250000J0D01*
G01*
X139250000Y-141700000D01*
G75*
G02*
X139500000Y-141950000I0J-250000D01*
G01*
X139500000Y-143350000D01*
G75*
G02*
X139250000Y-143600000I-250000J0D01*
G01*
G37*
G36*
G01*
X139250000Y-141200000D02*
X137850000Y-141200000D01*
G75*
G02*
X137600000Y-140950000I0J250000D01*
G01*
X137600000Y-139550000D01*
G75*
G02*
X137850000Y-139300000I250000J0D01*
G01*
X139250000Y-139300000D01*
G75*
G02*
X139500000Y-139550000I0J-250000D01*
G01*
X139500000Y-140950000D01*
G75*
G02*
X139250000Y-141200000I-250000J0D01*
G01*
G37*
G36*
G01*
X136550000Y-139050000D02*
X135650000Y-139050000D01*
G75*
G02*
X135400000Y-138800000I0J250000D01*
G01*
X135400000Y-137700000D01*
G75*
G02*
X135650000Y-137450000I250000J0D01*
G01*
X136550000Y-137450000D01*
G75*
G02*
X136800000Y-137700000I0J-250000D01*
G01*
X136800000Y-138800000D01*
G75*
G02*
X136550000Y-139050000I-250000J0D01*
G01*
G37*
X138550000Y-138150000D03*
G36*
G01*
X116185000Y-133780000D02*
X115815000Y-133780000D01*
G75*
G02*
X115680000Y-133645000I0J135000D01*
G01*
X115680000Y-133375000D01*
G75*
G02*
X115815000Y-133240000I135000J0D01*
G01*
X116185000Y-133240000D01*
G75*
G02*
X116320000Y-133375000I0J-135000D01*
G01*
X116320000Y-133645000D01*
G75*
G02*
X116185000Y-133780000I-135000J0D01*
G01*
G37*
G36*
G01*
X116185000Y-132760000D02*
X115815000Y-132760000D01*
G75*
G02*
X115680000Y-132625000I0J135000D01*
G01*
X115680000Y-132355000D01*
G75*
G02*
X115815000Y-132220000I135000J0D01*
G01*
X116185000Y-132220000D01*
G75*
G02*
X116320000Y-132355000I0J-135000D01*
G01*
X116320000Y-132625000D01*
G75*
G02*
X116185000Y-132760000I-135000J0D01*
G01*
G37*
G36*
G01*
X135400000Y-60925000D02*
X135400000Y-61675000D01*
G75*
G02*
X135025000Y-62050000I-375000J0D01*
G01*
X133775000Y-62050000D01*
G75*
G02*
X133400000Y-61675000I0J375000D01*
G01*
X133400000Y-60925000D01*
G75*
G02*
X133775000Y-60550000I375000J0D01*
G01*
X135025000Y-60550000D01*
G75*
G02*
X135400000Y-60925000I0J-375000D01*
G01*
G37*
G36*
G01*
X135400000Y-58625000D02*
X135400000Y-59375000D01*
G75*
G02*
X135025000Y-59750000I-375000J0D01*
G01*
X133775000Y-59750000D01*
G75*
G02*
X133400000Y-59375000I0J375000D01*
G01*
X133400000Y-58625000D01*
G75*
G02*
X133775000Y-58250000I375000J0D01*
G01*
X135025000Y-58250000D01*
G75*
G02*
X135400000Y-58625000I0J-375000D01*
G01*
G37*
G36*
G01*
X129100000Y-57600000D02*
X129100000Y-60400000D01*
G75*
G02*
X128600000Y-60900000I-500000J0D01*
G01*
X127600000Y-60900000D01*
G75*
G02*
X127100000Y-60400000I0J500000D01*
G01*
X127100000Y-57600000D01*
G75*
G02*
X127600000Y-57100000I500000J0D01*
G01*
X128600000Y-57100000D01*
G75*
G02*
X129100000Y-57600000I0J-500000D01*
G01*
G37*
G36*
G01*
X135400000Y-56325000D02*
X135400000Y-57075000D01*
G75*
G02*
X135025000Y-57450000I-375000J0D01*
G01*
X133775000Y-57450000D01*
G75*
G02*
X133400000Y-57075000I0J375000D01*
G01*
X133400000Y-56325000D01*
G75*
G02*
X133775000Y-55950000I375000J0D01*
G01*
X135025000Y-55950000D01*
G75*
G02*
X135400000Y-56325000I0J-375000D01*
G01*
G37*
G36*
G01*
X108185000Y-85780000D02*
X107815000Y-85780000D01*
G75*
G02*
X107680000Y-85645000I0J135000D01*
G01*
X107680000Y-85375000D01*
G75*
G02*
X107815000Y-85240000I135000J0D01*
G01*
X108185000Y-85240000D01*
G75*
G02*
X108320000Y-85375000I0J-135000D01*
G01*
X108320000Y-85645000D01*
G75*
G02*
X108185000Y-85780000I-135000J0D01*
G01*
G37*
G36*
G01*
X108185000Y-84760000D02*
X107815000Y-84760000D01*
G75*
G02*
X107680000Y-84625000I0J135000D01*
G01*
X107680000Y-84355000D01*
G75*
G02*
X107815000Y-84220000I135000J0D01*
G01*
X108185000Y-84220000D01*
G75*
G02*
X108320000Y-84355000I0J-135000D01*
G01*
X108320000Y-84625000D01*
G75*
G02*
X108185000Y-84760000I-135000J0D01*
G01*
G37*
G36*
G01*
X97550000Y-143245000D02*
X97550000Y-142945000D01*
G75*
G02*
X97700000Y-142795000I150000J0D01*
G01*
X99350000Y-142795000D01*
G75*
G02*
X99500000Y-142945000I0J-150000D01*
G01*
X99500000Y-143245000D01*
G75*
G02*
X99350000Y-143395000I-150000J0D01*
G01*
X97700000Y-143395000D01*
G75*
G02*
X97550000Y-143245000I0J150000D01*
G01*
G37*
G36*
G01*
X97550000Y-144515000D02*
X97550000Y-144215000D01*
G75*
G02*
X97700000Y-144065000I150000J0D01*
G01*
X99350000Y-144065000D01*
G75*
G02*
X99500000Y-144215000I0J-150000D01*
G01*
X99500000Y-144515000D01*
G75*
G02*
X99350000Y-144665000I-150000J0D01*
G01*
X97700000Y-144665000D01*
G75*
G02*
X97550000Y-144515000I0J150000D01*
G01*
G37*
G36*
G01*
X97550000Y-145785000D02*
X97550000Y-145485000D01*
G75*
G02*
X97700000Y-145335000I150000J0D01*
G01*
X99350000Y-145335000D01*
G75*
G02*
X99500000Y-145485000I0J-150000D01*
G01*
X99500000Y-145785000D01*
G75*
G02*
X99350000Y-145935000I-150000J0D01*
G01*
X97700000Y-145935000D01*
G75*
G02*
X97550000Y-145785000I0J150000D01*
G01*
G37*
G36*
G01*
X97550000Y-147055000D02*
X97550000Y-146755000D01*
G75*
G02*
X97700000Y-146605000I150000J0D01*
G01*
X99350000Y-146605000D01*
G75*
G02*
X99500000Y-146755000I0J-150000D01*
G01*
X99500000Y-147055000D01*
G75*
G02*
X99350000Y-147205000I-150000J0D01*
G01*
X97700000Y-147205000D01*
G75*
G02*
X97550000Y-147055000I0J150000D01*
G01*
G37*
G36*
G01*
X102500000Y-147055000D02*
X102500000Y-146755000D01*
G75*
G02*
X102650000Y-146605000I150000J0D01*
G01*
X104300000Y-146605000D01*
G75*
G02*
X104450000Y-146755000I0J-150000D01*
G01*
X104450000Y-147055000D01*
G75*
G02*
X104300000Y-147205000I-150000J0D01*
G01*
X102650000Y-147205000D01*
G75*
G02*
X102500000Y-147055000I0J150000D01*
G01*
G37*
G36*
G01*
X102500000Y-145785000D02*
X102500000Y-145485000D01*
G75*
G02*
X102650000Y-145335000I150000J0D01*
G01*
X104300000Y-145335000D01*
G75*
G02*
X104450000Y-145485000I0J-150000D01*
G01*
X104450000Y-145785000D01*
G75*
G02*
X104300000Y-145935000I-150000J0D01*
G01*
X102650000Y-145935000D01*
G75*
G02*
X102500000Y-145785000I0J150000D01*
G01*
G37*
G36*
G01*
X102500000Y-144515000D02*
X102500000Y-144215000D01*
G75*
G02*
X102650000Y-144065000I150000J0D01*
G01*
X104300000Y-144065000D01*
G75*
G02*
X104450000Y-144215000I0J-150000D01*
G01*
X104450000Y-144515000D01*
G75*
G02*
X104300000Y-144665000I-150000J0D01*
G01*
X102650000Y-144665000D01*
G75*
G02*
X102500000Y-144515000I0J150000D01*
G01*
G37*
G36*
G01*
X102500000Y-143245000D02*
X102500000Y-142945000D01*
G75*
G02*
X102650000Y-142795000I150000J0D01*
G01*
X104300000Y-142795000D01*
G75*
G02*
X104450000Y-142945000I0J-150000D01*
G01*
X104450000Y-143245000D01*
G75*
G02*
X104300000Y-143395000I-150000J0D01*
G01*
X102650000Y-143395000D01*
G75*
G02*
X102500000Y-143245000I0J150000D01*
G01*
G37*
G36*
G01*
X135525000Y-149250000D02*
X135525000Y-148750000D01*
G75*
G02*
X135750000Y-148525000I225000J0D01*
G01*
X136200000Y-148525000D01*
G75*
G02*
X136425000Y-148750000I0J-225000D01*
G01*
X136425000Y-149250000D01*
G75*
G02*
X136200000Y-149475000I-225000J0D01*
G01*
X135750000Y-149475000D01*
G75*
G02*
X135525000Y-149250000I0J225000D01*
G01*
G37*
G36*
G01*
X137075000Y-149250000D02*
X137075000Y-148750000D01*
G75*
G02*
X137300000Y-148525000I225000J0D01*
G01*
X137750000Y-148525000D01*
G75*
G02*
X137975000Y-148750000I0J-225000D01*
G01*
X137975000Y-149250000D01*
G75*
G02*
X137750000Y-149475000I-225000J0D01*
G01*
X137300000Y-149475000D01*
G75*
G02*
X137075000Y-149250000I0J225000D01*
G01*
G37*
G36*
G01*
X130605000Y-118270000D02*
X130605000Y-118640000D01*
G75*
G02*
X130470000Y-118775000I-135000J0D01*
G01*
X130200000Y-118775000D01*
G75*
G02*
X130065000Y-118640000I0J135000D01*
G01*
X130065000Y-118270000D01*
G75*
G02*
X130200000Y-118135000I135000J0D01*
G01*
X130470000Y-118135000D01*
G75*
G02*
X130605000Y-118270000I0J-135000D01*
G01*
G37*
G36*
G01*
X129585000Y-118270000D02*
X129585000Y-118640000D01*
G75*
G02*
X129450000Y-118775000I-135000J0D01*
G01*
X129180000Y-118775000D01*
G75*
G02*
X129045000Y-118640000I0J135000D01*
G01*
X129045000Y-118270000D01*
G75*
G02*
X129180000Y-118135000I135000J0D01*
G01*
X129450000Y-118135000D01*
G75*
G02*
X129585000Y-118270000I0J-135000D01*
G01*
G37*
G36*
G01*
X105330000Y-55490000D02*
X105670000Y-55490000D01*
G75*
G02*
X105810000Y-55630000I0J-140000D01*
G01*
X105810000Y-55910000D01*
G75*
G02*
X105670000Y-56050000I-140000J0D01*
G01*
X105330000Y-56050000D01*
G75*
G02*
X105190000Y-55910000I0J140000D01*
G01*
X105190000Y-55630000D01*
G75*
G02*
X105330000Y-55490000I140000J0D01*
G01*
G37*
G36*
G01*
X105330000Y-56450000D02*
X105670000Y-56450000D01*
G75*
G02*
X105810000Y-56590000I0J-140000D01*
G01*
X105810000Y-56870000D01*
G75*
G02*
X105670000Y-57010000I-140000J0D01*
G01*
X105330000Y-57010000D01*
G75*
G02*
X105190000Y-56870000I0J140000D01*
G01*
X105190000Y-56590000D01*
G75*
G02*
X105330000Y-56450000I140000J0D01*
G01*
G37*
G36*
G01*
X105065000Y-43220000D02*
X105435000Y-43220000D01*
G75*
G02*
X105570000Y-43355000I0J-135000D01*
G01*
X105570000Y-43625000D01*
G75*
G02*
X105435000Y-43760000I-135000J0D01*
G01*
X105065000Y-43760000D01*
G75*
G02*
X104930000Y-43625000I0J135000D01*
G01*
X104930000Y-43355000D01*
G75*
G02*
X105065000Y-43220000I135000J0D01*
G01*
G37*
G36*
G01*
X105065000Y-44240000D02*
X105435000Y-44240000D01*
G75*
G02*
X105570000Y-44375000I0J-135000D01*
G01*
X105570000Y-44645000D01*
G75*
G02*
X105435000Y-44780000I-135000J0D01*
G01*
X105065000Y-44780000D01*
G75*
G02*
X104930000Y-44645000I0J135000D01*
G01*
X104930000Y-44375000D01*
G75*
G02*
X105065000Y-44240000I135000J0D01*
G01*
G37*
D13*
X117500000Y-93912500D03*
X126000000Y-93912500D03*
G36*
G01*
X97550000Y-128245000D02*
X97550000Y-127945000D01*
G75*
G02*
X97700000Y-127795000I150000J0D01*
G01*
X99350000Y-127795000D01*
G75*
G02*
X99500000Y-127945000I0J-150000D01*
G01*
X99500000Y-128245000D01*
G75*
G02*
X99350000Y-128395000I-150000J0D01*
G01*
X97700000Y-128395000D01*
G75*
G02*
X97550000Y-128245000I0J150000D01*
G01*
G37*
G36*
G01*
X97550000Y-129515000D02*
X97550000Y-129215000D01*
G75*
G02*
X97700000Y-129065000I150000J0D01*
G01*
X99350000Y-129065000D01*
G75*
G02*
X99500000Y-129215000I0J-150000D01*
G01*
X99500000Y-129515000D01*
G75*
G02*
X99350000Y-129665000I-150000J0D01*
G01*
X97700000Y-129665000D01*
G75*
G02*
X97550000Y-129515000I0J150000D01*
G01*
G37*
G36*
G01*
X97550000Y-130785000D02*
X97550000Y-130485000D01*
G75*
G02*
X97700000Y-130335000I150000J0D01*
G01*
X99350000Y-130335000D01*
G75*
G02*
X99500000Y-130485000I0J-150000D01*
G01*
X99500000Y-130785000D01*
G75*
G02*
X99350000Y-130935000I-150000J0D01*
G01*
X97700000Y-130935000D01*
G75*
G02*
X97550000Y-130785000I0J150000D01*
G01*
G37*
G36*
G01*
X97550000Y-132055000D02*
X97550000Y-131755000D01*
G75*
G02*
X97700000Y-131605000I150000J0D01*
G01*
X99350000Y-131605000D01*
G75*
G02*
X99500000Y-131755000I0J-150000D01*
G01*
X99500000Y-132055000D01*
G75*
G02*
X99350000Y-132205000I-150000J0D01*
G01*
X97700000Y-132205000D01*
G75*
G02*
X97550000Y-132055000I0J150000D01*
G01*
G37*
G36*
G01*
X102500000Y-132055000D02*
X102500000Y-131755000D01*
G75*
G02*
X102650000Y-131605000I150000J0D01*
G01*
X104300000Y-131605000D01*
G75*
G02*
X104450000Y-131755000I0J-150000D01*
G01*
X104450000Y-132055000D01*
G75*
G02*
X104300000Y-132205000I-150000J0D01*
G01*
X102650000Y-132205000D01*
G75*
G02*
X102500000Y-132055000I0J150000D01*
G01*
G37*
G36*
G01*
X102500000Y-130785000D02*
X102500000Y-130485000D01*
G75*
G02*
X102650000Y-130335000I150000J0D01*
G01*
X104300000Y-130335000D01*
G75*
G02*
X104450000Y-130485000I0J-150000D01*
G01*
X104450000Y-130785000D01*
G75*
G02*
X104300000Y-130935000I-150000J0D01*
G01*
X102650000Y-130935000D01*
G75*
G02*
X102500000Y-130785000I0J150000D01*
G01*
G37*
G36*
G01*
X102500000Y-129515000D02*
X102500000Y-129215000D01*
G75*
G02*
X102650000Y-129065000I150000J0D01*
G01*
X104300000Y-129065000D01*
G75*
G02*
X104450000Y-129215000I0J-150000D01*
G01*
X104450000Y-129515000D01*
G75*
G02*
X104300000Y-129665000I-150000J0D01*
G01*
X102650000Y-129665000D01*
G75*
G02*
X102500000Y-129515000I0J150000D01*
G01*
G37*
G36*
G01*
X102500000Y-128245000D02*
X102500000Y-127945000D01*
G75*
G02*
X102650000Y-127795000I150000J0D01*
G01*
X104300000Y-127795000D01*
G75*
G02*
X104450000Y-127945000I0J-150000D01*
G01*
X104450000Y-128245000D01*
G75*
G02*
X104300000Y-128395000I-150000J0D01*
G01*
X102650000Y-128395000D01*
G75*
G02*
X102500000Y-128245000I0J150000D01*
G01*
G37*
G36*
G01*
X119460000Y-70185000D02*
X119460000Y-69815000D01*
G75*
G02*
X119595000Y-69680000I135000J0D01*
G01*
X119865000Y-69680000D01*
G75*
G02*
X120000000Y-69815000I0J-135000D01*
G01*
X120000000Y-70185000D01*
G75*
G02*
X119865000Y-70320000I-135000J0D01*
G01*
X119595000Y-70320000D01*
G75*
G02*
X119460000Y-70185000I0J135000D01*
G01*
G37*
G36*
G01*
X120480000Y-70185000D02*
X120480000Y-69815000D01*
G75*
G02*
X120615000Y-69680000I135000J0D01*
G01*
X120885000Y-69680000D01*
G75*
G02*
X121020000Y-69815000I0J-135000D01*
G01*
X121020000Y-70185000D01*
G75*
G02*
X120885000Y-70320000I-135000J0D01*
G01*
X120615000Y-70320000D01*
G75*
G02*
X120480000Y-70185000I0J135000D01*
G01*
G37*
G36*
G01*
X135525000Y-136006250D02*
X135525000Y-135493750D01*
G75*
G02*
X135743750Y-135275000I218750J0D01*
G01*
X136181250Y-135275000D01*
G75*
G02*
X136400000Y-135493750I0J-218750D01*
G01*
X136400000Y-136006250D01*
G75*
G02*
X136181250Y-136225000I-218750J0D01*
G01*
X135743750Y-136225000D01*
G75*
G02*
X135525000Y-136006250I0J218750D01*
G01*
G37*
G36*
G01*
X137100000Y-136006250D02*
X137100000Y-135493750D01*
G75*
G02*
X137318750Y-135275000I218750J0D01*
G01*
X137756250Y-135275000D01*
G75*
G02*
X137975000Y-135493750I0J-218750D01*
G01*
X137975000Y-136006250D01*
G75*
G02*
X137756250Y-136225000I-218750J0D01*
G01*
X137318750Y-136225000D01*
G75*
G02*
X137100000Y-136006250I0J218750D01*
G01*
G37*
G36*
G01*
X137680000Y-68032500D02*
X137310000Y-68032500D01*
G75*
G02*
X137175000Y-67897500I0J135000D01*
G01*
X137175000Y-67627500D01*
G75*
G02*
X137310000Y-67492500I135000J0D01*
G01*
X137680000Y-67492500D01*
G75*
G02*
X137815000Y-67627500I0J-135000D01*
G01*
X137815000Y-67897500D01*
G75*
G02*
X137680000Y-68032500I-135000J0D01*
G01*
G37*
G36*
G01*
X137680000Y-67012500D02*
X137310000Y-67012500D01*
G75*
G02*
X137175000Y-66877500I0J135000D01*
G01*
X137175000Y-66607500D01*
G75*
G02*
X137310000Y-66472500I135000J0D01*
G01*
X137680000Y-66472500D01*
G75*
G02*
X137815000Y-66607500I0J-135000D01*
G01*
X137815000Y-66877500D01*
G75*
G02*
X137680000Y-67012500I-135000J0D01*
G01*
G37*
G36*
G01*
X138280000Y-102815000D02*
X138280000Y-103185000D01*
G75*
G02*
X138145000Y-103320000I-135000J0D01*
G01*
X137875000Y-103320000D01*
G75*
G02*
X137740000Y-103185000I0J135000D01*
G01*
X137740000Y-102815000D01*
G75*
G02*
X137875000Y-102680000I135000J0D01*
G01*
X138145000Y-102680000D01*
G75*
G02*
X138280000Y-102815000I0J-135000D01*
G01*
G37*
G36*
G01*
X137260000Y-102815000D02*
X137260000Y-103185000D01*
G75*
G02*
X137125000Y-103320000I-135000J0D01*
G01*
X136855000Y-103320000D01*
G75*
G02*
X136720000Y-103185000I0J135000D01*
G01*
X136720000Y-102815000D01*
G75*
G02*
X136855000Y-102680000I135000J0D01*
G01*
X137125000Y-102680000D01*
G75*
G02*
X137260000Y-102815000I0J-135000D01*
G01*
G37*
G36*
G01*
X133725000Y-151743750D02*
X133725000Y-152256250D01*
G75*
G02*
X133506250Y-152475000I-218750J0D01*
G01*
X133068750Y-152475000D01*
G75*
G02*
X132850000Y-152256250I0J218750D01*
G01*
X132850000Y-151743750D01*
G75*
G02*
X133068750Y-151525000I218750J0D01*
G01*
X133506250Y-151525000D01*
G75*
G02*
X133725000Y-151743750I0J-218750D01*
G01*
G37*
G36*
G01*
X132150000Y-151743750D02*
X132150000Y-152256250D01*
G75*
G02*
X131931250Y-152475000I-218750J0D01*
G01*
X131493750Y-152475000D01*
G75*
G02*
X131275000Y-152256250I0J218750D01*
G01*
X131275000Y-151743750D01*
G75*
G02*
X131493750Y-151525000I218750J0D01*
G01*
X131931250Y-151525000D01*
G75*
G02*
X132150000Y-151743750I0J-218750D01*
G01*
G37*
G36*
G01*
X97550000Y-53245000D02*
X97550000Y-52945000D01*
G75*
G02*
X97700000Y-52795000I150000J0D01*
G01*
X99350000Y-52795000D01*
G75*
G02*
X99500000Y-52945000I0J-150000D01*
G01*
X99500000Y-53245000D01*
G75*
G02*
X99350000Y-53395000I-150000J0D01*
G01*
X97700000Y-53395000D01*
G75*
G02*
X97550000Y-53245000I0J150000D01*
G01*
G37*
G36*
G01*
X97550000Y-54515000D02*
X97550000Y-54215000D01*
G75*
G02*
X97700000Y-54065000I150000J0D01*
G01*
X99350000Y-54065000D01*
G75*
G02*
X99500000Y-54215000I0J-150000D01*
G01*
X99500000Y-54515000D01*
G75*
G02*
X99350000Y-54665000I-150000J0D01*
G01*
X97700000Y-54665000D01*
G75*
G02*
X97550000Y-54515000I0J150000D01*
G01*
G37*
G36*
G01*
X97550000Y-55785000D02*
X97550000Y-55485000D01*
G75*
G02*
X97700000Y-55335000I150000J0D01*
G01*
X99350000Y-55335000D01*
G75*
G02*
X99500000Y-55485000I0J-150000D01*
G01*
X99500000Y-55785000D01*
G75*
G02*
X99350000Y-55935000I-150000J0D01*
G01*
X97700000Y-55935000D01*
G75*
G02*
X97550000Y-55785000I0J150000D01*
G01*
G37*
G36*
G01*
X97550000Y-57055000D02*
X97550000Y-56755000D01*
G75*
G02*
X97700000Y-56605000I150000J0D01*
G01*
X99350000Y-56605000D01*
G75*
G02*
X99500000Y-56755000I0J-150000D01*
G01*
X99500000Y-57055000D01*
G75*
G02*
X99350000Y-57205000I-150000J0D01*
G01*
X97700000Y-57205000D01*
G75*
G02*
X97550000Y-57055000I0J150000D01*
G01*
G37*
G36*
G01*
X102500000Y-57055000D02*
X102500000Y-56755000D01*
G75*
G02*
X102650000Y-56605000I150000J0D01*
G01*
X104300000Y-56605000D01*
G75*
G02*
X104450000Y-56755000I0J-150000D01*
G01*
X104450000Y-57055000D01*
G75*
G02*
X104300000Y-57205000I-150000J0D01*
G01*
X102650000Y-57205000D01*
G75*
G02*
X102500000Y-57055000I0J150000D01*
G01*
G37*
G36*
G01*
X102500000Y-55785000D02*
X102500000Y-55485000D01*
G75*
G02*
X102650000Y-55335000I150000J0D01*
G01*
X104300000Y-55335000D01*
G75*
G02*
X104450000Y-55485000I0J-150000D01*
G01*
X104450000Y-55785000D01*
G75*
G02*
X104300000Y-55935000I-150000J0D01*
G01*
X102650000Y-55935000D01*
G75*
G02*
X102500000Y-55785000I0J150000D01*
G01*
G37*
G36*
G01*
X102500000Y-54515000D02*
X102500000Y-54215000D01*
G75*
G02*
X102650000Y-54065000I150000J0D01*
G01*
X104300000Y-54065000D01*
G75*
G02*
X104450000Y-54215000I0J-150000D01*
G01*
X104450000Y-54515000D01*
G75*
G02*
X104300000Y-54665000I-150000J0D01*
G01*
X102650000Y-54665000D01*
G75*
G02*
X102500000Y-54515000I0J150000D01*
G01*
G37*
G36*
G01*
X102500000Y-53245000D02*
X102500000Y-52945000D01*
G75*
G02*
X102650000Y-52795000I150000J0D01*
G01*
X104300000Y-52795000D01*
G75*
G02*
X104450000Y-52945000I0J-150000D01*
G01*
X104450000Y-53245000D01*
G75*
G02*
X104300000Y-53395000I-150000J0D01*
G01*
X102650000Y-53395000D01*
G75*
G02*
X102500000Y-53245000I0J150000D01*
G01*
G37*
G36*
G01*
X108185000Y-130780000D02*
X107815000Y-130780000D01*
G75*
G02*
X107680000Y-130645000I0J135000D01*
G01*
X107680000Y-130375000D01*
G75*
G02*
X107815000Y-130240000I135000J0D01*
G01*
X108185000Y-130240000D01*
G75*
G02*
X108320000Y-130375000I0J-135000D01*
G01*
X108320000Y-130645000D01*
G75*
G02*
X108185000Y-130780000I-135000J0D01*
G01*
G37*
G36*
G01*
X108185000Y-129760000D02*
X107815000Y-129760000D01*
G75*
G02*
X107680000Y-129625000I0J135000D01*
G01*
X107680000Y-129355000D01*
G75*
G02*
X107815000Y-129220000I135000J0D01*
G01*
X108185000Y-129220000D01*
G75*
G02*
X108320000Y-129355000I0J-135000D01*
G01*
X108320000Y-129625000D01*
G75*
G02*
X108185000Y-129760000I-135000J0D01*
G01*
G37*
G36*
G01*
X108185000Y-115780000D02*
X107815000Y-115780000D01*
G75*
G02*
X107680000Y-115645000I0J135000D01*
G01*
X107680000Y-115375000D01*
G75*
G02*
X107815000Y-115240000I135000J0D01*
G01*
X108185000Y-115240000D01*
G75*
G02*
X108320000Y-115375000I0J-135000D01*
G01*
X108320000Y-115645000D01*
G75*
G02*
X108185000Y-115780000I-135000J0D01*
G01*
G37*
G36*
G01*
X108185000Y-114760000D02*
X107815000Y-114760000D01*
G75*
G02*
X107680000Y-114625000I0J135000D01*
G01*
X107680000Y-114355000D01*
G75*
G02*
X107815000Y-114220000I135000J0D01*
G01*
X108185000Y-114220000D01*
G75*
G02*
X108320000Y-114355000I0J-135000D01*
G01*
X108320000Y-114625000D01*
G75*
G02*
X108185000Y-114760000I-135000J0D01*
G01*
G37*
G36*
G01*
X105220000Y-144585000D02*
X105220000Y-144215000D01*
G75*
G02*
X105355000Y-144080000I135000J0D01*
G01*
X105625000Y-144080000D01*
G75*
G02*
X105760000Y-144215000I0J-135000D01*
G01*
X105760000Y-144585000D01*
G75*
G02*
X105625000Y-144720000I-135000J0D01*
G01*
X105355000Y-144720000D01*
G75*
G02*
X105220000Y-144585000I0J135000D01*
G01*
G37*
G36*
G01*
X106240000Y-144585000D02*
X106240000Y-144215000D01*
G75*
G02*
X106375000Y-144080000I135000J0D01*
G01*
X106645000Y-144080000D01*
G75*
G02*
X106780000Y-144215000I0J-135000D01*
G01*
X106780000Y-144585000D01*
G75*
G02*
X106645000Y-144720000I-135000J0D01*
G01*
X106375000Y-144720000D01*
G75*
G02*
X106240000Y-144585000I0J135000D01*
G01*
G37*
G36*
G01*
X134510000Y-65580000D02*
X134510000Y-65920000D01*
G75*
G02*
X134370000Y-66060000I-140000J0D01*
G01*
X134090000Y-66060000D01*
G75*
G02*
X133950000Y-65920000I0J140000D01*
G01*
X133950000Y-65580000D01*
G75*
G02*
X134090000Y-65440000I140000J0D01*
G01*
X134370000Y-65440000D01*
G75*
G02*
X134510000Y-65580000I0J-140000D01*
G01*
G37*
G36*
G01*
X133550000Y-65580000D02*
X133550000Y-65920000D01*
G75*
G02*
X133410000Y-66060000I-140000J0D01*
G01*
X133130000Y-66060000D01*
G75*
G02*
X132990000Y-65920000I0J140000D01*
G01*
X132990000Y-65580000D01*
G75*
G02*
X133130000Y-65440000I140000J0D01*
G01*
X133410000Y-65440000D01*
G75*
G02*
X133550000Y-65580000I0J-140000D01*
G01*
G37*
G36*
G01*
X130000000Y-150225000D02*
X129500000Y-150225000D01*
G75*
G02*
X129275000Y-150000000I0J225000D01*
G01*
X129275000Y-149550000D01*
G75*
G02*
X129500000Y-149325000I225000J0D01*
G01*
X130000000Y-149325000D01*
G75*
G02*
X130225000Y-149550000I0J-225000D01*
G01*
X130225000Y-150000000D01*
G75*
G02*
X130000000Y-150225000I-225000J0D01*
G01*
G37*
G36*
G01*
X130000000Y-148675000D02*
X129500000Y-148675000D01*
G75*
G02*
X129275000Y-148450000I0J225000D01*
G01*
X129275000Y-148000000D01*
G75*
G02*
X129500000Y-147775000I225000J0D01*
G01*
X130000000Y-147775000D01*
G75*
G02*
X130225000Y-148000000I0J-225000D01*
G01*
X130225000Y-148450000D01*
G75*
G02*
X130000000Y-148675000I-225000J0D01*
G01*
G37*
G36*
G01*
X120120000Y-100272500D02*
X119780000Y-100272500D01*
G75*
G02*
X119640000Y-100132500I0J140000D01*
G01*
X119640000Y-99852500D01*
G75*
G02*
X119780000Y-99712500I140000J0D01*
G01*
X120120000Y-99712500D01*
G75*
G02*
X120260000Y-99852500I0J-140000D01*
G01*
X120260000Y-100132500D01*
G75*
G02*
X120120000Y-100272500I-140000J0D01*
G01*
G37*
G36*
G01*
X120120000Y-99312500D02*
X119780000Y-99312500D01*
G75*
G02*
X119640000Y-99172500I0J140000D01*
G01*
X119640000Y-98892500D01*
G75*
G02*
X119780000Y-98752500I140000J0D01*
G01*
X120120000Y-98752500D01*
G75*
G02*
X120260000Y-98892500I0J-140000D01*
G01*
X120260000Y-99172500D01*
G75*
G02*
X120120000Y-99312500I-140000J0D01*
G01*
G37*
D14*
X133075000Y-103875000D03*
X133075000Y-103125000D03*
X132425000Y-103875000D03*
X132425000Y-103125000D03*
D15*
X134200000Y-104250000D03*
X134200000Y-103750000D03*
X134200000Y-103250000D03*
X134200000Y-102750000D03*
X131300000Y-102750000D03*
X131300000Y-103250000D03*
X131300000Y-103750000D03*
X131300000Y-104250000D03*
G36*
G01*
X136330000Y-59240000D02*
X136670000Y-59240000D01*
G75*
G02*
X136810000Y-59380000I0J-140000D01*
G01*
X136810000Y-59660000D01*
G75*
G02*
X136670000Y-59800000I-140000J0D01*
G01*
X136330000Y-59800000D01*
G75*
G02*
X136190000Y-59660000I0J140000D01*
G01*
X136190000Y-59380000D01*
G75*
G02*
X136330000Y-59240000I140000J0D01*
G01*
G37*
G36*
G01*
X136330000Y-60200000D02*
X136670000Y-60200000D01*
G75*
G02*
X136810000Y-60340000I0J-140000D01*
G01*
X136810000Y-60620000D01*
G75*
G02*
X136670000Y-60760000I-140000J0D01*
G01*
X136330000Y-60760000D01*
G75*
G02*
X136190000Y-60620000I0J140000D01*
G01*
X136190000Y-60340000D01*
G75*
G02*
X136330000Y-60200000I140000J0D01*
G01*
G37*
G36*
G01*
X130605000Y-120770000D02*
X130605000Y-121140000D01*
G75*
G02*
X130470000Y-121275000I-135000J0D01*
G01*
X130200000Y-121275000D01*
G75*
G02*
X130065000Y-121140000I0J135000D01*
G01*
X130065000Y-120770000D01*
G75*
G02*
X130200000Y-120635000I135000J0D01*
G01*
X130470000Y-120635000D01*
G75*
G02*
X130605000Y-120770000I0J-135000D01*
G01*
G37*
G36*
G01*
X129585000Y-120770000D02*
X129585000Y-121140000D01*
G75*
G02*
X129450000Y-121275000I-135000J0D01*
G01*
X129180000Y-121275000D01*
G75*
G02*
X129045000Y-121140000I0J135000D01*
G01*
X129045000Y-120770000D01*
G75*
G02*
X129180000Y-120635000I135000J0D01*
G01*
X129450000Y-120635000D01*
G75*
G02*
X129585000Y-120770000I0J-135000D01*
G01*
G37*
G36*
G01*
X118170000Y-146260000D02*
X117830000Y-146260000D01*
G75*
G02*
X117690000Y-146120000I0J140000D01*
G01*
X117690000Y-145840000D01*
G75*
G02*
X117830000Y-145700000I140000J0D01*
G01*
X118170000Y-145700000D01*
G75*
G02*
X118310000Y-145840000I0J-140000D01*
G01*
X118310000Y-146120000D01*
G75*
G02*
X118170000Y-146260000I-140000J0D01*
G01*
G37*
G36*
G01*
X118170000Y-145300000D02*
X117830000Y-145300000D01*
G75*
G02*
X117690000Y-145160000I0J140000D01*
G01*
X117690000Y-144880000D01*
G75*
G02*
X117830000Y-144740000I140000J0D01*
G01*
X118170000Y-144740000D01*
G75*
G02*
X118310000Y-144880000I0J-140000D01*
G01*
X118310000Y-145160000D01*
G75*
G02*
X118170000Y-145300000I-140000J0D01*
G01*
G37*
G36*
G01*
X129337500Y-141000000D02*
X129337500Y-140700000D01*
G75*
G02*
X129487500Y-140550000I150000J0D01*
G01*
X130512500Y-140550000D01*
G75*
G02*
X130662500Y-140700000I0J-150000D01*
G01*
X130662500Y-141000000D01*
G75*
G02*
X130512500Y-141150000I-150000J0D01*
G01*
X129487500Y-141150000D01*
G75*
G02*
X129337500Y-141000000I0J150000D01*
G01*
G37*
G36*
G01*
X129337500Y-141950000D02*
X129337500Y-141650000D01*
G75*
G02*
X129487500Y-141500000I150000J0D01*
G01*
X130512500Y-141500000D01*
G75*
G02*
X130662500Y-141650000I0J-150000D01*
G01*
X130662500Y-141950000D01*
G75*
G02*
X130512500Y-142100000I-150000J0D01*
G01*
X129487500Y-142100000D01*
G75*
G02*
X129337500Y-141950000I0J150000D01*
G01*
G37*
G36*
G01*
X129337500Y-142900000D02*
X129337500Y-142600000D01*
G75*
G02*
X129487500Y-142450000I150000J0D01*
G01*
X130512500Y-142450000D01*
G75*
G02*
X130662500Y-142600000I0J-150000D01*
G01*
X130662500Y-142900000D01*
G75*
G02*
X130512500Y-143050000I-150000J0D01*
G01*
X129487500Y-143050000D01*
G75*
G02*
X129337500Y-142900000I0J150000D01*
G01*
G37*
G36*
G01*
X131612500Y-142900000D02*
X131612500Y-142600000D01*
G75*
G02*
X131762500Y-142450000I150000J0D01*
G01*
X132787500Y-142450000D01*
G75*
G02*
X132937500Y-142600000I0J-150000D01*
G01*
X132937500Y-142900000D01*
G75*
G02*
X132787500Y-143050000I-150000J0D01*
G01*
X131762500Y-143050000D01*
G75*
G02*
X131612500Y-142900000I0J150000D01*
G01*
G37*
G36*
G01*
X131612500Y-141950000D02*
X131612500Y-141650000D01*
G75*
G02*
X131762500Y-141500000I150000J0D01*
G01*
X132787500Y-141500000D01*
G75*
G02*
X132937500Y-141650000I0J-150000D01*
G01*
X132937500Y-141950000D01*
G75*
G02*
X132787500Y-142100000I-150000J0D01*
G01*
X131762500Y-142100000D01*
G75*
G02*
X131612500Y-141950000I0J150000D01*
G01*
G37*
G36*
G01*
X131612500Y-141000000D02*
X131612500Y-140700000D01*
G75*
G02*
X131762500Y-140550000I150000J0D01*
G01*
X132787500Y-140550000D01*
G75*
G02*
X132937500Y-140700000I0J-150000D01*
G01*
X132937500Y-141000000D01*
G75*
G02*
X132787500Y-141150000I-150000J0D01*
G01*
X131762500Y-141150000D01*
G75*
G02*
X131612500Y-141000000I0J150000D01*
G01*
G37*
D11*
X117515000Y-50020000D03*
X117515000Y-47480000D03*
X107985000Y-47480000D03*
X107985000Y-50020000D03*
G36*
G01*
X131562500Y-133756250D02*
X131562500Y-133243750D01*
G75*
G02*
X131781250Y-133025000I218750J0D01*
G01*
X132218750Y-133025000D01*
G75*
G02*
X132437500Y-133243750I0J-218750D01*
G01*
X132437500Y-133756250D01*
G75*
G02*
X132218750Y-133975000I-218750J0D01*
G01*
X131781250Y-133975000D01*
G75*
G02*
X131562500Y-133756250I0J218750D01*
G01*
G37*
G36*
G01*
X133137500Y-133756250D02*
X133137500Y-133243750D01*
G75*
G02*
X133356250Y-133025000I218750J0D01*
G01*
X133793750Y-133025000D01*
G75*
G02*
X134012500Y-133243750I0J-218750D01*
G01*
X134012500Y-133756250D01*
G75*
G02*
X133793750Y-133975000I-218750J0D01*
G01*
X133356250Y-133975000D01*
G75*
G02*
X133137500Y-133756250I0J218750D01*
G01*
G37*
G36*
G01*
X105330000Y-115490000D02*
X105670000Y-115490000D01*
G75*
G02*
X105810000Y-115630000I0J-140000D01*
G01*
X105810000Y-115910000D01*
G75*
G02*
X105670000Y-116050000I-140000J0D01*
G01*
X105330000Y-116050000D01*
G75*
G02*
X105190000Y-115910000I0J140000D01*
G01*
X105190000Y-115630000D01*
G75*
G02*
X105330000Y-115490000I140000J0D01*
G01*
G37*
G36*
G01*
X105330000Y-116450000D02*
X105670000Y-116450000D01*
G75*
G02*
X105810000Y-116590000I0J-140000D01*
G01*
X105810000Y-116870000D01*
G75*
G02*
X105670000Y-117010000I-140000J0D01*
G01*
X105330000Y-117010000D01*
G75*
G02*
X105190000Y-116870000I0J140000D01*
G01*
X105190000Y-116590000D01*
G75*
G02*
X105330000Y-116450000I140000J0D01*
G01*
G37*
G36*
G01*
X108185000Y-160780000D02*
X107815000Y-160780000D01*
G75*
G02*
X107680000Y-160645000I0J135000D01*
G01*
X107680000Y-160375000D01*
G75*
G02*
X107815000Y-160240000I135000J0D01*
G01*
X108185000Y-160240000D01*
G75*
G02*
X108320000Y-160375000I0J-135000D01*
G01*
X108320000Y-160645000D01*
G75*
G02*
X108185000Y-160780000I-135000J0D01*
G01*
G37*
G36*
G01*
X108185000Y-159760000D02*
X107815000Y-159760000D01*
G75*
G02*
X107680000Y-159625000I0J135000D01*
G01*
X107680000Y-159355000D01*
G75*
G02*
X107815000Y-159220000I135000J0D01*
G01*
X108185000Y-159220000D01*
G75*
G02*
X108320000Y-159355000I0J-135000D01*
G01*
X108320000Y-159625000D01*
G75*
G02*
X108185000Y-159760000I-135000J0D01*
G01*
G37*
G36*
G01*
X105330000Y-145490000D02*
X105670000Y-145490000D01*
G75*
G02*
X105810000Y-145630000I0J-140000D01*
G01*
X105810000Y-145910000D01*
G75*
G02*
X105670000Y-146050000I-140000J0D01*
G01*
X105330000Y-146050000D01*
G75*
G02*
X105190000Y-145910000I0J140000D01*
G01*
X105190000Y-145630000D01*
G75*
G02*
X105330000Y-145490000I140000J0D01*
G01*
G37*
G36*
G01*
X105330000Y-146450000D02*
X105670000Y-146450000D01*
G75*
G02*
X105810000Y-146590000I0J-140000D01*
G01*
X105810000Y-146870000D01*
G75*
G02*
X105670000Y-147010000I-140000J0D01*
G01*
X105330000Y-147010000D01*
G75*
G02*
X105190000Y-146870000I0J140000D01*
G01*
X105190000Y-146590000D01*
G75*
G02*
X105330000Y-146450000I140000J0D01*
G01*
G37*
G36*
G01*
X131562500Y-123756250D02*
X131562500Y-123243750D01*
G75*
G02*
X131781250Y-123025000I218750J0D01*
G01*
X132218750Y-123025000D01*
G75*
G02*
X132437500Y-123243750I0J-218750D01*
G01*
X132437500Y-123756250D01*
G75*
G02*
X132218750Y-123975000I-218750J0D01*
G01*
X131781250Y-123975000D01*
G75*
G02*
X131562500Y-123756250I0J218750D01*
G01*
G37*
G36*
G01*
X133137500Y-123756250D02*
X133137500Y-123243750D01*
G75*
G02*
X133356250Y-123025000I218750J0D01*
G01*
X133793750Y-123025000D01*
G75*
G02*
X134012500Y-123243750I0J-218750D01*
G01*
X134012500Y-123756250D01*
G75*
G02*
X133793750Y-123975000I-218750J0D01*
G01*
X133356250Y-123975000D01*
G75*
G02*
X133137500Y-123756250I0J218750D01*
G01*
G37*
G36*
G01*
X105220000Y-114585000D02*
X105220000Y-114215000D01*
G75*
G02*
X105355000Y-114080000I135000J0D01*
G01*
X105625000Y-114080000D01*
G75*
G02*
X105760000Y-114215000I0J-135000D01*
G01*
X105760000Y-114585000D01*
G75*
G02*
X105625000Y-114720000I-135000J0D01*
G01*
X105355000Y-114720000D01*
G75*
G02*
X105220000Y-114585000I0J135000D01*
G01*
G37*
G36*
G01*
X106240000Y-114585000D02*
X106240000Y-114215000D01*
G75*
G02*
X106375000Y-114080000I135000J0D01*
G01*
X106645000Y-114080000D01*
G75*
G02*
X106780000Y-114215000I0J-135000D01*
G01*
X106780000Y-114585000D01*
G75*
G02*
X106645000Y-114720000I-135000J0D01*
G01*
X106375000Y-114720000D01*
G75*
G02*
X106240000Y-114585000I0J135000D01*
G01*
G37*
G36*
G01*
X120185000Y-133780000D02*
X119815000Y-133780000D01*
G75*
G02*
X119680000Y-133645000I0J135000D01*
G01*
X119680000Y-133375000D01*
G75*
G02*
X119815000Y-133240000I135000J0D01*
G01*
X120185000Y-133240000D01*
G75*
G02*
X120320000Y-133375000I0J-135000D01*
G01*
X120320000Y-133645000D01*
G75*
G02*
X120185000Y-133780000I-135000J0D01*
G01*
G37*
G36*
G01*
X120185000Y-132760000D02*
X119815000Y-132760000D01*
G75*
G02*
X119680000Y-132625000I0J135000D01*
G01*
X119680000Y-132355000D01*
G75*
G02*
X119815000Y-132220000I135000J0D01*
G01*
X120185000Y-132220000D01*
G75*
G02*
X120320000Y-132355000I0J-135000D01*
G01*
X120320000Y-132625000D01*
G75*
G02*
X120185000Y-132760000I-135000J0D01*
G01*
G37*
G36*
G01*
X135400000Y-75175000D02*
X135400000Y-75925000D01*
G75*
G02*
X135025000Y-76300000I-375000J0D01*
G01*
X133775000Y-76300000D01*
G75*
G02*
X133400000Y-75925000I0J375000D01*
G01*
X133400000Y-75175000D01*
G75*
G02*
X133775000Y-74800000I375000J0D01*
G01*
X135025000Y-74800000D01*
G75*
G02*
X135400000Y-75175000I0J-375000D01*
G01*
G37*
G36*
G01*
X135400000Y-72875000D02*
X135400000Y-73625000D01*
G75*
G02*
X135025000Y-74000000I-375000J0D01*
G01*
X133775000Y-74000000D01*
G75*
G02*
X133400000Y-73625000I0J375000D01*
G01*
X133400000Y-72875000D01*
G75*
G02*
X133775000Y-72500000I375000J0D01*
G01*
X135025000Y-72500000D01*
G75*
G02*
X135400000Y-72875000I0J-375000D01*
G01*
G37*
G36*
G01*
X129100000Y-71850000D02*
X129100000Y-74650000D01*
G75*
G02*
X128600000Y-75150000I-500000J0D01*
G01*
X127600000Y-75150000D01*
G75*
G02*
X127100000Y-74650000I0J500000D01*
G01*
X127100000Y-71850000D01*
G75*
G02*
X127600000Y-71350000I500000J0D01*
G01*
X128600000Y-71350000D01*
G75*
G02*
X129100000Y-71850000I0J-500000D01*
G01*
G37*
G36*
G01*
X135400000Y-70575000D02*
X135400000Y-71325000D01*
G75*
G02*
X135025000Y-71700000I-375000J0D01*
G01*
X133775000Y-71700000D01*
G75*
G02*
X133400000Y-71325000I0J375000D01*
G01*
X133400000Y-70575000D01*
G75*
G02*
X133775000Y-70200000I375000J0D01*
G01*
X135025000Y-70200000D01*
G75*
G02*
X135400000Y-70575000I0J-375000D01*
G01*
G37*
G36*
G01*
X129880000Y-97852500D02*
X130220000Y-97852500D01*
G75*
G02*
X130360000Y-97992500I0J-140000D01*
G01*
X130360000Y-98272500D01*
G75*
G02*
X130220000Y-98412500I-140000J0D01*
G01*
X129880000Y-98412500D01*
G75*
G02*
X129740000Y-98272500I0J140000D01*
G01*
X129740000Y-97992500D01*
G75*
G02*
X129880000Y-97852500I140000J0D01*
G01*
G37*
G36*
G01*
X129880000Y-98812500D02*
X130220000Y-98812500D01*
G75*
G02*
X130360000Y-98952500I0J-140000D01*
G01*
X130360000Y-99232500D01*
G75*
G02*
X130220000Y-99372500I-140000J0D01*
G01*
X129880000Y-99372500D01*
G75*
G02*
X129740000Y-99232500I0J140000D01*
G01*
X129740000Y-98952500D01*
G75*
G02*
X129880000Y-98812500I140000J0D01*
G01*
G37*
G36*
G01*
X116170000Y-84490000D02*
X115830000Y-84490000D01*
G75*
G02*
X115690000Y-84350000I0J140000D01*
G01*
X115690000Y-84070000D01*
G75*
G02*
X115830000Y-83930000I140000J0D01*
G01*
X116170000Y-83930000D01*
G75*
G02*
X116310000Y-84070000I0J-140000D01*
G01*
X116310000Y-84350000D01*
G75*
G02*
X116170000Y-84490000I-140000J0D01*
G01*
G37*
G36*
G01*
X116170000Y-83530000D02*
X115830000Y-83530000D01*
G75*
G02*
X115690000Y-83390000I0J140000D01*
G01*
X115690000Y-83110000D01*
G75*
G02*
X115830000Y-82970000I140000J0D01*
G01*
X116170000Y-82970000D01*
G75*
G02*
X116310000Y-83110000I0J-140000D01*
G01*
X116310000Y-83390000D01*
G75*
G02*
X116170000Y-83530000I-140000J0D01*
G01*
G37*
G36*
G01*
X105330000Y-100490000D02*
X105670000Y-100490000D01*
G75*
G02*
X105810000Y-100630000I0J-140000D01*
G01*
X105810000Y-100910000D01*
G75*
G02*
X105670000Y-101050000I-140000J0D01*
G01*
X105330000Y-101050000D01*
G75*
G02*
X105190000Y-100910000I0J140000D01*
G01*
X105190000Y-100630000D01*
G75*
G02*
X105330000Y-100490000I140000J0D01*
G01*
G37*
G36*
G01*
X105330000Y-101450000D02*
X105670000Y-101450000D01*
G75*
G02*
X105810000Y-101590000I0J-140000D01*
G01*
X105810000Y-101870000D01*
G75*
G02*
X105670000Y-102010000I-140000J0D01*
G01*
X105330000Y-102010000D01*
G75*
G02*
X105190000Y-101870000I0J140000D01*
G01*
X105190000Y-101590000D01*
G75*
G02*
X105330000Y-101450000I140000J0D01*
G01*
G37*
G36*
G01*
X124380000Y-97852500D02*
X124720000Y-97852500D01*
G75*
G02*
X124860000Y-97992500I0J-140000D01*
G01*
X124860000Y-98272500D01*
G75*
G02*
X124720000Y-98412500I-140000J0D01*
G01*
X124380000Y-98412500D01*
G75*
G02*
X124240000Y-98272500I0J140000D01*
G01*
X124240000Y-97992500D01*
G75*
G02*
X124380000Y-97852500I140000J0D01*
G01*
G37*
G36*
G01*
X124380000Y-98812500D02*
X124720000Y-98812500D01*
G75*
G02*
X124860000Y-98952500I0J-140000D01*
G01*
X124860000Y-99232500D01*
G75*
G02*
X124720000Y-99372500I-140000J0D01*
G01*
X124380000Y-99372500D01*
G75*
G02*
X124240000Y-99232500I0J140000D01*
G01*
X124240000Y-98952500D01*
G75*
G02*
X124380000Y-98812500I140000J0D01*
G01*
G37*
G36*
G01*
X131562500Y-116256250D02*
X131562500Y-115743750D01*
G75*
G02*
X131781250Y-115525000I218750J0D01*
G01*
X132218750Y-115525000D01*
G75*
G02*
X132437500Y-115743750I0J-218750D01*
G01*
X132437500Y-116256250D01*
G75*
G02*
X132218750Y-116475000I-218750J0D01*
G01*
X131781250Y-116475000D01*
G75*
G02*
X131562500Y-116256250I0J218750D01*
G01*
G37*
G36*
G01*
X133137500Y-116256250D02*
X133137500Y-115743750D01*
G75*
G02*
X133356250Y-115525000I218750J0D01*
G01*
X133793750Y-115525000D01*
G75*
G02*
X134012500Y-115743750I0J-218750D01*
G01*
X134012500Y-116256250D01*
G75*
G02*
X133793750Y-116475000I-218750J0D01*
G01*
X133356250Y-116475000D01*
G75*
G02*
X133137500Y-116256250I0J218750D01*
G01*
G37*
G36*
G01*
X133700000Y-54150000D02*
X133700000Y-52850000D01*
G75*
G02*
X133950000Y-52600000I250000J0D01*
G01*
X134600000Y-52600000D01*
G75*
G02*
X134850000Y-52850000I0J-250000D01*
G01*
X134850000Y-54150000D01*
G75*
G02*
X134600000Y-54400000I-250000J0D01*
G01*
X133950000Y-54400000D01*
G75*
G02*
X133700000Y-54150000I0J250000D01*
G01*
G37*
G36*
G01*
X136650000Y-54150000D02*
X136650000Y-52850000D01*
G75*
G02*
X136900000Y-52600000I250000J0D01*
G01*
X137550000Y-52600000D01*
G75*
G02*
X137800000Y-52850000I0J-250000D01*
G01*
X137800000Y-54150000D01*
G75*
G02*
X137550000Y-54400000I-250000J0D01*
G01*
X136900000Y-54400000D01*
G75*
G02*
X136650000Y-54150000I0J250000D01*
G01*
G37*
G36*
G01*
X108185000Y-55780000D02*
X107815000Y-55780000D01*
G75*
G02*
X107680000Y-55645000I0J135000D01*
G01*
X107680000Y-55375000D01*
G75*
G02*
X107815000Y-55240000I135000J0D01*
G01*
X108185000Y-55240000D01*
G75*
G02*
X108320000Y-55375000I0J-135000D01*
G01*
X108320000Y-55645000D01*
G75*
G02*
X108185000Y-55780000I-135000J0D01*
G01*
G37*
G36*
G01*
X108185000Y-54760000D02*
X107815000Y-54760000D01*
G75*
G02*
X107680000Y-54625000I0J135000D01*
G01*
X107680000Y-54355000D01*
G75*
G02*
X107815000Y-54220000I135000J0D01*
G01*
X108185000Y-54220000D01*
G75*
G02*
X108320000Y-54355000I0J-135000D01*
G01*
X108320000Y-54625000D01*
G75*
G02*
X108185000Y-54760000I-135000J0D01*
G01*
G37*
G36*
G01*
X97550000Y-98245000D02*
X97550000Y-97945000D01*
G75*
G02*
X97700000Y-97795000I150000J0D01*
G01*
X99350000Y-97795000D01*
G75*
G02*
X99500000Y-97945000I0J-150000D01*
G01*
X99500000Y-98245000D01*
G75*
G02*
X99350000Y-98395000I-150000J0D01*
G01*
X97700000Y-98395000D01*
G75*
G02*
X97550000Y-98245000I0J150000D01*
G01*
G37*
G36*
G01*
X97550000Y-99515000D02*
X97550000Y-99215000D01*
G75*
G02*
X97700000Y-99065000I150000J0D01*
G01*
X99350000Y-99065000D01*
G75*
G02*
X99500000Y-99215000I0J-150000D01*
G01*
X99500000Y-99515000D01*
G75*
G02*
X99350000Y-99665000I-150000J0D01*
G01*
X97700000Y-99665000D01*
G75*
G02*
X97550000Y-99515000I0J150000D01*
G01*
G37*
G36*
G01*
X97550000Y-100785000D02*
X97550000Y-100485000D01*
G75*
G02*
X97700000Y-100335000I150000J0D01*
G01*
X99350000Y-100335000D01*
G75*
G02*
X99500000Y-100485000I0J-150000D01*
G01*
X99500000Y-100785000D01*
G75*
G02*
X99350000Y-100935000I-150000J0D01*
G01*
X97700000Y-100935000D01*
G75*
G02*
X97550000Y-100785000I0J150000D01*
G01*
G37*
G36*
G01*
X97550000Y-102055000D02*
X97550000Y-101755000D01*
G75*
G02*
X97700000Y-101605000I150000J0D01*
G01*
X99350000Y-101605000D01*
G75*
G02*
X99500000Y-101755000I0J-150000D01*
G01*
X99500000Y-102055000D01*
G75*
G02*
X99350000Y-102205000I-150000J0D01*
G01*
X97700000Y-102205000D01*
G75*
G02*
X97550000Y-102055000I0J150000D01*
G01*
G37*
G36*
G01*
X102500000Y-102055000D02*
X102500000Y-101755000D01*
G75*
G02*
X102650000Y-101605000I150000J0D01*
G01*
X104300000Y-101605000D01*
G75*
G02*
X104450000Y-101755000I0J-150000D01*
G01*
X104450000Y-102055000D01*
G75*
G02*
X104300000Y-102205000I-150000J0D01*
G01*
X102650000Y-102205000D01*
G75*
G02*
X102500000Y-102055000I0J150000D01*
G01*
G37*
G36*
G01*
X102500000Y-100785000D02*
X102500000Y-100485000D01*
G75*
G02*
X102650000Y-100335000I150000J0D01*
G01*
X104300000Y-100335000D01*
G75*
G02*
X104450000Y-100485000I0J-150000D01*
G01*
X104450000Y-100785000D01*
G75*
G02*
X104300000Y-100935000I-150000J0D01*
G01*
X102650000Y-100935000D01*
G75*
G02*
X102500000Y-100785000I0J150000D01*
G01*
G37*
G36*
G01*
X102500000Y-99515000D02*
X102500000Y-99215000D01*
G75*
G02*
X102650000Y-99065000I150000J0D01*
G01*
X104300000Y-99065000D01*
G75*
G02*
X104450000Y-99215000I0J-150000D01*
G01*
X104450000Y-99515000D01*
G75*
G02*
X104300000Y-99665000I-150000J0D01*
G01*
X102650000Y-99665000D01*
G75*
G02*
X102500000Y-99515000I0J150000D01*
G01*
G37*
G36*
G01*
X102500000Y-98245000D02*
X102500000Y-97945000D01*
G75*
G02*
X102650000Y-97795000I150000J0D01*
G01*
X104300000Y-97795000D01*
G75*
G02*
X104450000Y-97945000I0J-150000D01*
G01*
X104450000Y-98245000D01*
G75*
G02*
X104300000Y-98395000I-150000J0D01*
G01*
X102650000Y-98395000D01*
G75*
G02*
X102500000Y-98245000I0J150000D01*
G01*
G37*
G36*
G01*
X105220000Y-99585000D02*
X105220000Y-99215000D01*
G75*
G02*
X105355000Y-99080000I135000J0D01*
G01*
X105625000Y-99080000D01*
G75*
G02*
X105760000Y-99215000I0J-135000D01*
G01*
X105760000Y-99585000D01*
G75*
G02*
X105625000Y-99720000I-135000J0D01*
G01*
X105355000Y-99720000D01*
G75*
G02*
X105220000Y-99585000I0J135000D01*
G01*
G37*
G36*
G01*
X106240000Y-99585000D02*
X106240000Y-99215000D01*
G75*
G02*
X106375000Y-99080000I135000J0D01*
G01*
X106645000Y-99080000D01*
G75*
G02*
X106780000Y-99215000I0J-135000D01*
G01*
X106780000Y-99585000D01*
G75*
G02*
X106645000Y-99720000I-135000J0D01*
G01*
X106375000Y-99720000D01*
G75*
G02*
X106240000Y-99585000I0J135000D01*
G01*
G37*
G36*
G01*
X105220000Y-129585000D02*
X105220000Y-129215000D01*
G75*
G02*
X105355000Y-129080000I135000J0D01*
G01*
X105625000Y-129080000D01*
G75*
G02*
X105760000Y-129215000I0J-135000D01*
G01*
X105760000Y-129585000D01*
G75*
G02*
X105625000Y-129720000I-135000J0D01*
G01*
X105355000Y-129720000D01*
G75*
G02*
X105220000Y-129585000I0J135000D01*
G01*
G37*
G36*
G01*
X106240000Y-129585000D02*
X106240000Y-129215000D01*
G75*
G02*
X106375000Y-129080000I135000J0D01*
G01*
X106645000Y-129080000D01*
G75*
G02*
X106780000Y-129215000I0J-135000D01*
G01*
X106780000Y-129585000D01*
G75*
G02*
X106645000Y-129720000I-135000J0D01*
G01*
X106375000Y-129720000D01*
G75*
G02*
X106240000Y-129585000I0J135000D01*
G01*
G37*
G36*
G01*
X136330000Y-73740000D02*
X136670000Y-73740000D01*
G75*
G02*
X136810000Y-73880000I0J-140000D01*
G01*
X136810000Y-74160000D01*
G75*
G02*
X136670000Y-74300000I-140000J0D01*
G01*
X136330000Y-74300000D01*
G75*
G02*
X136190000Y-74160000I0J140000D01*
G01*
X136190000Y-73880000D01*
G75*
G02*
X136330000Y-73740000I140000J0D01*
G01*
G37*
G36*
G01*
X136330000Y-74700000D02*
X136670000Y-74700000D01*
G75*
G02*
X136810000Y-74840000I0J-140000D01*
G01*
X136810000Y-75120000D01*
G75*
G02*
X136670000Y-75260000I-140000J0D01*
G01*
X136330000Y-75260000D01*
G75*
G02*
X136190000Y-75120000I0J140000D01*
G01*
X136190000Y-74840000D01*
G75*
G02*
X136330000Y-74700000I140000J0D01*
G01*
G37*
G36*
G01*
X125900000Y-73800000D02*
X124600000Y-73800000D01*
G75*
G02*
X124350000Y-73550000I0J250000D01*
G01*
X124350000Y-72900000D01*
G75*
G02*
X124600000Y-72650000I250000J0D01*
G01*
X125900000Y-72650000D01*
G75*
G02*
X126150000Y-72900000I0J-250000D01*
G01*
X126150000Y-73550000D01*
G75*
G02*
X125900000Y-73800000I-250000J0D01*
G01*
G37*
G36*
G01*
X125900000Y-70850000D02*
X124600000Y-70850000D01*
G75*
G02*
X124350000Y-70600000I0J250000D01*
G01*
X124350000Y-69950000D01*
G75*
G02*
X124600000Y-69700000I250000J0D01*
G01*
X125900000Y-69700000D01*
G75*
G02*
X126150000Y-69950000I0J-250000D01*
G01*
X126150000Y-70600000D01*
G75*
G02*
X125900000Y-70850000I-250000J0D01*
G01*
G37*
M02*
