M48
INCH,TZ
T1C0.0118
T2C0.0197
T3C0.0315
T4C0.0354
T5C0.0433
T6C0.0453
T7C0.0472
T8C0.0630
T9C0.1260
%
G90
G05
T1
X41339Y-20904
X41339Y-26772
X41339Y-32677
X41339Y-38583
X41339Y-44488
X41339Y-50394
X41339Y-56299
X41339Y-62205
X43209Y-19685
X44488Y-40354
X45571Y-15650
X45571Y-40354
X45571Y-42028
X46063Y-43602
X46161Y-52756
X46417Y-44094
X46457Y-54724
X46457Y-56693
X46512Y-42387
X46555Y-41831
X46569Y-41516
X46949Y-39272
X47146Y-20571
X47146Y-54528
X47244Y-51772
X47480Y-50295
X47539Y-42815
X47638Y-40650
X47835Y-46457
X47933Y-42815
X47933Y-44488
X48248Y-44488
X48524Y-45177
X48622Y-40650
X48888Y-41209
X48891Y-41556
X48907Y-41871
X48917Y-46260
X48917Y-47539
X49016Y-39665
X49311Y-53150
X49409Y-16142
X49508Y-39764
X49606Y-43898
X49803Y-53150
X49892Y-41368
X49902Y-41043
X50197Y-43898
X50197Y-47441
X50295Y-45374
X50295Y-46457
X50394Y-54429
X50492Y-48228
X50492Y-59154
X51280Y-40453
X51280Y-40768
X51378Y-43898
X51476Y-48228
X51575Y-47244
X52559Y-51181
X52559Y-52165
X53528Y-44101
X53543Y-28839
X53543Y-39862
X54134Y-38878
X54626Y-43209
T3
X47381Y-25591
X48759Y-25591
T4
X45306Y-58828
X45306Y-59812
X45306Y-60796
X47668Y-58828
X47668Y-59812
X47668Y-60796
T5
X46555Y-32087
X46555Y-33858
X49114Y-32087
X49114Y-33858
X51575Y-32087
X51575Y-33858
X54134Y-32087
X54134Y-33858
T6
X33465Y-20217
X33465Y-22185
X33465Y-26122
X33465Y-28091
X33465Y-32028
X33465Y-33996
X33465Y-37933
X33465Y-39902
X33465Y-43839
X33465Y-45807
X33465Y-49744
X33465Y-51713
X33465Y-55650
X33465Y-57618
X33465Y-61555
X33465Y-63524
X35433Y-20217
X35433Y-22185
X35433Y-26122
X35433Y-28091
X35433Y-32028
X35433Y-33996
X35433Y-37933
X35433Y-39902
X35433Y-43839
X35433Y-45807
X35433Y-49744
X35433Y-51713
X35433Y-55650
X35433Y-57618
X35433Y-61555
X35433Y-63524
X36220Y-13780
X36220Y-15748
X38189Y-13780
X38189Y-15748
X45413Y-64567
X45413Y-66535
X47382Y-64567
X47382Y-66535
T7
X40685Y-13583
X48685Y-13583
T8
X50650Y-13941
X50650Y-15941
X50650Y-17941
X50650Y-19941
T9
X33071Y-13386
X33071Y-67323
X53543Y-13386
X53543Y-67323
T2
G00X54685Y-54390
M15
G01X54409Y-54390
M16
G05
G00X54685Y-56988
M15
G01X54409Y-56988
M16
G05
M30
