G04 #@! TF.GenerationSoftware,KiCad,Pcbnew,8.0.8+1*
G04 #@! TF.CreationDate,2025-02-28T15:38:06+00:00*
G04 #@! TF.ProjectId,belegt,62656c65-6774-42e6-9b69-6361645f7063,rev?*
G04 #@! TF.SameCoordinates,Original*
G04 #@! TF.FileFunction,Copper,L4,Bot*
G04 #@! TF.FilePolarity,Positive*
%FSLAX46Y46*%
G04 Gerber Fmt 4.6, Leading zero omitted, Abs format (unit mm)*
G04 Created by KiCad (PCBNEW 8.0.8+1) date 2025-02-28 15:38:06*
%MOMM*%
%LPD*%
G01*
G04 APERTURE LIST*
G04 #@! TA.AperFunction,ComponentPad*
%ADD10R,3.000000X1.500000*%
G04 #@! TD*
G04 #@! TA.AperFunction,ComponentPad*
%ADD11O,3.000000X1.500000*%
G04 #@! TD*
G04 #@! TA.AperFunction,ComponentPad*
%ADD12C,2.000000*%
G04 #@! TD*
G04 #@! TA.AperFunction,ComponentPad*
%ADD13C,5.500000*%
G04 #@! TD*
G04 #@! TA.AperFunction,ComponentPad*
%ADD14R,1.500000X3.000000*%
G04 #@! TD*
G04 #@! TA.AperFunction,ComponentPad*
%ADD15O,1.500000X3.000000*%
G04 #@! TD*
G04 #@! TA.AperFunction,ComponentPad*
%ADD16R,1.600000X1.600000*%
G04 #@! TD*
G04 #@! TA.AperFunction,ComponentPad*
%ADD17C,1.600000*%
G04 #@! TD*
G04 #@! TA.AperFunction,HeatsinkPad*
%ADD18O,1.600000X0.900000*%
G04 #@! TD*
G04 #@! TA.AperFunction,ComponentPad*
%ADD19R,3.200000X3.200000*%
G04 #@! TD*
G04 #@! TA.AperFunction,ComponentPad*
%ADD20C,3.200000*%
G04 #@! TD*
G04 #@! TA.AperFunction,ComponentPad*
%ADD21C,2.400000*%
G04 #@! TD*
G04 #@! TA.AperFunction,ComponentPad*
%ADD22O,2.400000X2.400000*%
G04 #@! TD*
G04 #@! TA.AperFunction,ComponentPad*
%ADD23R,1.800000X1.800000*%
G04 #@! TD*
G04 #@! TA.AperFunction,ComponentPad*
%ADD24C,1.800000*%
G04 #@! TD*
G04 #@! TA.AperFunction,ViaPad*
%ADD25C,0.600000*%
G04 #@! TD*
G04 #@! TA.AperFunction,Conductor*
%ADD26C,1.000000*%
G04 #@! TD*
G04 #@! TA.AperFunction,Conductor*
%ADD27C,0.500000*%
G04 #@! TD*
G04 APERTURE END LIST*
D10*
X90000000Y-66350000D03*
X85000000Y-66350000D03*
D11*
X90000000Y-71350000D03*
X85000000Y-71350000D03*
D10*
X90000000Y-141350000D03*
X85000000Y-141350000D03*
D11*
X90000000Y-146350000D03*
X85000000Y-146350000D03*
D12*
X131000000Y-81500000D03*
X137500000Y-81500000D03*
X131000000Y-86000000D03*
X137500000Y-86000000D03*
X118250000Y-81500000D03*
X124750000Y-81500000D03*
X118250000Y-86000000D03*
X124750000Y-86000000D03*
D13*
X136000000Y-34000000D03*
D10*
X90000000Y-156350000D03*
X85000000Y-156350000D03*
D11*
X90000000Y-161350000D03*
X85000000Y-161350000D03*
D14*
X115350000Y-164000000D03*
X115350000Y-169000000D03*
D15*
X120350000Y-164000000D03*
X120350000Y-169000000D03*
D13*
X84000000Y-34000000D03*
D10*
X90000000Y-126350000D03*
X85000000Y-126350000D03*
D11*
X90000000Y-131350000D03*
X85000000Y-131350000D03*
D10*
X90000000Y-111350000D03*
X85000000Y-111350000D03*
D11*
X90000000Y-116350000D03*
X85000000Y-116350000D03*
D10*
X90000000Y-51350000D03*
X85000000Y-51350000D03*
D11*
X90000000Y-56350000D03*
X85000000Y-56350000D03*
D10*
X90000000Y-81350000D03*
X85000000Y-81350000D03*
D11*
X90000000Y-86350000D03*
X85000000Y-86350000D03*
D16*
X120347349Y-65000000D03*
D17*
X123847349Y-65000000D03*
D18*
X138550000Y-144750000D03*
X138550000Y-138150000D03*
D13*
X136000000Y-171000000D03*
X84000000Y-171000000D03*
D19*
X128650000Y-50650000D03*
D20*
X128650000Y-45570000D03*
X128650000Y-40490000D03*
X128650000Y-35410000D03*
D21*
X123660000Y-34500000D03*
D22*
X103340000Y-34500000D03*
D14*
X97000000Y-40000000D03*
X97000000Y-35000000D03*
D15*
X92000000Y-40000000D03*
X92000000Y-35000000D03*
D10*
X90000000Y-96350000D03*
X85000000Y-96350000D03*
D11*
X90000000Y-101350000D03*
X85000000Y-101350000D03*
D23*
X115077500Y-154422500D03*
D24*
X115077500Y-151922500D03*
X115077500Y-149422500D03*
X121077500Y-154422500D03*
X121077500Y-151922500D03*
X121077500Y-149422500D03*
D25*
X124250000Y-120750000D03*
X128250000Y-122500000D03*
X127500000Y-120500000D03*
X127750000Y-118000000D03*
X130500000Y-111500000D03*
X130750000Y-122500000D03*
X124250000Y-117500000D03*
X131000000Y-120000000D03*
X121500000Y-118000000D03*
X123250000Y-114750000D03*
X127750000Y-115250000D03*
X127500000Y-111500000D03*
X136000000Y-73250000D03*
X113000000Y-102500000D03*
X135962165Y-112017443D03*
X137500000Y-98750000D03*
X126000000Y-111500000D03*
X117250000Y-134000000D03*
X117000000Y-110750000D03*
X119250000Y-99750000D03*
X125750000Y-101000000D03*
X124500000Y-100750000D03*
X118000000Y-139000000D03*
X118000000Y-144000000D03*
X121000000Y-103250000D03*
X138750000Y-109750000D03*
X123500000Y-103250000D03*
X105000000Y-83000000D03*
X105000000Y-68000000D03*
X105000000Y-128000000D03*
X105000000Y-158000000D03*
X105000000Y-113000000D03*
X105000000Y-53095000D03*
X105000000Y-98000000D03*
X105000000Y-143000000D03*
X128000000Y-138250000D03*
X128250000Y-150250000D03*
X126725737Y-105074266D03*
X133500000Y-132500000D03*
X126750000Y-104250000D03*
X133500000Y-130000000D03*
X117900000Y-112000000D03*
X118139352Y-107662500D03*
X124175001Y-104670368D03*
X136000000Y-101250000D03*
X125500000Y-41000000D03*
X109750000Y-50000000D03*
X115750000Y-102500000D03*
X118285551Y-105450789D03*
X115750000Y-39750000D03*
X119750000Y-52250000D03*
X118250000Y-106250000D03*
X121750000Y-113000000D03*
X120000000Y-131500000D03*
X122550003Y-113000000D03*
X120600000Y-127750000D03*
X120750000Y-108750000D03*
X125250000Y-135000000D03*
X119750000Y-138500000D03*
X115750000Y-106750000D03*
X124224068Y-106351554D03*
X130250000Y-103550003D03*
X130250000Y-102750000D03*
X124184113Y-105552552D03*
X126500000Y-135000000D03*
X121750000Y-108750000D03*
D26*
X86250000Y-31750000D02*
X103500000Y-31750000D01*
X84000000Y-34000000D02*
X86250000Y-31750000D01*
D27*
X118000000Y-139000000D02*
X118000000Y-144000000D01*
D26*
X105000000Y-113000000D02*
X105000000Y-128000000D01*
X105000000Y-143000000D02*
X105000000Y-158000000D01*
X105000000Y-53095000D02*
X105000000Y-68000000D01*
X105000000Y-98000000D02*
X105000000Y-113000000D01*
X105000000Y-83000000D02*
X105000000Y-98000000D01*
X105000000Y-68000000D02*
X105000000Y-83000000D01*
X105000000Y-128000000D02*
X105000000Y-143000000D01*
X128650000Y-45570000D02*
X114410000Y-45570000D01*
X114410000Y-45570000D02*
X103340000Y-34500000D01*
G04 #@! TA.AperFunction,Conductor*
G36*
X139485148Y-30514852D02*
G01*
X139499500Y-30549500D01*
X139499500Y-137640548D01*
X139485148Y-137675196D01*
X139450500Y-137689548D01*
X139415852Y-137675196D01*
X139346539Y-137605883D01*
X139278074Y-137560137D01*
X139231811Y-137529225D01*
X139231808Y-137529223D01*
X139231807Y-137529223D01*
X139104329Y-137476420D01*
X139104318Y-137476417D01*
X138968998Y-137449500D01*
X138968993Y-137449500D01*
X138131007Y-137449500D01*
X138131001Y-137449500D01*
X137995681Y-137476417D01*
X137995670Y-137476420D01*
X137868192Y-137529223D01*
X137753460Y-137605883D01*
X137655883Y-137703460D01*
X137579223Y-137818192D01*
X137526420Y-137945670D01*
X137526417Y-137945681D01*
X137499500Y-138081001D01*
X137499500Y-138218998D01*
X137526417Y-138354318D01*
X137526420Y-138354329D01*
X137579223Y-138481807D01*
X137579225Y-138481811D01*
X137591379Y-138500000D01*
X137655883Y-138596539D01*
X137753460Y-138694116D01*
X137795752Y-138722374D01*
X137868189Y-138770775D01*
X137995672Y-138823580D01*
X137995678Y-138823581D01*
X137995681Y-138823582D01*
X138131001Y-138850499D01*
X138131007Y-138850500D01*
X138968993Y-138850500D01*
X139104328Y-138823580D01*
X139231811Y-138770775D01*
X139346542Y-138694114D01*
X139415852Y-138624804D01*
X139450500Y-138610452D01*
X139485148Y-138624804D01*
X139499500Y-138659452D01*
X139499500Y-144240548D01*
X139485148Y-144275196D01*
X139450500Y-144289548D01*
X139415852Y-144275196D01*
X139346539Y-144205883D01*
X139278074Y-144160137D01*
X139231811Y-144129225D01*
X139231808Y-144129223D01*
X139231807Y-144129223D01*
X139104329Y-144076420D01*
X139104318Y-144076417D01*
X138968998Y-144049500D01*
X138968993Y-144049500D01*
X138131007Y-144049500D01*
X138131001Y-144049500D01*
X137995681Y-144076417D01*
X137995670Y-144076420D01*
X137868192Y-144129223D01*
X137753460Y-144205883D01*
X137655883Y-144303460D01*
X137579223Y-144418192D01*
X137526420Y-144545670D01*
X137526417Y-144545681D01*
X137499500Y-144681001D01*
X137499500Y-144818998D01*
X137526417Y-144954318D01*
X137526420Y-144954328D01*
X137579225Y-145081811D01*
X137600500Y-145113651D01*
X137655883Y-145196539D01*
X137753460Y-145294116D01*
X137799102Y-145324613D01*
X137868189Y-145370775D01*
X137995672Y-145423580D01*
X137995678Y-145423581D01*
X137995681Y-145423582D01*
X138131001Y-145450499D01*
X138131007Y-145450500D01*
X138968993Y-145450500D01*
X139104328Y-145423580D01*
X139231811Y-145370775D01*
X139346542Y-145294114D01*
X139415852Y-145224804D01*
X139450500Y-145210452D01*
X139485148Y-145224804D01*
X139499500Y-145259452D01*
X139499500Y-174450500D01*
X139485148Y-174485148D01*
X139450500Y-174499500D01*
X80549500Y-174499500D01*
X80514852Y-174485148D01*
X80500500Y-174450500D01*
X80500500Y-167475322D01*
X114349500Y-167475322D01*
X114349500Y-170524677D01*
X114364033Y-170597739D01*
X114419398Y-170680601D01*
X114502260Y-170735966D01*
X114575326Y-170750500D01*
X116124674Y-170750500D01*
X116197740Y-170735966D01*
X116280601Y-170680601D01*
X116335966Y-170597740D01*
X116350500Y-170524674D01*
X116350500Y-168151455D01*
X119349500Y-168151455D01*
X119349500Y-169848544D01*
X119387947Y-170041827D01*
X119387949Y-170041835D01*
X119463368Y-170223914D01*
X119572861Y-170387782D01*
X119712218Y-170527139D01*
X119876086Y-170636632D01*
X120058165Y-170712051D01*
X120251459Y-170750500D01*
X120448541Y-170750500D01*
X120641835Y-170712051D01*
X120823914Y-170636632D01*
X120987782Y-170527139D01*
X121127139Y-170387782D01*
X121236632Y-170223914D01*
X121312051Y-170041835D01*
X121350500Y-169848541D01*
X121350500Y-168151459D01*
X121312051Y-167958165D01*
X121236632Y-167776086D01*
X121127139Y-167612218D01*
X120987782Y-167472861D01*
X120823914Y-167363368D01*
X120823911Y-167363366D01*
X120823910Y-167363366D01*
X120641836Y-167287949D01*
X120641827Y-167287947D01*
X120448544Y-167249500D01*
X120448541Y-167249500D01*
X120251459Y-167249500D01*
X120251455Y-167249500D01*
X120058172Y-167287947D01*
X120058163Y-167287949D01*
X119876089Y-167363366D01*
X119712218Y-167472860D01*
X119572860Y-167612218D01*
X119463366Y-167776089D01*
X119387949Y-167958163D01*
X119387947Y-167958172D01*
X119349500Y-168151455D01*
X116350500Y-168151455D01*
X116350500Y-167475326D01*
X116335966Y-167402260D01*
X116309980Y-167363368D01*
X116280601Y-167319398D01*
X116197739Y-167264033D01*
X116124677Y-167249500D01*
X116124674Y-167249500D01*
X114575326Y-167249500D01*
X114575322Y-167249500D01*
X114502260Y-167264033D01*
X114419398Y-167319398D01*
X114364033Y-167402260D01*
X114349500Y-167475322D01*
X80500500Y-167475322D01*
X80500500Y-166049000D01*
X80514852Y-166014352D01*
X80549500Y-166000000D01*
X101000000Y-166000000D01*
X101019438Y-162475322D01*
X114349500Y-162475322D01*
X114349500Y-165524677D01*
X114364033Y-165597739D01*
X114419398Y-165680601D01*
X114502260Y-165735966D01*
X114575326Y-165750500D01*
X116124674Y-165750500D01*
X116197740Y-165735966D01*
X116280601Y-165680601D01*
X116335966Y-165597740D01*
X116350500Y-165524674D01*
X116350500Y-163151455D01*
X119349500Y-163151455D01*
X119349500Y-164848544D01*
X119387947Y-165041827D01*
X119387949Y-165041835D01*
X119463368Y-165223914D01*
X119572861Y-165387782D01*
X119712218Y-165527139D01*
X119876086Y-165636632D01*
X120058165Y-165712051D01*
X120251459Y-165750500D01*
X120448541Y-165750500D01*
X120641835Y-165712051D01*
X120823914Y-165636632D01*
X120987782Y-165527139D01*
X121127139Y-165387782D01*
X121236632Y-165223914D01*
X121312051Y-165041835D01*
X121350500Y-164848541D01*
X121350500Y-163151459D01*
X121312051Y-162958165D01*
X121236632Y-162776086D01*
X121127139Y-162612218D01*
X120987782Y-162472861D01*
X120823914Y-162363368D01*
X120823911Y-162363366D01*
X120823910Y-162363366D01*
X120641836Y-162287949D01*
X120641827Y-162287947D01*
X120448544Y-162249500D01*
X120448541Y-162249500D01*
X120251459Y-162249500D01*
X120251455Y-162249500D01*
X120058172Y-162287947D01*
X120058163Y-162287949D01*
X119876089Y-162363366D01*
X119712218Y-162472860D01*
X119572860Y-162612218D01*
X119463366Y-162776089D01*
X119387949Y-162958163D01*
X119387947Y-162958172D01*
X119349500Y-163151455D01*
X116350500Y-163151455D01*
X116350500Y-162475326D01*
X116335966Y-162402260D01*
X116309980Y-162363368D01*
X116280601Y-162319398D01*
X116197739Y-162264033D01*
X116124677Y-162249500D01*
X116124674Y-162249500D01*
X114575326Y-162249500D01*
X114575322Y-162249500D01*
X114502260Y-162264033D01*
X114419398Y-162319398D01*
X114364033Y-162402260D01*
X114349500Y-162475322D01*
X101019438Y-162475322D01*
X101623046Y-53021078D01*
X104249500Y-53021078D01*
X104249500Y-158073921D01*
X104278340Y-158218906D01*
X104278342Y-158218915D01*
X104334914Y-158355491D01*
X104334916Y-158355495D01*
X104417049Y-158478416D01*
X104521584Y-158582951D01*
X104644505Y-158665084D01*
X104712796Y-158693371D01*
X104781084Y-158721657D01*
X104781085Y-158721657D01*
X104781087Y-158721658D01*
X104926082Y-158750500D01*
X105073918Y-158750500D01*
X105218913Y-158721658D01*
X105355495Y-158665084D01*
X105478416Y-158582951D01*
X105582951Y-158478416D01*
X105665084Y-158355495D01*
X105721658Y-158218913D01*
X105750500Y-158073918D01*
X105750500Y-153497822D01*
X113927000Y-153497822D01*
X113927000Y-155347177D01*
X113941533Y-155420239D01*
X113996898Y-155503101D01*
X114079760Y-155558466D01*
X114152826Y-155573000D01*
X116002174Y-155573000D01*
X116075240Y-155558466D01*
X116158101Y-155503101D01*
X116213466Y-155420240D01*
X116228000Y-155347174D01*
X116228000Y-154422500D01*
X119922071Y-154422500D01*
X119941743Y-154634806D01*
X119941744Y-154634812D01*
X120000093Y-154839884D01*
X120000097Y-154839894D01*
X120095132Y-155030752D01*
X120095135Y-155030756D01*
X120223625Y-155200904D01*
X120223628Y-155200907D01*
X120381193Y-155344548D01*
X120381194Y-155344549D01*
X120381198Y-155344552D01*
X120562481Y-155456798D01*
X120562484Y-155456799D01*
X120761296Y-155533819D01*
X120761297Y-155533819D01*
X120761302Y-155533821D01*
X120970890Y-155573000D01*
X120970892Y-155573000D01*
X121184108Y-155573000D01*
X121184110Y-155573000D01*
X121393698Y-155533821D01*
X121592519Y-155456798D01*
X121773802Y-155344552D01*
X121931372Y-155200907D01*
X122059866Y-155030755D01*
X122154905Y-154839889D01*
X122213256Y-154634810D01*
X122232929Y-154422500D01*
X122213256Y-154210190D01*
X122154905Y-154005111D01*
X122059866Y-153814245D01*
X121931372Y-153644093D01*
X121931371Y-153644092D01*
X121773806Y-153500451D01*
X121773803Y-153500449D01*
X121773802Y-153500448D01*
X121592519Y-153388202D01*
X121592516Y-153388201D01*
X121592515Y-153388200D01*
X121393703Y-153311180D01*
X121393698Y-153311179D01*
X121184110Y-153272000D01*
X120970890Y-153272000D01*
X120812736Y-153301564D01*
X120761296Y-153311180D01*
X120562484Y-153388200D01*
X120381193Y-153500451D01*
X120223628Y-153644092D01*
X120223625Y-153644095D01*
X120095135Y-153814243D01*
X120095132Y-153814247D01*
X120000097Y-154005105D01*
X120000093Y-154005115D01*
X119941744Y-154210187D01*
X119941743Y-154210193D01*
X119922071Y-154422500D01*
X116228000Y-154422500D01*
X116228000Y-153497826D01*
X116213466Y-153424760D01*
X116189038Y-153388200D01*
X116158101Y-153341898D01*
X116075239Y-153286533D01*
X116002177Y-153272000D01*
X116002174Y-153272000D01*
X114152826Y-153272000D01*
X114152822Y-153272000D01*
X114079760Y-153286533D01*
X113996898Y-153341898D01*
X113941533Y-153424760D01*
X113927000Y-153497822D01*
X105750500Y-153497822D01*
X105750500Y-151922500D01*
X113922071Y-151922500D01*
X113941743Y-152134806D01*
X113941744Y-152134812D01*
X114000093Y-152339884D01*
X114000097Y-152339894D01*
X114095132Y-152530752D01*
X114095135Y-152530756D01*
X114223625Y-152700904D01*
X114223628Y-152700907D01*
X114381193Y-152844548D01*
X114381194Y-152844549D01*
X114381198Y-152844552D01*
X114562481Y-152956798D01*
X114562484Y-152956799D01*
X114761296Y-153033819D01*
X114761297Y-153033819D01*
X114761302Y-153033821D01*
X114970890Y-153073000D01*
X114970892Y-153073000D01*
X115184108Y-153073000D01*
X115184110Y-153073000D01*
X115393698Y-153033821D01*
X115592519Y-152956798D01*
X115773802Y-152844552D01*
X115931372Y-152700907D01*
X116059866Y-152530755D01*
X116154905Y-152339889D01*
X116213256Y-152134810D01*
X116232929Y-151922500D01*
X119922071Y-151922500D01*
X119941743Y-152134806D01*
X119941744Y-152134812D01*
X120000093Y-152339884D01*
X120000097Y-152339894D01*
X120095132Y-152530752D01*
X120095135Y-152530756D01*
X120223625Y-152700904D01*
X120223628Y-152700907D01*
X120381193Y-152844548D01*
X120381194Y-152844549D01*
X120381198Y-152844552D01*
X120562481Y-152956798D01*
X120562484Y-152956799D01*
X120761296Y-153033819D01*
X120761297Y-153033819D01*
X120761302Y-153033821D01*
X120970890Y-153073000D01*
X120970892Y-153073000D01*
X121184108Y-153073000D01*
X121184110Y-153073000D01*
X121393698Y-153033821D01*
X121592519Y-152956798D01*
X121773802Y-152844552D01*
X121931372Y-152700907D01*
X122059866Y-152530755D01*
X122154905Y-152339889D01*
X122213256Y-152134810D01*
X122232929Y-151922500D01*
X122213256Y-151710190D01*
X122154905Y-151505111D01*
X122059866Y-151314245D01*
X121931372Y-151144093D01*
X121931371Y-151144092D01*
X121773806Y-151000451D01*
X121773803Y-151000449D01*
X121773802Y-151000448D01*
X121592519Y-150888202D01*
X121592516Y-150888201D01*
X121592515Y-150888200D01*
X121393703Y-150811180D01*
X121393698Y-150811179D01*
X121184110Y-150772000D01*
X120970890Y-150772000D01*
X120812736Y-150801564D01*
X120761296Y-150811180D01*
X120562484Y-150888200D01*
X120381193Y-151000451D01*
X120223628Y-151144092D01*
X120223625Y-151144095D01*
X120095135Y-151314243D01*
X120095132Y-151314247D01*
X120000097Y-151505105D01*
X120000093Y-151505115D01*
X119941744Y-151710187D01*
X119941743Y-151710193D01*
X119922071Y-151922500D01*
X116232929Y-151922500D01*
X116213256Y-151710190D01*
X116154905Y-151505111D01*
X116059866Y-151314245D01*
X115931372Y-151144093D01*
X115931371Y-151144092D01*
X115773806Y-151000451D01*
X115773803Y-151000449D01*
X115773802Y-151000448D01*
X115592519Y-150888202D01*
X115592516Y-150888201D01*
X115592515Y-150888200D01*
X115393703Y-150811180D01*
X115393698Y-150811179D01*
X115184110Y-150772000D01*
X114970890Y-150772000D01*
X114812736Y-150801564D01*
X114761296Y-150811180D01*
X114562484Y-150888200D01*
X114381193Y-151000451D01*
X114223628Y-151144092D01*
X114223625Y-151144095D01*
X114095135Y-151314243D01*
X114095132Y-151314247D01*
X114000097Y-151505105D01*
X114000093Y-151505115D01*
X113941744Y-151710187D01*
X113941743Y-151710193D01*
X113922071Y-151922500D01*
X105750500Y-151922500D01*
X105750500Y-149422500D01*
X113922071Y-149422500D01*
X113941743Y-149634806D01*
X113941744Y-149634812D01*
X114000093Y-149839884D01*
X114000097Y-149839894D01*
X114095132Y-150030752D01*
X114095135Y-150030756D01*
X114223625Y-150200904D01*
X114223628Y-150200907D01*
X114381193Y-150344548D01*
X114381194Y-150344549D01*
X114381198Y-150344552D01*
X114562481Y-150456798D01*
X114562484Y-150456799D01*
X114761296Y-150533819D01*
X114761297Y-150533819D01*
X114761302Y-150533821D01*
X114970890Y-150573000D01*
X114970892Y-150573000D01*
X115184108Y-150573000D01*
X115184110Y-150573000D01*
X115393698Y-150533821D01*
X115592519Y-150456798D01*
X115773802Y-150344552D01*
X115931372Y-150200907D01*
X116059866Y-150030755D01*
X116154905Y-149839889D01*
X116213256Y-149634810D01*
X116232929Y-149422500D01*
X119922071Y-149422500D01*
X119941743Y-149634806D01*
X119941744Y-149634812D01*
X120000093Y-149839884D01*
X120000097Y-149839894D01*
X120095132Y-150030752D01*
X120095135Y-150030756D01*
X120223625Y-150200904D01*
X120223628Y-150200907D01*
X120381193Y-150344548D01*
X120381194Y-150344549D01*
X120381198Y-150344552D01*
X120562481Y-150456798D01*
X120562484Y-150456799D01*
X120761296Y-150533819D01*
X120761297Y-150533819D01*
X120761302Y-150533821D01*
X120970890Y-150573000D01*
X120970892Y-150573000D01*
X121184108Y-150573000D01*
X121184110Y-150573000D01*
X121393698Y-150533821D01*
X121592519Y-150456798D01*
X121773802Y-150344552D01*
X121877520Y-150250000D01*
X127694750Y-150250000D01*
X127713669Y-150393708D01*
X127769136Y-150527620D01*
X127769139Y-150527625D01*
X127857379Y-150642621D01*
X127972375Y-150730861D01*
X127972377Y-150730861D01*
X127972379Y-150730863D01*
X128071695Y-150772000D01*
X128106291Y-150786330D01*
X128250000Y-150805250D01*
X128393709Y-150786330D01*
X128527625Y-150730861D01*
X128642621Y-150642621D01*
X128730861Y-150527625D01*
X128786330Y-150393709D01*
X128805250Y-150250000D01*
X128786330Y-150106291D01*
X128755043Y-150030756D01*
X128730863Y-149972379D01*
X128730860Y-149972374D01*
X128642621Y-149857379D01*
X128642620Y-149857378D01*
X128527625Y-149769139D01*
X128527620Y-149769136D01*
X128393708Y-149713669D01*
X128250000Y-149694750D01*
X128106291Y-149713669D01*
X127972379Y-149769136D01*
X127972374Y-149769139D01*
X127857379Y-149857378D01*
X127857378Y-149857379D01*
X127769139Y-149972374D01*
X127769136Y-149972379D01*
X127713669Y-150106291D01*
X127694750Y-150250000D01*
X121877520Y-150250000D01*
X121931372Y-150200907D01*
X122059866Y-150030755D01*
X122154905Y-149839889D01*
X122213256Y-149634810D01*
X122232929Y-149422500D01*
X122213256Y-149210190D01*
X122154905Y-149005111D01*
X122059866Y-148814245D01*
X121931372Y-148644093D01*
X121931371Y-148644092D01*
X121773806Y-148500451D01*
X121773803Y-148500449D01*
X121773802Y-148500448D01*
X121592519Y-148388202D01*
X121592516Y-148388201D01*
X121592515Y-148388200D01*
X121393703Y-148311180D01*
X121393698Y-148311179D01*
X121184110Y-148272000D01*
X120970890Y-148272000D01*
X120812736Y-148301564D01*
X120761296Y-148311180D01*
X120562484Y-148388200D01*
X120381193Y-148500451D01*
X120223628Y-148644092D01*
X120223625Y-148644095D01*
X120095135Y-148814243D01*
X120095132Y-148814247D01*
X120000097Y-149005105D01*
X120000093Y-149005115D01*
X119941744Y-149210187D01*
X119941743Y-149210193D01*
X119922071Y-149422500D01*
X116232929Y-149422500D01*
X116213256Y-149210190D01*
X116154905Y-149005111D01*
X116059866Y-148814245D01*
X115931372Y-148644093D01*
X115931371Y-148644092D01*
X115773806Y-148500451D01*
X115773803Y-148500449D01*
X115773802Y-148500448D01*
X115592519Y-148388202D01*
X115592516Y-148388201D01*
X115592515Y-148388200D01*
X115393703Y-148311180D01*
X115393698Y-148311179D01*
X115184110Y-148272000D01*
X114970890Y-148272000D01*
X114812736Y-148301564D01*
X114761296Y-148311180D01*
X114562484Y-148388200D01*
X114381193Y-148500451D01*
X114223628Y-148644092D01*
X114223625Y-148644095D01*
X114095135Y-148814243D01*
X114095132Y-148814247D01*
X114000097Y-149005105D01*
X114000093Y-149005115D01*
X113941744Y-149210187D01*
X113941743Y-149210193D01*
X113922071Y-149422500D01*
X105750500Y-149422500D01*
X105750500Y-142926082D01*
X105750500Y-139000000D01*
X117444750Y-139000000D01*
X117463669Y-139143706D01*
X117463669Y-139143708D01*
X117463670Y-139143709D01*
X117495770Y-139221207D01*
X117499500Y-139239956D01*
X117499500Y-143760042D01*
X117495770Y-143778793D01*
X117463669Y-143856291D01*
X117444750Y-144000000D01*
X117463669Y-144143708D01*
X117519136Y-144277620D01*
X117519139Y-144277625D01*
X117602565Y-144386348D01*
X117607379Y-144392621D01*
X117722375Y-144480861D01*
X117722377Y-144480861D01*
X117722379Y-144480863D01*
X117856291Y-144536330D01*
X118000000Y-144555250D01*
X118143709Y-144536330D01*
X118277625Y-144480861D01*
X118392621Y-144392621D01*
X118480861Y-144277625D01*
X118536330Y-144143709D01*
X118555250Y-144000000D01*
X118536330Y-143856291D01*
X118504230Y-143778793D01*
X118500500Y-143760042D01*
X118500500Y-139239956D01*
X118504229Y-139221207D01*
X118536330Y-139143709D01*
X118555250Y-139000000D01*
X118536330Y-138856291D01*
X118522781Y-138823580D01*
X118480863Y-138722379D01*
X118480860Y-138722374D01*
X118419662Y-138642620D01*
X118392621Y-138607379D01*
X118277625Y-138519139D01*
X118277620Y-138519136D01*
X118231421Y-138500000D01*
X119194750Y-138500000D01*
X119213669Y-138643708D01*
X119269136Y-138777620D01*
X119269139Y-138777625D01*
X119290336Y-138805250D01*
X119357379Y-138892621D01*
X119472375Y-138980861D01*
X119472377Y-138980861D01*
X119472379Y-138980863D01*
X119518581Y-139000000D01*
X119606291Y-139036330D01*
X119750000Y-139055250D01*
X119893709Y-139036330D01*
X120027625Y-138980861D01*
X120142621Y-138892621D01*
X120230861Y-138777625D01*
X120286330Y-138643709D01*
X120305250Y-138500000D01*
X120286330Y-138356291D01*
X120285513Y-138354318D01*
X120242304Y-138250000D01*
X127444750Y-138250000D01*
X127463669Y-138393708D01*
X127519136Y-138527620D01*
X127519139Y-138527625D01*
X127607379Y-138642621D01*
X127722375Y-138730861D01*
X127722377Y-138730861D01*
X127722379Y-138730863D01*
X127818737Y-138770775D01*
X127856291Y-138786330D01*
X128000000Y-138805250D01*
X128143709Y-138786330D01*
X128277625Y-138730861D01*
X128392621Y-138642621D01*
X128480861Y-138527625D01*
X128536330Y-138393709D01*
X128555250Y-138250000D01*
X128536330Y-138106291D01*
X128480861Y-137972375D01*
X128392621Y-137857379D01*
X128277625Y-137769139D01*
X128277620Y-137769136D01*
X128143708Y-137713669D01*
X128000000Y-137694750D01*
X127856291Y-137713669D01*
X127722379Y-137769136D01*
X127722374Y-137769139D01*
X127607379Y-137857378D01*
X127607378Y-137857379D01*
X127519139Y-137972374D01*
X127519136Y-137972379D01*
X127463669Y-138106291D01*
X127444750Y-138250000D01*
X120242304Y-138250000D01*
X120230863Y-138222379D01*
X120230860Y-138222374D01*
X120228269Y-138218998D01*
X120142621Y-138107379D01*
X120027625Y-138019139D01*
X120027620Y-138019136D01*
X119893708Y-137963669D01*
X119750000Y-137944750D01*
X119606291Y-137963669D01*
X119472379Y-138019136D01*
X119472374Y-138019139D01*
X119357379Y-138107378D01*
X119357378Y-138107379D01*
X119269139Y-138222374D01*
X119269136Y-138222379D01*
X119213669Y-138356291D01*
X119194750Y-138500000D01*
X118231421Y-138500000D01*
X118143708Y-138463669D01*
X118000000Y-138444750D01*
X117856291Y-138463669D01*
X117722379Y-138519136D01*
X117722374Y-138519139D01*
X117607379Y-138607378D01*
X117607378Y-138607379D01*
X117519139Y-138722374D01*
X117519136Y-138722379D01*
X117463669Y-138856291D01*
X117444750Y-139000000D01*
X105750500Y-139000000D01*
X105750500Y-135000000D01*
X124694750Y-135000000D01*
X124713669Y-135143708D01*
X124769136Y-135277620D01*
X124769139Y-135277625D01*
X124857379Y-135392621D01*
X124972375Y-135480861D01*
X124972377Y-135480861D01*
X124972379Y-135480863D01*
X125106291Y-135536330D01*
X125250000Y-135555250D01*
X125393709Y-135536330D01*
X125527625Y-135480861D01*
X125642621Y-135392621D01*
X125730861Y-135277625D01*
X125786330Y-135143709D01*
X125805250Y-135000000D01*
X125944750Y-135000000D01*
X125963669Y-135143708D01*
X126019136Y-135277620D01*
X126019139Y-135277625D01*
X126107379Y-135392621D01*
X126222375Y-135480861D01*
X126222377Y-135480861D01*
X126222379Y-135480863D01*
X126356291Y-135536330D01*
X126500000Y-135555250D01*
X126643709Y-135536330D01*
X126777625Y-135480861D01*
X126892621Y-135392621D01*
X126980861Y-135277625D01*
X127036330Y-135143709D01*
X127055250Y-135000000D01*
X127036330Y-134856291D01*
X126980861Y-134722375D01*
X126892621Y-134607379D01*
X126777625Y-134519139D01*
X126777620Y-134519136D01*
X126643708Y-134463669D01*
X126500000Y-134444750D01*
X126356291Y-134463669D01*
X126222379Y-134519136D01*
X126222374Y-134519139D01*
X126107379Y-134607378D01*
X126107378Y-134607379D01*
X126019139Y-134722374D01*
X126019136Y-134722379D01*
X125963669Y-134856291D01*
X125944750Y-135000000D01*
X125805250Y-135000000D01*
X125786330Y-134856291D01*
X125730861Y-134722375D01*
X125642621Y-134607379D01*
X125527625Y-134519139D01*
X125527620Y-134519136D01*
X125393708Y-134463669D01*
X125250000Y-134444750D01*
X125106291Y-134463669D01*
X124972379Y-134519136D01*
X124972374Y-134519139D01*
X124857379Y-134607378D01*
X124857378Y-134607379D01*
X124769139Y-134722374D01*
X124769136Y-134722379D01*
X124713669Y-134856291D01*
X124694750Y-135000000D01*
X105750500Y-135000000D01*
X105750500Y-134000000D01*
X116694750Y-134000000D01*
X116713669Y-134143708D01*
X116769136Y-134277620D01*
X116769139Y-134277625D01*
X116857379Y-134392621D01*
X116972375Y-134480861D01*
X116972377Y-134480861D01*
X116972379Y-134480863D01*
X117106291Y-134536330D01*
X117250000Y-134555250D01*
X117393709Y-134536330D01*
X117527625Y-134480861D01*
X117642621Y-134392621D01*
X117730861Y-134277625D01*
X117786330Y-134143709D01*
X117805250Y-134000000D01*
X117786330Y-133856291D01*
X117730861Y-133722375D01*
X117642621Y-133607379D01*
X117527625Y-133519139D01*
X117527620Y-133519136D01*
X117393708Y-133463669D01*
X117250000Y-133444750D01*
X117106291Y-133463669D01*
X116972379Y-133519136D01*
X116972374Y-133519139D01*
X116857379Y-133607378D01*
X116857378Y-133607379D01*
X116769139Y-133722374D01*
X116769136Y-133722379D01*
X116713669Y-133856291D01*
X116694750Y-134000000D01*
X105750500Y-134000000D01*
X105750500Y-132500000D01*
X132944750Y-132500000D01*
X132963669Y-132643708D01*
X133019136Y-132777620D01*
X133019139Y-132777625D01*
X133107379Y-132892621D01*
X133222375Y-132980861D01*
X133222377Y-132980861D01*
X133222379Y-132980863D01*
X133356291Y-133036330D01*
X133500000Y-133055250D01*
X133643709Y-133036330D01*
X133777625Y-132980861D01*
X133892621Y-132892621D01*
X133980861Y-132777625D01*
X134036330Y-132643709D01*
X134055250Y-132500000D01*
X134036330Y-132356291D01*
X134033931Y-132350500D01*
X133980863Y-132222379D01*
X133980860Y-132222374D01*
X133892621Y-132107379D01*
X133892620Y-132107378D01*
X133777625Y-132019139D01*
X133777620Y-132019136D01*
X133643708Y-131963669D01*
X133500000Y-131944750D01*
X133356291Y-131963669D01*
X133222379Y-132019136D01*
X133222374Y-132019139D01*
X133107379Y-132107378D01*
X133107378Y-132107379D01*
X133019139Y-132222374D01*
X133019136Y-132222379D01*
X132963669Y-132356291D01*
X132944750Y-132500000D01*
X105750500Y-132500000D01*
X105750500Y-131500000D01*
X119444750Y-131500000D01*
X119463669Y-131643708D01*
X119519136Y-131777620D01*
X119519139Y-131777625D01*
X119607379Y-131892621D01*
X119722375Y-131980861D01*
X119722377Y-131980861D01*
X119722379Y-131980863D01*
X119856291Y-132036330D01*
X120000000Y-132055250D01*
X120143709Y-132036330D01*
X120277625Y-131980861D01*
X120392621Y-131892621D01*
X120480861Y-131777625D01*
X120536330Y-131643709D01*
X120555250Y-131500000D01*
X120536330Y-131356291D01*
X120480861Y-131222375D01*
X120392621Y-131107379D01*
X120328484Y-131058165D01*
X120277625Y-131019139D01*
X120277620Y-131019136D01*
X120143708Y-130963669D01*
X120000000Y-130944750D01*
X119856291Y-130963669D01*
X119722379Y-131019136D01*
X119722374Y-131019139D01*
X119607379Y-131107378D01*
X119607378Y-131107379D01*
X119519139Y-131222374D01*
X119519136Y-131222379D01*
X119463669Y-131356291D01*
X119444750Y-131500000D01*
X105750500Y-131500000D01*
X105750500Y-130000000D01*
X132944750Y-130000000D01*
X132963669Y-130143708D01*
X133019136Y-130277620D01*
X133019139Y-130277625D01*
X133107379Y-130392621D01*
X133222375Y-130480861D01*
X133222377Y-130480861D01*
X133222379Y-130480863D01*
X133356291Y-130536330D01*
X133500000Y-130555250D01*
X133643709Y-130536330D01*
X133777625Y-130480861D01*
X133892621Y-130392621D01*
X133980861Y-130277625D01*
X134036330Y-130143709D01*
X134055250Y-130000000D01*
X134036330Y-129856291D01*
X133980861Y-129722375D01*
X133892621Y-129607379D01*
X133777625Y-129519139D01*
X133777620Y-129519136D01*
X133643708Y-129463669D01*
X133500000Y-129444750D01*
X133356291Y-129463669D01*
X133222379Y-129519136D01*
X133222374Y-129519139D01*
X133107379Y-129607378D01*
X133107378Y-129607379D01*
X133019139Y-129722374D01*
X133019136Y-129722379D01*
X132963669Y-129856291D01*
X132944750Y-130000000D01*
X105750500Y-130000000D01*
X105750500Y-127926082D01*
X105750500Y-127750000D01*
X120044750Y-127750000D01*
X120063669Y-127893708D01*
X120119136Y-128027620D01*
X120119139Y-128027625D01*
X120207379Y-128142621D01*
X120322375Y-128230861D01*
X120322377Y-128230861D01*
X120322379Y-128230863D01*
X120456291Y-128286330D01*
X120600000Y-128305250D01*
X120743709Y-128286330D01*
X120877625Y-128230861D01*
X120992621Y-128142621D01*
X121080861Y-128027625D01*
X121136330Y-127893709D01*
X121155250Y-127750000D01*
X121136330Y-127606291D01*
X121080861Y-127472375D01*
X120992621Y-127357379D01*
X120892562Y-127280601D01*
X120877625Y-127269139D01*
X120877620Y-127269136D01*
X120743708Y-127213669D01*
X120600000Y-127194750D01*
X120456291Y-127213669D01*
X120322379Y-127269136D01*
X120322374Y-127269139D01*
X120207379Y-127357378D01*
X120207378Y-127357379D01*
X120119139Y-127472374D01*
X120119136Y-127472379D01*
X120063669Y-127606291D01*
X120044750Y-127750000D01*
X105750500Y-127750000D01*
X105750500Y-113000000D01*
X121194750Y-113000000D01*
X121213669Y-113143708D01*
X121269136Y-113277620D01*
X121269139Y-113277625D01*
X121357379Y-113392621D01*
X121472375Y-113480861D01*
X121472377Y-113480861D01*
X121472379Y-113480863D01*
X121606291Y-113536330D01*
X121750000Y-113555250D01*
X121893709Y-113536330D01*
X122027625Y-113480861D01*
X122120174Y-113409845D01*
X122156396Y-113400139D01*
X122179829Y-113409845D01*
X122272378Y-113480861D01*
X122272380Y-113480861D01*
X122272382Y-113480863D01*
X122406294Y-113536330D01*
X122550003Y-113555250D01*
X122693712Y-113536330D01*
X122827628Y-113480861D01*
X122942624Y-113392621D01*
X123030864Y-113277625D01*
X123086333Y-113143709D01*
X123105253Y-113000000D01*
X123086333Y-112856291D01*
X123030866Y-112722379D01*
X123030863Y-112722374D01*
X122942624Y-112607379D01*
X122942623Y-112607378D01*
X122827628Y-112519139D01*
X122827623Y-112519136D01*
X122693711Y-112463669D01*
X122550003Y-112444750D01*
X122406294Y-112463669D01*
X122272382Y-112519136D01*
X122179829Y-112590154D01*
X122143604Y-112599860D01*
X122120173Y-112590154D01*
X122027625Y-112519139D01*
X122027621Y-112519137D01*
X122027620Y-112519136D01*
X121893708Y-112463669D01*
X121750000Y-112444750D01*
X121606291Y-112463669D01*
X121472379Y-112519136D01*
X121472374Y-112519139D01*
X121357379Y-112607378D01*
X121357378Y-112607379D01*
X121269139Y-112722374D01*
X121269136Y-112722379D01*
X121213669Y-112856291D01*
X121194750Y-113000000D01*
X105750500Y-113000000D01*
X105750500Y-112926082D01*
X105750500Y-112000000D01*
X117344750Y-112000000D01*
X117363669Y-112143708D01*
X117419136Y-112277620D01*
X117419139Y-112277625D01*
X117507379Y-112392621D01*
X117622375Y-112480861D01*
X117622377Y-112480861D01*
X117622379Y-112480863D01*
X117756291Y-112536330D01*
X117900000Y-112555250D01*
X118043709Y-112536330D01*
X118177625Y-112480861D01*
X118292621Y-112392621D01*
X118380861Y-112277625D01*
X118436330Y-112143709D01*
X118455250Y-112000000D01*
X118436330Y-111856291D01*
X118398691Y-111765420D01*
X118380863Y-111722379D01*
X118380860Y-111722374D01*
X118320160Y-111643269D01*
X118292621Y-111607379D01*
X118177625Y-111519139D01*
X118177620Y-111519136D01*
X118131421Y-111500000D01*
X125444750Y-111500000D01*
X125463669Y-111643708D01*
X125519136Y-111777620D01*
X125519139Y-111777625D01*
X125607379Y-111892621D01*
X125722375Y-111980861D01*
X125722377Y-111980861D01*
X125722379Y-111980863D01*
X125810688Y-112017441D01*
X125856291Y-112036330D01*
X126000000Y-112055250D01*
X126143709Y-112036330D01*
X126277625Y-111980861D01*
X126392621Y-111892621D01*
X126480861Y-111777625D01*
X126536330Y-111643709D01*
X126555250Y-111500000D01*
X126536330Y-111356291D01*
X126480863Y-111222379D01*
X126480860Y-111222374D01*
X126445913Y-111176831D01*
X131022050Y-111176831D01*
X131022050Y-111403168D01*
X131057457Y-111626718D01*
X131057458Y-111626721D01*
X131127400Y-111841982D01*
X131226155Y-112035800D01*
X131230155Y-112043650D01*
X131302851Y-112143708D01*
X131363194Y-112226762D01*
X131363198Y-112226767D01*
X131523233Y-112386802D01*
X131523237Y-112386805D01*
X131523239Y-112386807D01*
X131706350Y-112519845D01*
X131908019Y-112622600D01*
X132123279Y-112692542D01*
X132346831Y-112727950D01*
X132346832Y-112727950D01*
X132573168Y-112727950D01*
X132573169Y-112727950D01*
X132796721Y-112692542D01*
X133011981Y-112622600D01*
X133213650Y-112519845D01*
X133396761Y-112386807D01*
X133396764Y-112386803D01*
X133396767Y-112386802D01*
X133556802Y-112226767D01*
X133556803Y-112226764D01*
X133556807Y-112226761D01*
X133689845Y-112043650D01*
X133792600Y-111841981D01*
X133862542Y-111626721D01*
X133897950Y-111403169D01*
X133897950Y-111216545D01*
X134254200Y-111216545D01*
X134254200Y-111363455D01*
X134274134Y-111463670D01*
X134282860Y-111507542D01*
X134282860Y-111507543D01*
X134339078Y-111643265D01*
X134339080Y-111643269D01*
X134371991Y-111692525D01*
X134420696Y-111765417D01*
X134524582Y-111869303D01*
X134573176Y-111901772D01*
X134646731Y-111950920D01*
X134782458Y-112007140D01*
X134926545Y-112035800D01*
X134926548Y-112035800D01*
X135073452Y-112035800D01*
X135073455Y-112035800D01*
X135217542Y-112007140D01*
X135340862Y-111956059D01*
X135378364Y-111956059D01*
X135404883Y-111982578D01*
X135408194Y-112007723D01*
X135406915Y-112017441D01*
X135425834Y-112161151D01*
X135481301Y-112295063D01*
X135481304Y-112295068D01*
X135556158Y-112392620D01*
X135569544Y-112410064D01*
X135684540Y-112498304D01*
X135684542Y-112498304D01*
X135684544Y-112498306D01*
X135776344Y-112536330D01*
X135818456Y-112553773D01*
X135962165Y-112572693D01*
X136105874Y-112553773D01*
X136239790Y-112498304D01*
X136354786Y-112410064D01*
X136438742Y-112300649D01*
X136471219Y-112281899D01*
X136507444Y-112291606D01*
X136512263Y-112295832D01*
X136603233Y-112386802D01*
X136603237Y-112386805D01*
X136603239Y-112386807D01*
X136786350Y-112519845D01*
X136988019Y-112622600D01*
X137203279Y-112692542D01*
X137426831Y-112727950D01*
X137426832Y-112727950D01*
X137653168Y-112727950D01*
X137653169Y-112727950D01*
X137876721Y-112692542D01*
X138091981Y-112622600D01*
X138293650Y-112519845D01*
X138476761Y-112386807D01*
X138476764Y-112386803D01*
X138476767Y-112386802D01*
X138636802Y-112226767D01*
X138636803Y-112226764D01*
X138636807Y-112226761D01*
X138769845Y-112043650D01*
X138872600Y-111841981D01*
X138942542Y-111626721D01*
X138977950Y-111403169D01*
X138977950Y-111176831D01*
X138942542Y-110953279D01*
X138872600Y-110738019D01*
X138805482Y-110606291D01*
X138769848Y-110536355D01*
X138769846Y-110536352D01*
X138769845Y-110536350D01*
X138653316Y-110375962D01*
X138644562Y-110339498D01*
X138664157Y-110307521D01*
X138699354Y-110298582D01*
X138750000Y-110305250D01*
X138893709Y-110286330D01*
X139027625Y-110230861D01*
X139142621Y-110142621D01*
X139230861Y-110027625D01*
X139286330Y-109893709D01*
X139305250Y-109750000D01*
X139286330Y-109606291D01*
X139230861Y-109472375D01*
X139142621Y-109357379D01*
X139126286Y-109344845D01*
X139027625Y-109269139D01*
X139027620Y-109269136D01*
X138893708Y-109213669D01*
X138750000Y-109194750D01*
X138606286Y-109213670D01*
X138603444Y-109214432D01*
X138566262Y-109209537D01*
X138543432Y-109179784D01*
X138548327Y-109142602D01*
X138556114Y-109132454D01*
X138636802Y-109051766D01*
X138636807Y-109051761D01*
X138769845Y-108868650D01*
X138872600Y-108666981D01*
X138942542Y-108451721D01*
X138977950Y-108228169D01*
X138977950Y-108001831D01*
X138942542Y-107778279D01*
X138872600Y-107563019D01*
X138769845Y-107361350D01*
X138636807Y-107178239D01*
X138636805Y-107178237D01*
X138636802Y-107178233D01*
X138476767Y-107018198D01*
X138476762Y-107018194D01*
X138305423Y-106893709D01*
X138293650Y-106885155D01*
X138293649Y-106885154D01*
X138293647Y-106885153D01*
X138091982Y-106782400D01*
X137876721Y-106712458D01*
X137876718Y-106712457D01*
X137704992Y-106685258D01*
X137653169Y-106677050D01*
X137426831Y-106677050D01*
X137384760Y-106683713D01*
X137203281Y-106712457D01*
X137203278Y-106712458D01*
X136988017Y-106782400D01*
X136786352Y-106885153D01*
X136603237Y-107018194D01*
X136443194Y-107178237D01*
X136310153Y-107361352D01*
X136207400Y-107563017D01*
X136137458Y-107778278D01*
X136137457Y-107778281D01*
X136102050Y-108001831D01*
X136102050Y-108228168D01*
X136137457Y-108451718D01*
X136137458Y-108451721D01*
X136207400Y-108666982D01*
X136249700Y-108750000D01*
X136310155Y-108868650D01*
X136430718Y-109034591D01*
X136443194Y-109051762D01*
X136443198Y-109051767D01*
X136603233Y-109211802D01*
X136603237Y-109211805D01*
X136603239Y-109211807D01*
X136786350Y-109344845D01*
X136988019Y-109447600D01*
X137203279Y-109517542D01*
X137426831Y-109552950D01*
X137426832Y-109552950D01*
X137653168Y-109552950D01*
X137653169Y-109552950D01*
X137876721Y-109517542D01*
X138091981Y-109447600D01*
X138221137Y-109381791D01*
X138258524Y-109378849D01*
X138287041Y-109403205D01*
X138289984Y-109440593D01*
X138282257Y-109455280D01*
X138269136Y-109472379D01*
X138213669Y-109606291D01*
X138194750Y-109750000D01*
X138213669Y-109893706D01*
X138213669Y-109893708D01*
X138213670Y-109893709D01*
X138228834Y-109930318D01*
X138228834Y-109967820D01*
X138202316Y-109994339D01*
X138164813Y-109994339D01*
X138161319Y-109992729D01*
X138091977Y-109957398D01*
X137876721Y-109887458D01*
X137876718Y-109887457D01*
X137704992Y-109860258D01*
X137653169Y-109852050D01*
X137426831Y-109852050D01*
X137384760Y-109858713D01*
X137203281Y-109887457D01*
X137203278Y-109887458D01*
X136988017Y-109957400D01*
X136786352Y-110060153D01*
X136603237Y-110193194D01*
X136443194Y-110353237D01*
X136310153Y-110536352D01*
X136207400Y-110738017D01*
X136137458Y-110953278D01*
X136137457Y-110953281D01*
X136102050Y-111176831D01*
X136102050Y-111403169D01*
X136104311Y-111417448D01*
X136095555Y-111453915D01*
X136063578Y-111473509D01*
X136049518Y-111473693D01*
X135962165Y-111462193D01*
X135818456Y-111481112D01*
X135798465Y-111489393D01*
X135760962Y-111489393D01*
X135734444Y-111462874D01*
X135731656Y-111434564D01*
X135745799Y-111363460D01*
X135745800Y-111363453D01*
X135745800Y-111216548D01*
X135745800Y-111216545D01*
X135717140Y-111072458D01*
X135660920Y-110936731D01*
X135611772Y-110863176D01*
X135579303Y-110814582D01*
X135475417Y-110710696D01*
X135402525Y-110661991D01*
X135353269Y-110629080D01*
X135353266Y-110629078D01*
X135353265Y-110629078D01*
X135217542Y-110572860D01*
X135073455Y-110544200D01*
X134926545Y-110544200D01*
X134818479Y-110565695D01*
X134782457Y-110572860D01*
X134782456Y-110572860D01*
X134646734Y-110629078D01*
X134524582Y-110710696D01*
X134420696Y-110814582D01*
X134339078Y-110936734D01*
X134282860Y-111072456D01*
X134282860Y-111072457D01*
X134282860Y-111072458D01*
X134254200Y-111216545D01*
X133897950Y-111216545D01*
X133897950Y-111176831D01*
X133862542Y-110953279D01*
X133792600Y-110738019D01*
X133689845Y-110536350D01*
X133556807Y-110353239D01*
X133556805Y-110353237D01*
X133556802Y-110353233D01*
X133396767Y-110193198D01*
X133396762Y-110193194D01*
X133327154Y-110142621D01*
X133213650Y-110060155D01*
X133213649Y-110060154D01*
X133213647Y-110060153D01*
X133011982Y-109957400D01*
X132796721Y-109887458D01*
X132796718Y-109887457D01*
X132624992Y-109860258D01*
X132573169Y-109852050D01*
X132346831Y-109852050D01*
X132304760Y-109858713D01*
X132123281Y-109887457D01*
X132123278Y-109887458D01*
X131908017Y-109957400D01*
X131706352Y-110060153D01*
X131523237Y-110193194D01*
X131363194Y-110353237D01*
X131230153Y-110536352D01*
X131127400Y-110738017D01*
X131057458Y-110953278D01*
X131057457Y-110953281D01*
X131022050Y-111176831D01*
X126445913Y-111176831D01*
X126419662Y-111142620D01*
X126392621Y-111107379D01*
X126277625Y-111019139D01*
X126277620Y-111019136D01*
X126143708Y-110963669D01*
X126000000Y-110944750D01*
X125856291Y-110963669D01*
X125722379Y-111019136D01*
X125722374Y-111019139D01*
X125607379Y-111107378D01*
X125607378Y-111107379D01*
X125519139Y-111222374D01*
X125519136Y-111222379D01*
X125463669Y-111356291D01*
X125444750Y-111500000D01*
X118131421Y-111500000D01*
X118043708Y-111463669D01*
X117900000Y-111444750D01*
X117756291Y-111463669D01*
X117622379Y-111519136D01*
X117622374Y-111519139D01*
X117507379Y-111607378D01*
X117507378Y-111607379D01*
X117419139Y-111722374D01*
X117419136Y-111722379D01*
X117363669Y-111856291D01*
X117344750Y-112000000D01*
X105750500Y-112000000D01*
X105750500Y-110750000D01*
X116444750Y-110750000D01*
X116463669Y-110893708D01*
X116519136Y-111027620D01*
X116519139Y-111027625D01*
X116607379Y-111142621D01*
X116722375Y-111230861D01*
X116722377Y-111230861D01*
X116722379Y-111230863D01*
X116856291Y-111286330D01*
X117000000Y-111305250D01*
X117143709Y-111286330D01*
X117277625Y-111230861D01*
X117392621Y-111142621D01*
X117480861Y-111027625D01*
X117536330Y-110893709D01*
X117555250Y-110750000D01*
X117536330Y-110606291D01*
X117522483Y-110572860D01*
X117480863Y-110472379D01*
X117480860Y-110472374D01*
X117392621Y-110357379D01*
X117392620Y-110357378D01*
X117277625Y-110269139D01*
X117277620Y-110269136D01*
X117143708Y-110213669D01*
X117000000Y-110194750D01*
X116856291Y-110213669D01*
X116722379Y-110269136D01*
X116722374Y-110269139D01*
X116607379Y-110357378D01*
X116607378Y-110357379D01*
X116519139Y-110472374D01*
X116519136Y-110472379D01*
X116463669Y-110606291D01*
X116444750Y-110750000D01*
X105750500Y-110750000D01*
X105750500Y-108750000D01*
X120194750Y-108750000D01*
X120213669Y-108893708D01*
X120269136Y-109027620D01*
X120269139Y-109027625D01*
X120349577Y-109132454D01*
X120357379Y-109142621D01*
X120472375Y-109230861D01*
X120472377Y-109230861D01*
X120472379Y-109230863D01*
X120606291Y-109286330D01*
X120750000Y-109305250D01*
X120893709Y-109286330D01*
X121027625Y-109230861D01*
X121142621Y-109142621D01*
X121211127Y-109053342D01*
X121243604Y-109034591D01*
X121279829Y-109044298D01*
X121288870Y-109053339D01*
X121341644Y-109122115D01*
X121349577Y-109132454D01*
X121357379Y-109142621D01*
X121472375Y-109230861D01*
X121472377Y-109230861D01*
X121472379Y-109230863D01*
X121606291Y-109286330D01*
X121750000Y-109305250D01*
X121893709Y-109286330D01*
X122027625Y-109230861D01*
X122142621Y-109142621D01*
X122230861Y-109027625D01*
X122286330Y-108893709D01*
X122305250Y-108750000D01*
X122286330Y-108606291D01*
X122230861Y-108472375D01*
X122142621Y-108357379D01*
X122027625Y-108269139D01*
X122027620Y-108269136D01*
X121893708Y-108213669D01*
X121750000Y-108194750D01*
X121606291Y-108213669D01*
X121472379Y-108269136D01*
X121472374Y-108269139D01*
X121357379Y-108357378D01*
X121357378Y-108357379D01*
X121288874Y-108446656D01*
X121256396Y-108465408D01*
X121220171Y-108455701D01*
X121211126Y-108446656D01*
X121142621Y-108357379D01*
X121142620Y-108357378D01*
X121027625Y-108269139D01*
X121027620Y-108269136D01*
X120893708Y-108213669D01*
X120750000Y-108194750D01*
X120606291Y-108213669D01*
X120472379Y-108269136D01*
X120472374Y-108269139D01*
X120357379Y-108357378D01*
X120357378Y-108357379D01*
X120269139Y-108472374D01*
X120269136Y-108472379D01*
X120213669Y-108606291D01*
X120194750Y-108750000D01*
X105750500Y-108750000D01*
X105750500Y-107662500D01*
X117584102Y-107662500D01*
X117603021Y-107806208D01*
X117658488Y-107940120D01*
X117658491Y-107940125D01*
X117746731Y-108055121D01*
X117861727Y-108143361D01*
X117861729Y-108143361D01*
X117861731Y-108143363D01*
X117985793Y-108194750D01*
X117995643Y-108198830D01*
X118139352Y-108217750D01*
X118283061Y-108198830D01*
X118416977Y-108143361D01*
X118531973Y-108055121D01*
X118572864Y-108001831D01*
X131022050Y-108001831D01*
X131022050Y-108228168D01*
X131057457Y-108451718D01*
X131057458Y-108451721D01*
X131127400Y-108666982D01*
X131169700Y-108750000D01*
X131230155Y-108868650D01*
X131350718Y-109034591D01*
X131363194Y-109051762D01*
X131363198Y-109051767D01*
X131523233Y-109211802D01*
X131523237Y-109211805D01*
X131523239Y-109211807D01*
X131706350Y-109344845D01*
X131908019Y-109447600D01*
X132123279Y-109517542D01*
X132346831Y-109552950D01*
X132346832Y-109552950D01*
X132573168Y-109552950D01*
X132573169Y-109552950D01*
X132796721Y-109517542D01*
X133011981Y-109447600D01*
X133213650Y-109344845D01*
X133396761Y-109211807D01*
X133396764Y-109211803D01*
X133396767Y-109211802D01*
X133556802Y-109051767D01*
X133556803Y-109051764D01*
X133556807Y-109051761D01*
X133689845Y-108868650D01*
X133792600Y-108666981D01*
X133862542Y-108451721D01*
X133897950Y-108228169D01*
X133897950Y-108001831D01*
X133862542Y-107778279D01*
X133792600Y-107563019D01*
X133689845Y-107361350D01*
X133556807Y-107178239D01*
X133556805Y-107178237D01*
X133556802Y-107178233D01*
X133396767Y-107018198D01*
X133396762Y-107018194D01*
X133225423Y-106893709D01*
X133213650Y-106885155D01*
X133213649Y-106885154D01*
X133213647Y-106885153D01*
X133011982Y-106782400D01*
X132796721Y-106712458D01*
X132796718Y-106712457D01*
X132624992Y-106685258D01*
X132573169Y-106677050D01*
X132346831Y-106677050D01*
X132304760Y-106683713D01*
X132123281Y-106712457D01*
X132123278Y-106712458D01*
X131908017Y-106782400D01*
X131706352Y-106885153D01*
X131523237Y-107018194D01*
X131363194Y-107178237D01*
X131230153Y-107361352D01*
X131127400Y-107563017D01*
X131057458Y-107778278D01*
X131057457Y-107778281D01*
X131022050Y-108001831D01*
X118572864Y-108001831D01*
X118620213Y-107940125D01*
X118675682Y-107806209D01*
X118694602Y-107662500D01*
X118675682Y-107518791D01*
X118620213Y-107384875D01*
X118531973Y-107269879D01*
X118416977Y-107181639D01*
X118416972Y-107181636D01*
X118283060Y-107126169D01*
X118139352Y-107107250D01*
X117995643Y-107126169D01*
X117861731Y-107181636D01*
X117861726Y-107181639D01*
X117746731Y-107269878D01*
X117746730Y-107269879D01*
X117658491Y-107384874D01*
X117658488Y-107384879D01*
X117603021Y-107518791D01*
X117584102Y-107662500D01*
X105750500Y-107662500D01*
X105750500Y-106750000D01*
X115194750Y-106750000D01*
X115213669Y-106893708D01*
X115269136Y-107027620D01*
X115269139Y-107027625D01*
X115344755Y-107126170D01*
X115357379Y-107142621D01*
X115472375Y-107230861D01*
X115472377Y-107230861D01*
X115472379Y-107230863D01*
X115566572Y-107269878D01*
X115606291Y-107286330D01*
X115750000Y-107305250D01*
X115893709Y-107286330D01*
X116027625Y-107230861D01*
X116142621Y-107142621D01*
X116230861Y-107027625D01*
X116286330Y-106893709D01*
X116305250Y-106750000D01*
X116286330Y-106606291D01*
X116253744Y-106527620D01*
X116230863Y-106472379D01*
X116230860Y-106472374D01*
X116142621Y-106357379D01*
X116142620Y-106357378D01*
X116027625Y-106269139D01*
X116027620Y-106269136D01*
X115981421Y-106250000D01*
X117694750Y-106250000D01*
X117713669Y-106393708D01*
X117769136Y-106527620D01*
X117769139Y-106527625D01*
X117847064Y-106629179D01*
X117857379Y-106642621D01*
X117972375Y-106730861D01*
X117972377Y-106730861D01*
X117972379Y-106730863D01*
X118004518Y-106744175D01*
X118106291Y-106786330D01*
X118250000Y-106805250D01*
X118393709Y-106786330D01*
X118527625Y-106730861D01*
X118642621Y-106642621D01*
X118730861Y-106527625D01*
X118786330Y-106393709D01*
X118805250Y-106250000D01*
X118786330Y-106106291D01*
X118730863Y-105972379D01*
X118730860Y-105972374D01*
X118720546Y-105958933D01*
X118677926Y-105903389D01*
X118668219Y-105867164D01*
X118677926Y-105843731D01*
X118713477Y-105797400D01*
X118766412Y-105728414D01*
X118821881Y-105594498D01*
X118840801Y-105450789D01*
X118821881Y-105307080D01*
X118766412Y-105173164D01*
X118678172Y-105058168D01*
X118563176Y-104969928D01*
X118563171Y-104969925D01*
X118429259Y-104914458D01*
X118285551Y-104895539D01*
X118141842Y-104914458D01*
X118007930Y-104969925D01*
X118007925Y-104969928D01*
X117892930Y-105058167D01*
X117892929Y-105058168D01*
X117804690Y-105173163D01*
X117804687Y-105173168D01*
X117749220Y-105307080D01*
X117730301Y-105450789D01*
X117749220Y-105594497D01*
X117804687Y-105728408D01*
X117804688Y-105728409D01*
X117804690Y-105728414D01*
X117857625Y-105797400D01*
X117867332Y-105833625D01*
X117857625Y-105857058D01*
X117769139Y-105972374D01*
X117769136Y-105972379D01*
X117713669Y-106106291D01*
X117694750Y-106250000D01*
X115981421Y-106250000D01*
X115893708Y-106213669D01*
X115750000Y-106194750D01*
X115606291Y-106213669D01*
X115472379Y-106269136D01*
X115472374Y-106269139D01*
X115357379Y-106357378D01*
X115357378Y-106357379D01*
X115269139Y-106472374D01*
X115269136Y-106472379D01*
X115213669Y-106606291D01*
X115194750Y-106750000D01*
X105750500Y-106750000D01*
X105750500Y-104670368D01*
X123619751Y-104670368D01*
X123638670Y-104814076D01*
X123694137Y-104947988D01*
X123694140Y-104947993D01*
X123782377Y-105062986D01*
X123782378Y-105062987D01*
X123782380Y-105062989D01*
X123799443Y-105076081D01*
X123818194Y-105108559D01*
X123808488Y-105144784D01*
X123799444Y-105153828D01*
X123791492Y-105159929D01*
X123703252Y-105274926D01*
X123703249Y-105274931D01*
X123647782Y-105408843D01*
X123628863Y-105552552D01*
X123647782Y-105696260D01*
X123703249Y-105830172D01*
X123703252Y-105830177D01*
X123793447Y-105947721D01*
X123791962Y-105948860D01*
X123804040Y-105978017D01*
X123793914Y-106007846D01*
X123743210Y-106073925D01*
X123743204Y-106073934D01*
X123687737Y-106207845D01*
X123668818Y-106351554D01*
X123687737Y-106495262D01*
X123743204Y-106629174D01*
X123743207Y-106629179D01*
X123807109Y-106712458D01*
X123831447Y-106744175D01*
X123946443Y-106832415D01*
X123946445Y-106832415D01*
X123946447Y-106832417D01*
X124080359Y-106887884D01*
X124224068Y-106906804D01*
X124367777Y-106887884D01*
X124501693Y-106832415D01*
X124616689Y-106744175D01*
X124704929Y-106629179D01*
X124760398Y-106495263D01*
X124779318Y-106351554D01*
X124760398Y-106207845D01*
X124730865Y-106136545D01*
X133238200Y-106136545D01*
X133238200Y-106283455D01*
X133266860Y-106427542D01*
X133266860Y-106427543D01*
X133323078Y-106563265D01*
X133323080Y-106563269D01*
X133355991Y-106612525D01*
X133404696Y-106685417D01*
X133508582Y-106789303D01*
X133532449Y-106805250D01*
X133630731Y-106870920D01*
X133766458Y-106927140D01*
X133910545Y-106955800D01*
X133910548Y-106955800D01*
X134057452Y-106955800D01*
X134057455Y-106955800D01*
X134201542Y-106927140D01*
X134337269Y-106870920D01*
X134459420Y-106789301D01*
X134563301Y-106685420D01*
X134644920Y-106563269D01*
X134701140Y-106427542D01*
X134729800Y-106283455D01*
X134729800Y-106136545D01*
X135270200Y-106136545D01*
X135270200Y-106283455D01*
X135298860Y-106427542D01*
X135298860Y-106427543D01*
X135355078Y-106563265D01*
X135355080Y-106563269D01*
X135387991Y-106612525D01*
X135436696Y-106685417D01*
X135540582Y-106789303D01*
X135564449Y-106805250D01*
X135662731Y-106870920D01*
X135798458Y-106927140D01*
X135942545Y-106955800D01*
X135942548Y-106955800D01*
X136089452Y-106955800D01*
X136089455Y-106955800D01*
X136233542Y-106927140D01*
X136369269Y-106870920D01*
X136491420Y-106789301D01*
X136595301Y-106685420D01*
X136676920Y-106563269D01*
X136733140Y-106427542D01*
X136761800Y-106283455D01*
X136761800Y-106136545D01*
X136733140Y-105992458D01*
X136676920Y-105856731D01*
X136627772Y-105783176D01*
X136595303Y-105734582D01*
X136491417Y-105630696D01*
X136418525Y-105581991D01*
X136369269Y-105549080D01*
X136369266Y-105549078D01*
X136369265Y-105549078D01*
X136233542Y-105492860D01*
X136089455Y-105464200D01*
X135942545Y-105464200D01*
X135834479Y-105485695D01*
X135798457Y-105492860D01*
X135798456Y-105492860D01*
X135662734Y-105549078D01*
X135540582Y-105630696D01*
X135436696Y-105734582D01*
X135355078Y-105856734D01*
X135298860Y-105992456D01*
X135298860Y-105992457D01*
X135298860Y-105992458D01*
X135270200Y-106136545D01*
X134729800Y-106136545D01*
X134701140Y-105992458D01*
X134644920Y-105856731D01*
X134595772Y-105783176D01*
X134563303Y-105734582D01*
X134459417Y-105630696D01*
X134386525Y-105581991D01*
X134337269Y-105549080D01*
X134337266Y-105549078D01*
X134337265Y-105549078D01*
X134201542Y-105492860D01*
X134057455Y-105464200D01*
X133910545Y-105464200D01*
X133802479Y-105485695D01*
X133766457Y-105492860D01*
X133766456Y-105492860D01*
X133630734Y-105549078D01*
X133508582Y-105630696D01*
X133404696Y-105734582D01*
X133323078Y-105856734D01*
X133266860Y-105992456D01*
X133266860Y-105992457D01*
X133266860Y-105992458D01*
X133238200Y-106136545D01*
X124730865Y-106136545D01*
X124704929Y-106073929D01*
X124627007Y-105972379D01*
X124614734Y-105956385D01*
X124616218Y-105955246D01*
X124604140Y-105926088D01*
X124614264Y-105896261D01*
X124664974Y-105830177D01*
X124678551Y-105797400D01*
X124720443Y-105696260D01*
X124739363Y-105552552D01*
X124720443Y-105408843D01*
X124664974Y-105274927D01*
X124576734Y-105159931D01*
X124576731Y-105159929D01*
X124559671Y-105146838D01*
X124540919Y-105114360D01*
X124550626Y-105078135D01*
X124554494Y-105074266D01*
X126170487Y-105074266D01*
X126189406Y-105217974D01*
X126244873Y-105351886D01*
X126244876Y-105351891D01*
X126320763Y-105450789D01*
X126333116Y-105466887D01*
X126448112Y-105555127D01*
X126448114Y-105555127D01*
X126448116Y-105555129D01*
X126543161Y-105594497D01*
X126582028Y-105610596D01*
X126725737Y-105629516D01*
X126869446Y-105610596D01*
X127003362Y-105555127D01*
X127118358Y-105466887D01*
X127206598Y-105351891D01*
X127262067Y-105217975D01*
X127280987Y-105074266D01*
X127262067Y-104930557D01*
X127206598Y-104796641D01*
X127138107Y-104707383D01*
X127128401Y-104671159D01*
X127141069Y-104645478D01*
X127140666Y-104645169D01*
X127142222Y-104643141D01*
X127142341Y-104642900D01*
X127142612Y-104642627D01*
X127142621Y-104642621D01*
X127230861Y-104527625D01*
X127286330Y-104393709D01*
X127305250Y-104250000D01*
X127286330Y-104106291D01*
X127278063Y-104086333D01*
X127230863Y-103972379D01*
X127230860Y-103972374D01*
X127142621Y-103857379D01*
X127142620Y-103857378D01*
X127027625Y-103769139D01*
X127027620Y-103769136D01*
X126893708Y-103713669D01*
X126750000Y-103694750D01*
X126606291Y-103713669D01*
X126472379Y-103769136D01*
X126472374Y-103769139D01*
X126357379Y-103857378D01*
X126357378Y-103857379D01*
X126269139Y-103972374D01*
X126269136Y-103972379D01*
X126213669Y-104106291D01*
X126194750Y-104250000D01*
X126213669Y-104393708D01*
X126269136Y-104527620D01*
X126269139Y-104527625D01*
X126337628Y-104616881D01*
X126347335Y-104653106D01*
X126334671Y-104678790D01*
X126335071Y-104679097D01*
X126333530Y-104681104D01*
X126333409Y-104681351D01*
X126333118Y-104681641D01*
X126244876Y-104796640D01*
X126244873Y-104796645D01*
X126189406Y-104930557D01*
X126170487Y-105074266D01*
X124554494Y-105074266D01*
X124559666Y-105069093D01*
X124567622Y-105062989D01*
X124655862Y-104947993D01*
X124711331Y-104814077D01*
X124730251Y-104670368D01*
X124711331Y-104526659D01*
X124655862Y-104392743D01*
X124567622Y-104277747D01*
X124452626Y-104189507D01*
X124452621Y-104189504D01*
X124318709Y-104134037D01*
X124175001Y-104115118D01*
X124031292Y-104134037D01*
X123897380Y-104189504D01*
X123897375Y-104189507D01*
X123782380Y-104277746D01*
X123782379Y-104277747D01*
X123694140Y-104392742D01*
X123694137Y-104392747D01*
X123638670Y-104526659D01*
X123619751Y-104670368D01*
X105750500Y-104670368D01*
X105750500Y-103250000D01*
X120444750Y-103250000D01*
X120463669Y-103393708D01*
X120519136Y-103527620D01*
X120519139Y-103527625D01*
X120607379Y-103642621D01*
X120722375Y-103730861D01*
X120722377Y-103730861D01*
X120722379Y-103730863D01*
X120856291Y-103786330D01*
X121000000Y-103805250D01*
X121143709Y-103786330D01*
X121277625Y-103730861D01*
X121392621Y-103642621D01*
X121480861Y-103527625D01*
X121536330Y-103393709D01*
X121555250Y-103250000D01*
X122944750Y-103250000D01*
X122963669Y-103393708D01*
X123019136Y-103527620D01*
X123019139Y-103527625D01*
X123107379Y-103642621D01*
X123222375Y-103730861D01*
X123222377Y-103730861D01*
X123222379Y-103730863D01*
X123356291Y-103786330D01*
X123500000Y-103805250D01*
X123643709Y-103786330D01*
X123777625Y-103730861D01*
X123892621Y-103642621D01*
X123980861Y-103527625D01*
X124036330Y-103393709D01*
X124055250Y-103250000D01*
X124036330Y-103106291D01*
X123980863Y-102972379D01*
X123980860Y-102972374D01*
X123919662Y-102892620D01*
X123892621Y-102857379D01*
X123777625Y-102769139D01*
X123777620Y-102769136D01*
X123731421Y-102750000D01*
X129694750Y-102750000D01*
X129713669Y-102893708D01*
X129769136Y-103027620D01*
X129769137Y-103027621D01*
X129769139Y-103027625D01*
X129840153Y-103120172D01*
X129849860Y-103156396D01*
X129840154Y-103179829D01*
X129769136Y-103272382D01*
X129713669Y-103406294D01*
X129694750Y-103550003D01*
X129713669Y-103693711D01*
X129769136Y-103827623D01*
X129769139Y-103827628D01*
X129857379Y-103942624D01*
X129972375Y-104030864D01*
X129972377Y-104030864D01*
X129972379Y-104030866D01*
X130106291Y-104086333D01*
X130250000Y-104105253D01*
X130393709Y-104086333D01*
X130527625Y-104030864D01*
X130642621Y-103942624D01*
X130730861Y-103827628D01*
X130786330Y-103693712D01*
X130805250Y-103550003D01*
X130786330Y-103406294D01*
X130730861Y-103272378D01*
X130659845Y-103179829D01*
X130650139Y-103143605D01*
X130659844Y-103120175D01*
X130730861Y-103027625D01*
X130786330Y-102893709D01*
X130805250Y-102750000D01*
X130786330Y-102606291D01*
X130730863Y-102472379D01*
X130730860Y-102472374D01*
X130642621Y-102357379D01*
X130642620Y-102357378D01*
X130527625Y-102269139D01*
X130527620Y-102269136D01*
X130393708Y-102213669D01*
X130250000Y-102194750D01*
X130106291Y-102213669D01*
X129972379Y-102269136D01*
X129972374Y-102269139D01*
X129857379Y-102357378D01*
X129857378Y-102357379D01*
X129769139Y-102472374D01*
X129769136Y-102472379D01*
X129713669Y-102606291D01*
X129694750Y-102750000D01*
X123731421Y-102750000D01*
X123643708Y-102713669D01*
X123500000Y-102694750D01*
X123356291Y-102713669D01*
X123222379Y-102769136D01*
X123222374Y-102769139D01*
X123107379Y-102857378D01*
X123107378Y-102857379D01*
X123019139Y-102972374D01*
X123019136Y-102972379D01*
X122963669Y-103106291D01*
X122944750Y-103250000D01*
X121555250Y-103250000D01*
X121536330Y-103106291D01*
X121480863Y-102972379D01*
X121480860Y-102972374D01*
X121419662Y-102892620D01*
X121392621Y-102857379D01*
X121277625Y-102769139D01*
X121277620Y-102769136D01*
X121143708Y-102713669D01*
X121000000Y-102694750D01*
X120856291Y-102713669D01*
X120722379Y-102769136D01*
X120722374Y-102769139D01*
X120607379Y-102857378D01*
X120607378Y-102857379D01*
X120519139Y-102972374D01*
X120519136Y-102972379D01*
X120463669Y-103106291D01*
X120444750Y-103250000D01*
X105750500Y-103250000D01*
X105750500Y-102500000D01*
X112444750Y-102500000D01*
X112463669Y-102643708D01*
X112519136Y-102777620D01*
X112519139Y-102777625D01*
X112607379Y-102892621D01*
X112722375Y-102980861D01*
X112722377Y-102980861D01*
X112722379Y-102980863D01*
X112835263Y-103027620D01*
X112856291Y-103036330D01*
X113000000Y-103055250D01*
X113143709Y-103036330D01*
X113277625Y-102980861D01*
X113392621Y-102892621D01*
X113480861Y-102777625D01*
X113536330Y-102643709D01*
X113555250Y-102500000D01*
X115194750Y-102500000D01*
X115213669Y-102643708D01*
X115269136Y-102777620D01*
X115269139Y-102777625D01*
X115357379Y-102892621D01*
X115472375Y-102980861D01*
X115472377Y-102980861D01*
X115472379Y-102980863D01*
X115585263Y-103027620D01*
X115606291Y-103036330D01*
X115750000Y-103055250D01*
X115893709Y-103036330D01*
X116027625Y-102980861D01*
X116142621Y-102892621D01*
X116230861Y-102777625D01*
X116286330Y-102643709D01*
X116305250Y-102500000D01*
X116286330Y-102356291D01*
X116283931Y-102350500D01*
X116230863Y-102222379D01*
X116230860Y-102222374D01*
X116224180Y-102213669D01*
X116142621Y-102107379D01*
X116027625Y-102019139D01*
X116027620Y-102019136D01*
X115893708Y-101963669D01*
X115750000Y-101944750D01*
X115606291Y-101963669D01*
X115472379Y-102019136D01*
X115472374Y-102019139D01*
X115357379Y-102107378D01*
X115357378Y-102107379D01*
X115269139Y-102222374D01*
X115269136Y-102222379D01*
X115213669Y-102356291D01*
X115194750Y-102500000D01*
X113555250Y-102500000D01*
X113536330Y-102356291D01*
X113533931Y-102350500D01*
X113480863Y-102222379D01*
X113480860Y-102222374D01*
X113474180Y-102213669D01*
X113392621Y-102107379D01*
X113277625Y-102019139D01*
X113277620Y-102019136D01*
X113143708Y-101963669D01*
X113000000Y-101944750D01*
X112856291Y-101963669D01*
X112722379Y-102019136D01*
X112722374Y-102019139D01*
X112607379Y-102107378D01*
X112607378Y-102107379D01*
X112519139Y-102222374D01*
X112519136Y-102222379D01*
X112463669Y-102356291D01*
X112444750Y-102500000D01*
X105750500Y-102500000D01*
X105750500Y-100750000D01*
X123944750Y-100750000D01*
X123963669Y-100893708D01*
X124019136Y-101027620D01*
X124019139Y-101027625D01*
X124107379Y-101142621D01*
X124222375Y-101230861D01*
X124222377Y-101230861D01*
X124222379Y-101230863D01*
X124335263Y-101277620D01*
X124356291Y-101286330D01*
X124500000Y-101305250D01*
X124643709Y-101286330D01*
X124777625Y-101230861D01*
X124892621Y-101142621D01*
X124980861Y-101027625D01*
X124992303Y-101000000D01*
X125194750Y-101000000D01*
X125213669Y-101143708D01*
X125269136Y-101277620D01*
X125269139Y-101277625D01*
X125290336Y-101305250D01*
X125357379Y-101392621D01*
X125472375Y-101480861D01*
X125472377Y-101480861D01*
X125472379Y-101480863D01*
X125585263Y-101527620D01*
X125606291Y-101536330D01*
X125750000Y-101555250D01*
X125893709Y-101536330D01*
X126027625Y-101480861D01*
X126142621Y-101392621D01*
X126230861Y-101277625D01*
X126242303Y-101250000D01*
X135444750Y-101250000D01*
X135463669Y-101393708D01*
X135519136Y-101527620D01*
X135519139Y-101527625D01*
X135540336Y-101555250D01*
X135607379Y-101642621D01*
X135722375Y-101730861D01*
X135722377Y-101730861D01*
X135722379Y-101730863D01*
X135856291Y-101786330D01*
X136000000Y-101805250D01*
X136143709Y-101786330D01*
X136277625Y-101730861D01*
X136392621Y-101642621D01*
X136480861Y-101527625D01*
X136536330Y-101393709D01*
X136555250Y-101250000D01*
X136536330Y-101106291D01*
X136503744Y-101027620D01*
X136480863Y-100972379D01*
X136480860Y-100972374D01*
X136392621Y-100857379D01*
X136392620Y-100857378D01*
X136277625Y-100769139D01*
X136277620Y-100769136D01*
X136143708Y-100713669D01*
X136000000Y-100694750D01*
X135856291Y-100713669D01*
X135722379Y-100769136D01*
X135722374Y-100769139D01*
X135607379Y-100857378D01*
X135607378Y-100857379D01*
X135519139Y-100972374D01*
X135519136Y-100972379D01*
X135463669Y-101106291D01*
X135444750Y-101250000D01*
X126242303Y-101250000D01*
X126286330Y-101143709D01*
X126305250Y-101000000D01*
X126286330Y-100856291D01*
X126250230Y-100769136D01*
X126230863Y-100722379D01*
X126230860Y-100722374D01*
X126224180Y-100713669D01*
X126142621Y-100607379D01*
X126027625Y-100519139D01*
X126027620Y-100519136D01*
X125893708Y-100463669D01*
X125750000Y-100444750D01*
X125606291Y-100463669D01*
X125472379Y-100519136D01*
X125472374Y-100519139D01*
X125357379Y-100607378D01*
X125357378Y-100607379D01*
X125269139Y-100722374D01*
X125269136Y-100722379D01*
X125213669Y-100856291D01*
X125194750Y-101000000D01*
X124992303Y-101000000D01*
X125036330Y-100893709D01*
X125055250Y-100750000D01*
X125036330Y-100606291D01*
X124980861Y-100472375D01*
X124892621Y-100357379D01*
X124777625Y-100269139D01*
X124777620Y-100269136D01*
X124643708Y-100213669D01*
X124500000Y-100194750D01*
X124356291Y-100213669D01*
X124222379Y-100269136D01*
X124222374Y-100269139D01*
X124107379Y-100357378D01*
X124107378Y-100357379D01*
X124019139Y-100472374D01*
X124019136Y-100472379D01*
X123963669Y-100606291D01*
X123944750Y-100750000D01*
X105750500Y-100750000D01*
X105750500Y-99750000D01*
X118694750Y-99750000D01*
X118713669Y-99893708D01*
X118769136Y-100027620D01*
X118769139Y-100027625D01*
X118857379Y-100142621D01*
X118972375Y-100230861D01*
X118972377Y-100230861D01*
X118972379Y-100230863D01*
X119106291Y-100286330D01*
X119250000Y-100305250D01*
X119393709Y-100286330D01*
X119527625Y-100230861D01*
X119642621Y-100142621D01*
X119730861Y-100027625D01*
X119786330Y-99893709D01*
X119805250Y-99750000D01*
X119786330Y-99606291D01*
X119730861Y-99472375D01*
X119642621Y-99357379D01*
X119527625Y-99269139D01*
X119527620Y-99269136D01*
X119393708Y-99213669D01*
X119250000Y-99194750D01*
X119106291Y-99213669D01*
X118972379Y-99269136D01*
X118972374Y-99269139D01*
X118857379Y-99357378D01*
X118857378Y-99357379D01*
X118769139Y-99472374D01*
X118769136Y-99472379D01*
X118713669Y-99606291D01*
X118694750Y-99750000D01*
X105750500Y-99750000D01*
X105750500Y-98750000D01*
X136944750Y-98750000D01*
X136963669Y-98893708D01*
X137019136Y-99027620D01*
X137019139Y-99027625D01*
X137107379Y-99142621D01*
X137222375Y-99230861D01*
X137222377Y-99230861D01*
X137222379Y-99230863D01*
X137356291Y-99286330D01*
X137500000Y-99305250D01*
X137643709Y-99286330D01*
X137777625Y-99230861D01*
X137892621Y-99142621D01*
X137980861Y-99027625D01*
X138036330Y-98893709D01*
X138055250Y-98750000D01*
X138036330Y-98606291D01*
X137980861Y-98472375D01*
X137892621Y-98357379D01*
X137777625Y-98269139D01*
X137777620Y-98269136D01*
X137643708Y-98213669D01*
X137500000Y-98194750D01*
X137356291Y-98213669D01*
X137222379Y-98269136D01*
X137222374Y-98269139D01*
X137107379Y-98357378D01*
X137107378Y-98357379D01*
X137019139Y-98472374D01*
X137019136Y-98472379D01*
X136963669Y-98606291D01*
X136944750Y-98750000D01*
X105750500Y-98750000D01*
X105750500Y-97926082D01*
X105750500Y-86000000D01*
X116994723Y-86000000D01*
X117013793Y-86217979D01*
X117013794Y-86217985D01*
X117070422Y-86429322D01*
X117070424Y-86429327D01*
X117162896Y-86627637D01*
X117162903Y-86627649D01*
X117288397Y-86806871D01*
X117288403Y-86806878D01*
X117443121Y-86961596D01*
X117443128Y-86961602D01*
X117622350Y-87087096D01*
X117622362Y-87087103D01*
X117694540Y-87120760D01*
X117820670Y-87179575D01*
X117820676Y-87179576D01*
X117820677Y-87179577D01*
X118032014Y-87236205D01*
X118032018Y-87236205D01*
X118032023Y-87236207D01*
X118250000Y-87255277D01*
X118467977Y-87236207D01*
X118467983Y-87236205D01*
X118467985Y-87236205D01*
X118573653Y-87207891D01*
X118679330Y-87179575D01*
X118877639Y-87087102D01*
X118877640Y-87087101D01*
X118877649Y-87087096D01*
X119056871Y-86961602D01*
X119056877Y-86961598D01*
X119211598Y-86806877D01*
X119232590Y-86776897D01*
X119337096Y-86627649D01*
X119337103Y-86627637D01*
X119341352Y-86618523D01*
X119429575Y-86429330D01*
X119486207Y-86217977D01*
X119505277Y-86000000D01*
X123494723Y-86000000D01*
X123513793Y-86217979D01*
X123513794Y-86217985D01*
X123570422Y-86429322D01*
X123570424Y-86429327D01*
X123662896Y-86627637D01*
X123662903Y-86627649D01*
X123788397Y-86806871D01*
X123788403Y-86806878D01*
X123943121Y-86961596D01*
X123943128Y-86961602D01*
X124122350Y-87087096D01*
X124122362Y-87087103D01*
X124194540Y-87120760D01*
X124320670Y-87179575D01*
X124320676Y-87179576D01*
X124320677Y-87179577D01*
X124532014Y-87236205D01*
X124532018Y-87236205D01*
X124532023Y-87236207D01*
X124750000Y-87255277D01*
X124967977Y-87236207D01*
X124967983Y-87236205D01*
X124967985Y-87236205D01*
X125073653Y-87207891D01*
X125179330Y-87179575D01*
X125377639Y-87087102D01*
X125377640Y-87087101D01*
X125377649Y-87087096D01*
X125556871Y-86961602D01*
X125556877Y-86961598D01*
X125711598Y-86806877D01*
X125732590Y-86776897D01*
X125837096Y-86627649D01*
X125837103Y-86627637D01*
X125841352Y-86618523D01*
X125929575Y-86429330D01*
X125986207Y-86217977D01*
X126005277Y-86000000D01*
X129744723Y-86000000D01*
X129763793Y-86217979D01*
X129763794Y-86217985D01*
X129820422Y-86429322D01*
X129820424Y-86429327D01*
X129912896Y-86627637D01*
X129912903Y-86627649D01*
X130038397Y-86806871D01*
X130038403Y-86806878D01*
X130193121Y-86961596D01*
X130193128Y-86961602D01*
X130372350Y-87087096D01*
X130372362Y-87087103D01*
X130444540Y-87120760D01*
X130570670Y-87179575D01*
X130570676Y-87179576D01*
X130570677Y-87179577D01*
X130782014Y-87236205D01*
X130782018Y-87236205D01*
X130782023Y-87236207D01*
X131000000Y-87255277D01*
X131217977Y-87236207D01*
X131217983Y-87236205D01*
X131217985Y-87236205D01*
X131323653Y-87207891D01*
X131429330Y-87179575D01*
X131627639Y-87087102D01*
X131627640Y-87087101D01*
X131627649Y-87087096D01*
X131806871Y-86961602D01*
X131806877Y-86961598D01*
X131961598Y-86806877D01*
X131982590Y-86776897D01*
X132087096Y-86627649D01*
X132087103Y-86627637D01*
X132091352Y-86618523D01*
X132179575Y-86429330D01*
X132236207Y-86217977D01*
X132255277Y-86000000D01*
X136244723Y-86000000D01*
X136263793Y-86217979D01*
X136263794Y-86217985D01*
X136320422Y-86429322D01*
X136320424Y-86429327D01*
X136412896Y-86627637D01*
X136412903Y-86627649D01*
X136538397Y-86806871D01*
X136538403Y-86806878D01*
X136693121Y-86961596D01*
X136693128Y-86961602D01*
X136872350Y-87087096D01*
X136872362Y-87087103D01*
X136944540Y-87120760D01*
X137070670Y-87179575D01*
X137070676Y-87179576D01*
X137070677Y-87179577D01*
X137282014Y-87236205D01*
X137282018Y-87236205D01*
X137282023Y-87236207D01*
X137500000Y-87255277D01*
X137717977Y-87236207D01*
X137717983Y-87236205D01*
X137717985Y-87236205D01*
X137823653Y-87207891D01*
X137929330Y-87179575D01*
X138127639Y-87087102D01*
X138127640Y-87087101D01*
X138127649Y-87087096D01*
X138306871Y-86961602D01*
X138306877Y-86961598D01*
X138461598Y-86806877D01*
X138482590Y-86776897D01*
X138587096Y-86627649D01*
X138587103Y-86627637D01*
X138591352Y-86618523D01*
X138679575Y-86429330D01*
X138736207Y-86217977D01*
X138755277Y-86000000D01*
X138736207Y-85782023D01*
X138679575Y-85570670D01*
X138629539Y-85463368D01*
X138587103Y-85372363D01*
X138587096Y-85372351D01*
X138461602Y-85193128D01*
X138461596Y-85193121D01*
X138306878Y-85038403D01*
X138306871Y-85038397D01*
X138127649Y-84912903D01*
X138127637Y-84912896D01*
X137983279Y-84845581D01*
X137929330Y-84820425D01*
X137929327Y-84820424D01*
X137929322Y-84820422D01*
X137717985Y-84763794D01*
X137717979Y-84763793D01*
X137500000Y-84744723D01*
X137282020Y-84763793D01*
X137282014Y-84763794D01*
X137070677Y-84820422D01*
X137070672Y-84820423D01*
X136872363Y-84912896D01*
X136872351Y-84912903D01*
X136693128Y-85038397D01*
X136693121Y-85038403D01*
X136538403Y-85193121D01*
X136538397Y-85193128D01*
X136412903Y-85372351D01*
X136412896Y-85372363D01*
X136320423Y-85570672D01*
X136320422Y-85570677D01*
X136263794Y-85782014D01*
X136263793Y-85782020D01*
X136244723Y-86000000D01*
X132255277Y-86000000D01*
X132236207Y-85782023D01*
X132179575Y-85570670D01*
X132129539Y-85463368D01*
X132087103Y-85372363D01*
X132087096Y-85372351D01*
X131961602Y-85193128D01*
X131961596Y-85193121D01*
X131806878Y-85038403D01*
X131806871Y-85038397D01*
X131627649Y-84912903D01*
X131627637Y-84912896D01*
X131483279Y-84845581D01*
X131429330Y-84820425D01*
X131429327Y-84820424D01*
X131429322Y-84820422D01*
X131217985Y-84763794D01*
X131217979Y-84763793D01*
X131000000Y-84744723D01*
X130782020Y-84763793D01*
X130782014Y-84763794D01*
X130570677Y-84820422D01*
X130570672Y-84820423D01*
X130372363Y-84912896D01*
X130372351Y-84912903D01*
X130193128Y-85038397D01*
X130193121Y-85038403D01*
X130038403Y-85193121D01*
X130038397Y-85193128D01*
X129912903Y-85372351D01*
X129912896Y-85372363D01*
X129820423Y-85570672D01*
X129820422Y-85570677D01*
X129763794Y-85782014D01*
X129763793Y-85782020D01*
X129744723Y-86000000D01*
X126005277Y-86000000D01*
X125986207Y-85782023D01*
X125929575Y-85570670D01*
X125879539Y-85463368D01*
X125837103Y-85372363D01*
X125837096Y-85372351D01*
X125711602Y-85193128D01*
X125711596Y-85193121D01*
X125556878Y-85038403D01*
X125556871Y-85038397D01*
X125377649Y-84912903D01*
X125377637Y-84912896D01*
X125233279Y-84845581D01*
X125179330Y-84820425D01*
X125179327Y-84820424D01*
X125179322Y-84820422D01*
X124967985Y-84763794D01*
X124967979Y-84763793D01*
X124750000Y-84744723D01*
X124532020Y-84763793D01*
X124532014Y-84763794D01*
X124320677Y-84820422D01*
X124320672Y-84820423D01*
X124122363Y-84912896D01*
X124122351Y-84912903D01*
X123943128Y-85038397D01*
X123943121Y-85038403D01*
X123788403Y-85193121D01*
X123788397Y-85193128D01*
X123662903Y-85372351D01*
X123662896Y-85372363D01*
X123570423Y-85570672D01*
X123570422Y-85570677D01*
X123513794Y-85782014D01*
X123513793Y-85782020D01*
X123494723Y-86000000D01*
X119505277Y-86000000D01*
X119486207Y-85782023D01*
X119429575Y-85570670D01*
X119379539Y-85463368D01*
X119337103Y-85372363D01*
X119337096Y-85372351D01*
X119211602Y-85193128D01*
X119211596Y-85193121D01*
X119056878Y-85038403D01*
X119056871Y-85038397D01*
X118877649Y-84912903D01*
X118877637Y-84912896D01*
X118733279Y-84845581D01*
X118679330Y-84820425D01*
X118679327Y-84820424D01*
X118679322Y-84820422D01*
X118467985Y-84763794D01*
X118467979Y-84763793D01*
X118250000Y-84744723D01*
X118032020Y-84763793D01*
X118032014Y-84763794D01*
X117820677Y-84820422D01*
X117820672Y-84820423D01*
X117622363Y-84912896D01*
X117622351Y-84912903D01*
X117443128Y-85038397D01*
X117443121Y-85038403D01*
X117288403Y-85193121D01*
X117288397Y-85193128D01*
X117162903Y-85372351D01*
X117162896Y-85372363D01*
X117070423Y-85570672D01*
X117070422Y-85570677D01*
X117013794Y-85782014D01*
X117013793Y-85782020D01*
X116994723Y-86000000D01*
X105750500Y-86000000D01*
X105750500Y-82926082D01*
X105750500Y-73250000D01*
X135444750Y-73250000D01*
X135463669Y-73393708D01*
X135519136Y-73527620D01*
X135519139Y-73527625D01*
X135607379Y-73642621D01*
X135722375Y-73730861D01*
X135722377Y-73730861D01*
X135722379Y-73730863D01*
X135856291Y-73786330D01*
X136000000Y-73805250D01*
X136143709Y-73786330D01*
X136277625Y-73730861D01*
X136392621Y-73642621D01*
X136480861Y-73527625D01*
X136536330Y-73393709D01*
X136555250Y-73250000D01*
X136536330Y-73106291D01*
X136480861Y-72972375D01*
X136392621Y-72857379D01*
X136277625Y-72769139D01*
X136277620Y-72769136D01*
X136143708Y-72713669D01*
X136000000Y-72694750D01*
X135856291Y-72713669D01*
X135722379Y-72769136D01*
X135722374Y-72769139D01*
X135607379Y-72857378D01*
X135607378Y-72857379D01*
X135519139Y-72972374D01*
X135519136Y-72972379D01*
X135463669Y-73106291D01*
X135444750Y-73250000D01*
X105750500Y-73250000D01*
X105750500Y-67926082D01*
X105750500Y-64175322D01*
X119296849Y-64175322D01*
X119296849Y-65824677D01*
X119311382Y-65897739D01*
X119366747Y-65980601D01*
X119449609Y-66035966D01*
X119522675Y-66050500D01*
X121172023Y-66050500D01*
X121245089Y-66035966D01*
X121327950Y-65980601D01*
X121383315Y-65897740D01*
X121397849Y-65824674D01*
X121397849Y-64175326D01*
X121383315Y-64102260D01*
X121327950Y-64019398D01*
X121245088Y-63964033D01*
X121172026Y-63949500D01*
X121172023Y-63949500D01*
X119522675Y-63949500D01*
X119522671Y-63949500D01*
X119449609Y-63964033D01*
X119366747Y-64019398D01*
X119311382Y-64102260D01*
X119296849Y-64175322D01*
X105750500Y-64175322D01*
X105750500Y-53021082D01*
X105721658Y-52876087D01*
X105665084Y-52739505D01*
X105582951Y-52616584D01*
X105478416Y-52512049D01*
X105355495Y-52429916D01*
X105355492Y-52429914D01*
X105355491Y-52429914D01*
X105218915Y-52373342D01*
X105218906Y-52373340D01*
X105073921Y-52344500D01*
X105073918Y-52344500D01*
X104926082Y-52344500D01*
X104926078Y-52344500D01*
X104781093Y-52373340D01*
X104781084Y-52373342D01*
X104644508Y-52429914D01*
X104521584Y-52512048D01*
X104417048Y-52616584D01*
X104334914Y-52739508D01*
X104278342Y-52876084D01*
X104278340Y-52876093D01*
X104249500Y-53021078D01*
X101623046Y-53021078D01*
X101627298Y-52250000D01*
X119194750Y-52250000D01*
X119213669Y-52393708D01*
X119269136Y-52527620D01*
X119269139Y-52527625D01*
X119357379Y-52642621D01*
X119472375Y-52730861D01*
X119472377Y-52730861D01*
X119472379Y-52730863D01*
X119606291Y-52786330D01*
X119750000Y-52805250D01*
X119893709Y-52786330D01*
X120027625Y-52730861D01*
X120142621Y-52642621D01*
X120230861Y-52527625D01*
X120286330Y-52393709D01*
X120305250Y-52250000D01*
X120286330Y-52106291D01*
X120230861Y-51972375D01*
X120142621Y-51857379D01*
X120027625Y-51769139D01*
X120027620Y-51769136D01*
X119893708Y-51713669D01*
X119750000Y-51694750D01*
X119606291Y-51713669D01*
X119472379Y-51769136D01*
X119472374Y-51769139D01*
X119357379Y-51857378D01*
X119357378Y-51857379D01*
X119269139Y-51972374D01*
X119269136Y-51972379D01*
X119213669Y-52106291D01*
X119194750Y-52250000D01*
X101627298Y-52250000D01*
X101639706Y-50000000D01*
X109194750Y-50000000D01*
X109213669Y-50143708D01*
X109269136Y-50277620D01*
X109269139Y-50277625D01*
X109357379Y-50392621D01*
X109472375Y-50480861D01*
X109472377Y-50480861D01*
X109472379Y-50480863D01*
X109606291Y-50536330D01*
X109750000Y-50555250D01*
X109893709Y-50536330D01*
X110027625Y-50480861D01*
X110142621Y-50392621D01*
X110230861Y-50277625D01*
X110286330Y-50143709D01*
X110305250Y-50000000D01*
X110286330Y-49856291D01*
X110230861Y-49722375D01*
X110142621Y-49607379D01*
X110027625Y-49519139D01*
X110027620Y-49519136D01*
X109893708Y-49463669D01*
X109750000Y-49444750D01*
X109606291Y-49463669D01*
X109472379Y-49519136D01*
X109472374Y-49519139D01*
X109357379Y-49607378D01*
X109357378Y-49607379D01*
X109269139Y-49722374D01*
X109269136Y-49722379D01*
X109213669Y-49856291D01*
X109194750Y-50000000D01*
X101639706Y-50000000D01*
X101725184Y-34500000D01*
X101884529Y-34500000D01*
X101904380Y-34739563D01*
X101941798Y-34887326D01*
X101963391Y-34972593D01*
X102059949Y-35192725D01*
X102059951Y-35192728D01*
X102191429Y-35393969D01*
X102354236Y-35570825D01*
X102354238Y-35570827D01*
X102486820Y-35674019D01*
X102543933Y-35718472D01*
X102543940Y-35718476D01*
X102543942Y-35718477D01*
X102755336Y-35832878D01*
X102755338Y-35832878D01*
X102755344Y-35832882D01*
X102982703Y-35910934D01*
X103219808Y-35950500D01*
X103219811Y-35950500D01*
X103460189Y-35950500D01*
X103460192Y-35950500D01*
X103665794Y-35916190D01*
X103702331Y-35924643D01*
X103708506Y-35929874D01*
X113827049Y-46048416D01*
X113931584Y-46152951D01*
X114054505Y-46235084D01*
X114122796Y-46263371D01*
X114191084Y-46291657D01*
X114191085Y-46291657D01*
X114191087Y-46291658D01*
X114336082Y-46320500D01*
X126922329Y-46320500D01*
X126956977Y-46334852D01*
X126965335Y-46346017D01*
X127089279Y-46573003D01*
X127089281Y-46573006D01*
X127089284Y-46573011D01*
X127247913Y-46784915D01*
X127247916Y-46784919D01*
X127435080Y-46972083D01*
X127435083Y-46972085D01*
X127435085Y-46972087D01*
X127646989Y-47130716D01*
X127646995Y-47130719D01*
X127646996Y-47130720D01*
X127879305Y-47257571D01*
X127879306Y-47257571D01*
X127879311Y-47257574D01*
X128127322Y-47350077D01*
X128385974Y-47406343D01*
X128583993Y-47420506D01*
X128649998Y-47425227D01*
X128650000Y-47425227D01*
X128650002Y-47425227D01*
X128708672Y-47421030D01*
X128914026Y-47406343D01*
X129172678Y-47350077D01*
X129420689Y-47257574D01*
X129653011Y-47130716D01*
X129864915Y-46972087D01*
X130052087Y-46784915D01*
X130210716Y-46573011D01*
X130337574Y-46340689D01*
X130430077Y-46092678D01*
X130486343Y-45834026D01*
X130505227Y-45570000D01*
X130486343Y-45305974D01*
X130430077Y-45047322D01*
X130337574Y-44799311D01*
X130210716Y-44566989D01*
X130052087Y-44355085D01*
X130052085Y-44355083D01*
X130052083Y-44355080D01*
X129864919Y-44167916D01*
X129864915Y-44167913D01*
X129653011Y-44009284D01*
X129653006Y-44009281D01*
X129653003Y-44009279D01*
X129420694Y-43882428D01*
X129420689Y-43882426D01*
X129172678Y-43789923D01*
X129145284Y-43783963D01*
X128914034Y-43733658D01*
X128914019Y-43733656D01*
X128650002Y-43714773D01*
X128649998Y-43714773D01*
X128385980Y-43733656D01*
X128385965Y-43733658D01*
X128127326Y-43789922D01*
X128127325Y-43789922D01*
X128127322Y-43789923D01*
X127960147Y-43852275D01*
X127879305Y-43882428D01*
X127646996Y-44009279D01*
X127435080Y-44167916D01*
X127247916Y-44355080D01*
X127089279Y-44566996D01*
X126965335Y-44793983D01*
X126936134Y-44817515D01*
X126922329Y-44819500D01*
X114741163Y-44819500D01*
X114706515Y-44805148D01*
X110901368Y-41000000D01*
X124944750Y-41000000D01*
X124963669Y-41143708D01*
X125019136Y-41277620D01*
X125019139Y-41277625D01*
X125107379Y-41392621D01*
X125222375Y-41480861D01*
X125222377Y-41480861D01*
X125222379Y-41480863D01*
X125356291Y-41536330D01*
X125500000Y-41555250D01*
X125643709Y-41536330D01*
X125777625Y-41480861D01*
X125892621Y-41392621D01*
X125980861Y-41277625D01*
X126036330Y-41143709D01*
X126055250Y-41000000D01*
X126036330Y-40856291D01*
X126033120Y-40848541D01*
X125980863Y-40722379D01*
X125980860Y-40722374D01*
X125892621Y-40607379D01*
X125892620Y-40607378D01*
X125777625Y-40519139D01*
X125777620Y-40519136D01*
X125707273Y-40489998D01*
X126794773Y-40489998D01*
X126794773Y-40490001D01*
X126813656Y-40754019D01*
X126813658Y-40754034D01*
X126834217Y-40848541D01*
X126869923Y-41012678D01*
X126918795Y-41143709D01*
X126962428Y-41260694D01*
X127089279Y-41493003D01*
X127089281Y-41493006D01*
X127089284Y-41493011D01*
X127167683Y-41597740D01*
X127247916Y-41704919D01*
X127435080Y-41892083D01*
X127435083Y-41892085D01*
X127435085Y-41892087D01*
X127646989Y-42050716D01*
X127646995Y-42050719D01*
X127646996Y-42050720D01*
X127879305Y-42177571D01*
X127879306Y-42177571D01*
X127879311Y-42177574D01*
X128127322Y-42270077D01*
X128385974Y-42326343D01*
X128583993Y-42340506D01*
X128649998Y-42345227D01*
X128650000Y-42345227D01*
X128650002Y-42345227D01*
X128708672Y-42341030D01*
X128914026Y-42326343D01*
X129172678Y-42270077D01*
X129420689Y-42177574D01*
X129653011Y-42050716D01*
X129864915Y-41892087D01*
X130052087Y-41704915D01*
X130210716Y-41493011D01*
X130337574Y-41260689D01*
X130430077Y-41012678D01*
X130486343Y-40754026D01*
X130505227Y-40490000D01*
X130486343Y-40225974D01*
X130430077Y-39967322D01*
X130337574Y-39719311D01*
X130210716Y-39486989D01*
X130052087Y-39275085D01*
X130052085Y-39275083D01*
X130052083Y-39275080D01*
X129864919Y-39087916D01*
X129864915Y-39087913D01*
X129653011Y-38929284D01*
X129653006Y-38929281D01*
X129653003Y-38929279D01*
X129420694Y-38802428D01*
X129350068Y-38776086D01*
X129172678Y-38709923D01*
X129145284Y-38703963D01*
X128914034Y-38653658D01*
X128914019Y-38653656D01*
X128650002Y-38634773D01*
X128649998Y-38634773D01*
X128385980Y-38653656D01*
X128385965Y-38653658D01*
X128127326Y-38709922D01*
X128127325Y-38709922D01*
X128127322Y-38709923D01*
X127960147Y-38772275D01*
X127879305Y-38802428D01*
X127646996Y-38929279D01*
X127435080Y-39087916D01*
X127247916Y-39275080D01*
X127089279Y-39486996D01*
X126962428Y-39719305D01*
X126869922Y-39967326D01*
X126813658Y-40225965D01*
X126813656Y-40225980D01*
X126794773Y-40489998D01*
X125707273Y-40489998D01*
X125643708Y-40463669D01*
X125500000Y-40444750D01*
X125356291Y-40463669D01*
X125222379Y-40519136D01*
X125222374Y-40519139D01*
X125107379Y-40607378D01*
X125107378Y-40607379D01*
X125019139Y-40722374D01*
X125019136Y-40722379D01*
X124963669Y-40856291D01*
X124944750Y-41000000D01*
X110901368Y-41000000D01*
X109651368Y-39750000D01*
X115194750Y-39750000D01*
X115213669Y-39893708D01*
X115269136Y-40027620D01*
X115269139Y-40027625D01*
X115357379Y-40142621D01*
X115472375Y-40230861D01*
X115472377Y-40230861D01*
X115472379Y-40230863D01*
X115606291Y-40286330D01*
X115750000Y-40305250D01*
X115893709Y-40286330D01*
X116027625Y-40230861D01*
X116142621Y-40142621D01*
X116230861Y-40027625D01*
X116286330Y-39893709D01*
X116305250Y-39750000D01*
X116286330Y-39606291D01*
X116236917Y-39486996D01*
X116230863Y-39472379D01*
X116230860Y-39472374D01*
X116142621Y-39357379D01*
X116142620Y-39357378D01*
X116027625Y-39269139D01*
X116027620Y-39269136D01*
X115893708Y-39213669D01*
X115750000Y-39194750D01*
X115606291Y-39213669D01*
X115472379Y-39269136D01*
X115472374Y-39269139D01*
X115357379Y-39357378D01*
X115357378Y-39357379D01*
X115269139Y-39472374D01*
X115269136Y-39472379D01*
X115213669Y-39606291D01*
X115194750Y-39750000D01*
X109651368Y-39750000D01*
X104768091Y-34866723D01*
X104753739Y-34832075D01*
X104755237Y-34820052D01*
X104775620Y-34739563D01*
X104795471Y-34500000D01*
X122204529Y-34500000D01*
X122224380Y-34739563D01*
X122261798Y-34887326D01*
X122283391Y-34972593D01*
X122379949Y-35192725D01*
X122379951Y-35192728D01*
X122511429Y-35393969D01*
X122674236Y-35570825D01*
X122674238Y-35570827D01*
X122806820Y-35674019D01*
X122863933Y-35718472D01*
X122863940Y-35718476D01*
X122863942Y-35718477D01*
X123075336Y-35832878D01*
X123075338Y-35832878D01*
X123075344Y-35832882D01*
X123302703Y-35910934D01*
X123539808Y-35950500D01*
X123539811Y-35950500D01*
X123780189Y-35950500D01*
X123780192Y-35950500D01*
X124017297Y-35910934D01*
X124244656Y-35832882D01*
X124456067Y-35718472D01*
X124645764Y-35570825D01*
X124793815Y-35409998D01*
X126794773Y-35409998D01*
X126794773Y-35410001D01*
X126813656Y-35674019D01*
X126813658Y-35674034D01*
X126848213Y-35832878D01*
X126869923Y-35932678D01*
X126962426Y-36180689D01*
X126962428Y-36180694D01*
X127089279Y-36413003D01*
X127089281Y-36413006D01*
X127089284Y-36413011D01*
X127172874Y-36524674D01*
X127247916Y-36624919D01*
X127435080Y-36812083D01*
X127435083Y-36812085D01*
X127435085Y-36812087D01*
X127646989Y-36970716D01*
X127646995Y-36970719D01*
X127646996Y-36970720D01*
X127879305Y-37097571D01*
X127879306Y-37097571D01*
X127879311Y-37097574D01*
X128127322Y-37190077D01*
X128385974Y-37246343D01*
X128583993Y-37260506D01*
X128649998Y-37265227D01*
X128650000Y-37265227D01*
X128650002Y-37265227D01*
X128708672Y-37261030D01*
X128914026Y-37246343D01*
X129172678Y-37190077D01*
X129420689Y-37097574D01*
X129653011Y-36970716D01*
X129864915Y-36812087D01*
X130052087Y-36624915D01*
X130210716Y-36413011D01*
X130337574Y-36180689D01*
X130430077Y-35932678D01*
X130486343Y-35674026D01*
X130505227Y-35410000D01*
X130504080Y-35393969D01*
X130489687Y-35192728D01*
X130486343Y-35145974D01*
X130430077Y-34887322D01*
X130337574Y-34639311D01*
X130210716Y-34406989D01*
X130052087Y-34195085D01*
X130052085Y-34195083D01*
X130052083Y-34195080D01*
X129864919Y-34007916D01*
X129798459Y-33958165D01*
X129653011Y-33849284D01*
X129653006Y-33849281D01*
X129653003Y-33849279D01*
X129420694Y-33722428D01*
X129420689Y-33722426D01*
X129172678Y-33629923D01*
X129145284Y-33623963D01*
X128914034Y-33573658D01*
X128914019Y-33573656D01*
X128650002Y-33554773D01*
X128649998Y-33554773D01*
X128385980Y-33573656D01*
X128385965Y-33573658D01*
X128127326Y-33629922D01*
X128127325Y-33629922D01*
X128127322Y-33629923D01*
X127960147Y-33692275D01*
X127879305Y-33722428D01*
X127646996Y-33849279D01*
X127435080Y-34007916D01*
X127247916Y-34195080D01*
X127089279Y-34406996D01*
X126962428Y-34639305D01*
X126869922Y-34887326D01*
X126813658Y-35145965D01*
X126813656Y-35145980D01*
X126794773Y-35409998D01*
X124793815Y-35409998D01*
X124808571Y-35393969D01*
X124940049Y-35192728D01*
X125036610Y-34972591D01*
X125095620Y-34739563D01*
X125115471Y-34500000D01*
X125095620Y-34260437D01*
X125036610Y-34027409D01*
X124940049Y-33807272D01*
X124808571Y-33606031D01*
X124645764Y-33429175D01*
X124645763Y-33429174D01*
X124645761Y-33429172D01*
X124456071Y-33281531D01*
X124456070Y-33281530D01*
X124456067Y-33281528D01*
X124456062Y-33281525D01*
X124456057Y-33281522D01*
X124244663Y-33167121D01*
X124244657Y-33167118D01*
X124244656Y-33167118D01*
X124226440Y-33160864D01*
X124017298Y-33089066D01*
X123958020Y-33079174D01*
X123780192Y-33049500D01*
X123539808Y-33049500D01*
X123397545Y-33073239D01*
X123302701Y-33089066D01*
X123075346Y-33167117D01*
X123075336Y-33167121D01*
X122863942Y-33281522D01*
X122863928Y-33281531D01*
X122674238Y-33429172D01*
X122511427Y-33606033D01*
X122379953Y-33807268D01*
X122379949Y-33807274D01*
X122291940Y-34007916D01*
X122283390Y-34027409D01*
X122224380Y-34260437D01*
X122204529Y-34500000D01*
X104795471Y-34500000D01*
X104775620Y-34260437D01*
X104716610Y-34027409D01*
X104620049Y-33807272D01*
X104488571Y-33606031D01*
X104325764Y-33429175D01*
X104325763Y-33429174D01*
X104325761Y-33429172D01*
X104136071Y-33281531D01*
X104136070Y-33281530D01*
X104136067Y-33281528D01*
X104136062Y-33281525D01*
X104136057Y-33281522D01*
X103924663Y-33167121D01*
X103924657Y-33167118D01*
X103924656Y-33167118D01*
X103906440Y-33160864D01*
X103697298Y-33089066D01*
X103638020Y-33079174D01*
X103460192Y-33049500D01*
X103219808Y-33049500D01*
X103077545Y-33073239D01*
X102982701Y-33089066D01*
X102755346Y-33167117D01*
X102755336Y-33167121D01*
X102543942Y-33281522D01*
X102543928Y-33281531D01*
X102354238Y-33429172D01*
X102191427Y-33606033D01*
X102059953Y-33807268D01*
X102059949Y-33807274D01*
X101971940Y-34007916D01*
X101963390Y-34027409D01*
X101904380Y-34260437D01*
X101884529Y-34500000D01*
X101725184Y-34500000D01*
X101746971Y-30549229D01*
X101761513Y-30514661D01*
X101795970Y-30500500D01*
X139450500Y-30500500D01*
X139485148Y-30514852D01*
G37*
G04 #@! TD.AperFunction*
G04 #@! TA.AperFunction,Conductor*
G36*
X100943039Y-30520185D02*
G01*
X100988794Y-30572989D01*
X101000000Y-30624500D01*
X101000000Y-30625500D01*
X100980315Y-30692539D01*
X100927511Y-30738294D01*
X100876000Y-30749500D01*
X86354675Y-30749500D01*
X86354655Y-30749499D01*
X86348541Y-30749499D01*
X86151460Y-30749499D01*
X86151457Y-30749499D01*
X85958172Y-30787946D01*
X85958164Y-30787948D01*
X85776088Y-30863366D01*
X85776079Y-30863371D01*
X85612222Y-30972857D01*
X85612217Y-30972861D01*
X85542481Y-31042596D01*
X85481157Y-31076081D01*
X85411466Y-31071095D01*
X85402735Y-31067453D01*
X85204910Y-30975930D01*
X85204908Y-30975929D01*
X85204901Y-30975926D01*
X85006705Y-30909146D01*
X84870877Y-30863380D01*
X84526643Y-30787608D01*
X84176238Y-30749500D01*
X84176237Y-30749500D01*
X83823763Y-30749500D01*
X83823761Y-30749500D01*
X83473356Y-30787608D01*
X83129119Y-30863381D01*
X82795093Y-30975928D01*
X82795088Y-30975929D01*
X82475210Y-31123921D01*
X82475197Y-31123928D01*
X82173184Y-31305644D01*
X81892589Y-31518946D01*
X81892580Y-31518954D01*
X81636685Y-31761350D01*
X81408505Y-32029983D01*
X81408498Y-32029993D01*
X81210695Y-32321730D01*
X81045597Y-32633137D01*
X81045588Y-32633155D01*
X80915127Y-32960589D01*
X80915126Y-32960591D01*
X80820834Y-33300203D01*
X80820833Y-33300206D01*
X80763808Y-33648045D01*
X80748318Y-33933749D01*
X80725033Y-33999625D01*
X80720871Y-34002853D01*
X80743477Y-34038028D01*
X80748318Y-34066250D01*
X80763808Y-34351954D01*
X80792498Y-34526955D01*
X80813665Y-34656073D01*
X80820833Y-34699793D01*
X80820834Y-34699796D01*
X80915126Y-35039408D01*
X80915127Y-35039410D01*
X81045588Y-35366844D01*
X81045597Y-35366862D01*
X81210695Y-35678269D01*
X81408498Y-35970006D01*
X81408505Y-35970016D01*
X81622322Y-36221740D01*
X81636686Y-36238650D01*
X81892580Y-36481046D01*
X82173182Y-36694354D01*
X82475202Y-36876074D01*
X82475206Y-36876075D01*
X82475210Y-36876078D01*
X82795088Y-37024070D01*
X82795092Y-37024070D01*
X82795099Y-37024074D01*
X83129122Y-37136619D01*
X83473355Y-37212391D01*
X83823763Y-37250500D01*
X83823769Y-37250500D01*
X84176231Y-37250500D01*
X84176237Y-37250500D01*
X84526645Y-37212391D01*
X84870878Y-37136619D01*
X85204901Y-37024074D01*
X85204908Y-37024070D01*
X85204911Y-37024070D01*
X85524789Y-36876078D01*
X85524798Y-36876074D01*
X85826818Y-36694354D01*
X86107420Y-36481046D01*
X86363314Y-36238650D01*
X86591501Y-35970008D01*
X86789305Y-35678269D01*
X86954407Y-35366854D01*
X87084871Y-35039414D01*
X87087457Y-35030102D01*
X87127434Y-34886115D01*
X87179168Y-34699788D01*
X87236191Y-34351957D01*
X87247056Y-34151577D01*
X90749500Y-34151577D01*
X90749500Y-35848422D01*
X90780290Y-36042826D01*
X90841117Y-36230029D01*
X90930476Y-36405405D01*
X91046172Y-36564646D01*
X91185354Y-36703828D01*
X91344595Y-36819524D01*
X91427455Y-36861743D01*
X91519970Y-36908882D01*
X91519972Y-36908882D01*
X91519975Y-36908884D01*
X91620317Y-36941487D01*
X91707173Y-36969709D01*
X91901578Y-37000500D01*
X91901583Y-37000500D01*
X92098422Y-37000500D01*
X92292826Y-36969709D01*
X92480025Y-36908884D01*
X92655405Y-36819524D01*
X92814646Y-36703828D01*
X92953828Y-36564646D01*
X93069524Y-36405405D01*
X93158884Y-36230025D01*
X93219709Y-36042826D01*
X93250500Y-35848422D01*
X93250500Y-34151577D01*
X93219709Y-33957173D01*
X93158882Y-33769970D01*
X93096757Y-33648043D01*
X93069524Y-33594595D01*
X92953828Y-33435354D01*
X92814646Y-33296172D01*
X92655405Y-33180476D01*
X92480029Y-33091117D01*
X92292826Y-33030290D01*
X92098422Y-32999500D01*
X92098417Y-32999500D01*
X91901583Y-32999500D01*
X91901578Y-32999500D01*
X91707173Y-33030290D01*
X91519970Y-33091117D01*
X91344594Y-33180476D01*
X91253741Y-33246485D01*
X91185354Y-33296172D01*
X91185352Y-33296174D01*
X91185351Y-33296174D01*
X91046174Y-33435351D01*
X91046174Y-33435352D01*
X91046172Y-33435354D01*
X90996485Y-33503741D01*
X90930476Y-33594594D01*
X90841117Y-33769970D01*
X90780290Y-33957173D01*
X90749500Y-34151577D01*
X87247056Y-34151577D01*
X87255274Y-34000000D01*
X87250805Y-33917585D01*
X87236191Y-33648045D01*
X87233500Y-33631629D01*
X87179168Y-33300212D01*
X87104225Y-33030291D01*
X87084873Y-32960591D01*
X87084872Y-32960590D01*
X87084872Y-32960589D01*
X87084871Y-32960586D01*
X87068857Y-32920396D01*
X87062330Y-32850833D01*
X87094448Y-32788783D01*
X87155014Y-32753948D01*
X87184051Y-32750500D01*
X100876000Y-32750500D01*
X100943039Y-32770185D01*
X100988794Y-32822989D01*
X101000000Y-32874500D01*
X101000000Y-44876000D01*
X100980315Y-44943039D01*
X100927511Y-44988794D01*
X100876000Y-45000000D01*
X95000000Y-45000000D01*
X95000000Y-165370500D01*
X94980315Y-165437539D01*
X94927511Y-165483294D01*
X94876000Y-165494500D01*
X80624500Y-165494500D01*
X80557461Y-165474815D01*
X80511706Y-165422011D01*
X80500500Y-165370500D01*
X80500500Y-161251577D01*
X82999500Y-161251577D01*
X82999500Y-161448422D01*
X83030290Y-161642826D01*
X83091117Y-161830029D01*
X83180476Y-162005405D01*
X83296172Y-162164646D01*
X83435354Y-162303828D01*
X83594595Y-162419524D01*
X83677455Y-162461743D01*
X83769970Y-162508882D01*
X83769972Y-162508882D01*
X83769975Y-162508884D01*
X83870317Y-162541487D01*
X83957173Y-162569709D01*
X84151578Y-162600500D01*
X84151583Y-162600500D01*
X85848422Y-162600500D01*
X86042826Y-162569709D01*
X86230025Y-162508884D01*
X86405405Y-162419524D01*
X86564646Y-162303828D01*
X86703828Y-162164646D01*
X86819524Y-162005405D01*
X86908884Y-161830025D01*
X86969709Y-161642826D01*
X87000500Y-161448422D01*
X87000500Y-161251577D01*
X87999500Y-161251577D01*
X87999500Y-161448422D01*
X88030290Y-161642826D01*
X88091117Y-161830029D01*
X88180476Y-162005405D01*
X88296172Y-162164646D01*
X88435354Y-162303828D01*
X88594595Y-162419524D01*
X88677455Y-162461743D01*
X88769970Y-162508882D01*
X88769972Y-162508882D01*
X88769975Y-162508884D01*
X88870317Y-162541487D01*
X88957173Y-162569709D01*
X89151578Y-162600500D01*
X89151583Y-162600500D01*
X90848422Y-162600500D01*
X91042826Y-162569709D01*
X91230025Y-162508884D01*
X91405405Y-162419524D01*
X91564646Y-162303828D01*
X91703828Y-162164646D01*
X91819524Y-162005405D01*
X91908884Y-161830025D01*
X91969709Y-161642826D01*
X92000500Y-161448422D01*
X92000500Y-161251577D01*
X91969709Y-161057173D01*
X91908882Y-160869970D01*
X91819523Y-160694594D01*
X91703828Y-160535354D01*
X91564646Y-160396172D01*
X91405405Y-160280476D01*
X91230029Y-160191117D01*
X91042826Y-160130290D01*
X90848422Y-160099500D01*
X90848417Y-160099500D01*
X89151583Y-160099500D01*
X89151578Y-160099500D01*
X88957173Y-160130290D01*
X88769970Y-160191117D01*
X88594594Y-160280476D01*
X88503741Y-160346485D01*
X88435354Y-160396172D01*
X88435352Y-160396174D01*
X88435351Y-160396174D01*
X88296174Y-160535351D01*
X88296174Y-160535352D01*
X88296172Y-160535354D01*
X88246485Y-160603741D01*
X88180476Y-160694594D01*
X88091117Y-160869970D01*
X88030290Y-161057173D01*
X87999500Y-161251577D01*
X87000500Y-161251577D01*
X86969709Y-161057173D01*
X86908882Y-160869970D01*
X86819523Y-160694594D01*
X86703828Y-160535354D01*
X86564646Y-160396172D01*
X86405405Y-160280476D01*
X86230029Y-160191117D01*
X86042826Y-160130290D01*
X85848422Y-160099500D01*
X85848417Y-160099500D01*
X84151583Y-160099500D01*
X84151578Y-160099500D01*
X83957173Y-160130290D01*
X83769970Y-160191117D01*
X83594594Y-160280476D01*
X83503741Y-160346485D01*
X83435354Y-160396172D01*
X83435352Y-160396174D01*
X83435351Y-160396174D01*
X83296174Y-160535351D01*
X83296174Y-160535352D01*
X83296172Y-160535354D01*
X83246485Y-160603741D01*
X83180476Y-160694594D01*
X83091117Y-160869970D01*
X83030290Y-161057173D01*
X82999500Y-161251577D01*
X80500500Y-161251577D01*
X80500500Y-146251577D01*
X82999500Y-146251577D01*
X82999500Y-146448422D01*
X83030290Y-146642826D01*
X83091117Y-146830029D01*
X83180476Y-147005405D01*
X83296172Y-147164646D01*
X83435354Y-147303828D01*
X83594595Y-147419524D01*
X83677455Y-147461743D01*
X83769970Y-147508882D01*
X83769972Y-147508882D01*
X83769975Y-147508884D01*
X83870317Y-147541487D01*
X83957173Y-147569709D01*
X84151578Y-147600500D01*
X84151583Y-147600500D01*
X85848422Y-147600500D01*
X86042826Y-147569709D01*
X86230025Y-147508884D01*
X86405405Y-147419524D01*
X86564646Y-147303828D01*
X86703828Y-147164646D01*
X86819524Y-147005405D01*
X86908884Y-146830025D01*
X86969709Y-146642826D01*
X87000500Y-146448422D01*
X87000500Y-146251577D01*
X87999500Y-146251577D01*
X87999500Y-146448422D01*
X88030290Y-146642826D01*
X88091117Y-146830029D01*
X88180476Y-147005405D01*
X88296172Y-147164646D01*
X88435354Y-147303828D01*
X88594595Y-147419524D01*
X88677455Y-147461743D01*
X88769970Y-147508882D01*
X88769972Y-147508882D01*
X88769975Y-147508884D01*
X88870317Y-147541487D01*
X88957173Y-147569709D01*
X89151578Y-147600500D01*
X89151583Y-147600500D01*
X90848422Y-147600500D01*
X91042826Y-147569709D01*
X91230025Y-147508884D01*
X91405405Y-147419524D01*
X91564646Y-147303828D01*
X91703828Y-147164646D01*
X91819524Y-147005405D01*
X91908884Y-146830025D01*
X91969709Y-146642826D01*
X92000500Y-146448422D01*
X92000500Y-146251577D01*
X91969709Y-146057173D01*
X91908882Y-145869970D01*
X91819523Y-145694594D01*
X91703828Y-145535354D01*
X91564646Y-145396172D01*
X91405405Y-145280476D01*
X91364143Y-145259452D01*
X91230029Y-145191117D01*
X91042826Y-145130290D01*
X90848422Y-145099500D01*
X90848417Y-145099500D01*
X89151583Y-145099500D01*
X89151578Y-145099500D01*
X88957173Y-145130290D01*
X88769970Y-145191117D01*
X88594594Y-145280476D01*
X88503741Y-145346485D01*
X88435354Y-145396172D01*
X88435352Y-145396174D01*
X88435351Y-145396174D01*
X88296174Y-145535351D01*
X88296174Y-145535352D01*
X88296172Y-145535354D01*
X88246485Y-145603741D01*
X88180476Y-145694594D01*
X88091117Y-145869970D01*
X88030290Y-146057173D01*
X87999500Y-146251577D01*
X87000500Y-146251577D01*
X86969709Y-146057173D01*
X86908882Y-145869970D01*
X86819523Y-145694594D01*
X86703828Y-145535354D01*
X86564646Y-145396172D01*
X86405405Y-145280476D01*
X86364143Y-145259452D01*
X86230029Y-145191117D01*
X86042826Y-145130290D01*
X85848422Y-145099500D01*
X85848417Y-145099500D01*
X84151583Y-145099500D01*
X84151578Y-145099500D01*
X83957173Y-145130290D01*
X83769970Y-145191117D01*
X83594594Y-145280476D01*
X83503741Y-145346485D01*
X83435354Y-145396172D01*
X83435352Y-145396174D01*
X83435351Y-145396174D01*
X83296174Y-145535351D01*
X83296174Y-145535352D01*
X83296172Y-145535354D01*
X83246485Y-145603741D01*
X83180476Y-145694594D01*
X83091117Y-145869970D01*
X83030290Y-146057173D01*
X82999500Y-146251577D01*
X80500500Y-146251577D01*
X80500500Y-131251577D01*
X82999500Y-131251577D01*
X82999500Y-131448422D01*
X83030290Y-131642826D01*
X83091117Y-131830029D01*
X83180476Y-132005405D01*
X83296172Y-132164646D01*
X83435354Y-132303828D01*
X83594595Y-132419524D01*
X83663460Y-132454612D01*
X83769970Y-132508882D01*
X83769972Y-132508882D01*
X83769975Y-132508884D01*
X83812478Y-132522694D01*
X83957173Y-132569709D01*
X84151578Y-132600500D01*
X84151583Y-132600500D01*
X85848422Y-132600500D01*
X86042826Y-132569709D01*
X86230025Y-132508884D01*
X86405405Y-132419524D01*
X86564646Y-132303828D01*
X86703828Y-132164646D01*
X86819524Y-132005405D01*
X86908884Y-131830025D01*
X86969709Y-131642826D01*
X87000500Y-131448422D01*
X87000500Y-131251577D01*
X87999500Y-131251577D01*
X87999500Y-131448422D01*
X88030290Y-131642826D01*
X88091117Y-131830029D01*
X88180476Y-132005405D01*
X88296172Y-132164646D01*
X88435354Y-132303828D01*
X88594595Y-132419524D01*
X88663460Y-132454612D01*
X88769970Y-132508882D01*
X88769972Y-132508882D01*
X88769975Y-132508884D01*
X88812478Y-132522694D01*
X88957173Y-132569709D01*
X89151578Y-132600500D01*
X89151583Y-132600500D01*
X90848422Y-132600500D01*
X91042826Y-132569709D01*
X91230025Y-132508884D01*
X91405405Y-132419524D01*
X91564646Y-132303828D01*
X91703828Y-132164646D01*
X91819524Y-132005405D01*
X91908884Y-131830025D01*
X91969709Y-131642826D01*
X92000500Y-131448422D01*
X92000500Y-131251577D01*
X91969709Y-131057173D01*
X91908882Y-130869970D01*
X91819523Y-130694594D01*
X91703828Y-130535354D01*
X91564646Y-130396172D01*
X91405405Y-130280476D01*
X91230029Y-130191117D01*
X91042826Y-130130290D01*
X90848422Y-130099500D01*
X90848417Y-130099500D01*
X89151583Y-130099500D01*
X89151578Y-130099500D01*
X88957173Y-130130290D01*
X88769970Y-130191117D01*
X88594594Y-130280476D01*
X88503741Y-130346485D01*
X88435354Y-130396172D01*
X88435352Y-130396174D01*
X88435351Y-130396174D01*
X88296174Y-130535351D01*
X88296174Y-130535352D01*
X88296172Y-130535354D01*
X88246485Y-130603741D01*
X88180476Y-130694594D01*
X88091117Y-130869970D01*
X88030290Y-131057173D01*
X87999500Y-131251577D01*
X87000500Y-131251577D01*
X86969709Y-131057173D01*
X86908882Y-130869970D01*
X86819523Y-130694594D01*
X86703828Y-130535354D01*
X86564646Y-130396172D01*
X86405405Y-130280476D01*
X86230029Y-130191117D01*
X86042826Y-130130290D01*
X85848422Y-130099500D01*
X85848417Y-130099500D01*
X84151583Y-130099500D01*
X84151578Y-130099500D01*
X83957173Y-130130290D01*
X83769970Y-130191117D01*
X83594594Y-130280476D01*
X83503741Y-130346485D01*
X83435354Y-130396172D01*
X83435352Y-130396174D01*
X83435351Y-130396174D01*
X83296174Y-130535351D01*
X83296174Y-130535352D01*
X83296172Y-130535354D01*
X83246485Y-130603741D01*
X83180476Y-130694594D01*
X83091117Y-130869970D01*
X83030290Y-131057173D01*
X82999500Y-131251577D01*
X80500500Y-131251577D01*
X80500500Y-116251577D01*
X82999500Y-116251577D01*
X82999500Y-116448422D01*
X83030290Y-116642826D01*
X83091117Y-116830029D01*
X83180476Y-117005405D01*
X83296172Y-117164646D01*
X83435354Y-117303828D01*
X83594595Y-117419524D01*
X83677455Y-117461743D01*
X83769970Y-117508882D01*
X83769972Y-117508882D01*
X83769975Y-117508884D01*
X83870317Y-117541487D01*
X83957173Y-117569709D01*
X84151578Y-117600500D01*
X84151583Y-117600500D01*
X85848422Y-117600500D01*
X86042826Y-117569709D01*
X86230025Y-117508884D01*
X86405405Y-117419524D01*
X86564646Y-117303828D01*
X86703828Y-117164646D01*
X86819524Y-117005405D01*
X86908884Y-116830025D01*
X86969709Y-116642826D01*
X87000500Y-116448422D01*
X87000500Y-116251577D01*
X87999500Y-116251577D01*
X87999500Y-116448422D01*
X88030290Y-116642826D01*
X88091117Y-116830029D01*
X88180476Y-117005405D01*
X88296172Y-117164646D01*
X88435354Y-117303828D01*
X88594595Y-117419524D01*
X88677455Y-117461743D01*
X88769970Y-117508882D01*
X88769972Y-117508882D01*
X88769975Y-117508884D01*
X88870317Y-117541487D01*
X88957173Y-117569709D01*
X89151578Y-117600500D01*
X89151583Y-117600500D01*
X90848422Y-117600500D01*
X91042826Y-117569709D01*
X91230025Y-117508884D01*
X91405405Y-117419524D01*
X91564646Y-117303828D01*
X91703828Y-117164646D01*
X91819524Y-117005405D01*
X91908884Y-116830025D01*
X91969709Y-116642826D01*
X92000500Y-116448422D01*
X92000500Y-116251577D01*
X91969709Y-116057173D01*
X91908882Y-115869970D01*
X91819523Y-115694594D01*
X91703828Y-115535354D01*
X91564646Y-115396172D01*
X91405405Y-115280476D01*
X91230029Y-115191117D01*
X91042826Y-115130290D01*
X90848422Y-115099500D01*
X90848417Y-115099500D01*
X89151583Y-115099500D01*
X89151578Y-115099500D01*
X88957173Y-115130290D01*
X88769970Y-115191117D01*
X88594594Y-115280476D01*
X88503741Y-115346485D01*
X88435354Y-115396172D01*
X88435352Y-115396174D01*
X88435351Y-115396174D01*
X88296174Y-115535351D01*
X88296174Y-115535352D01*
X88296172Y-115535354D01*
X88246485Y-115603741D01*
X88180476Y-115694594D01*
X88091117Y-115869970D01*
X88030290Y-116057173D01*
X87999500Y-116251577D01*
X87000500Y-116251577D01*
X86969709Y-116057173D01*
X86908882Y-115869970D01*
X86819523Y-115694594D01*
X86703828Y-115535354D01*
X86564646Y-115396172D01*
X86405405Y-115280476D01*
X86230029Y-115191117D01*
X86042826Y-115130290D01*
X85848422Y-115099500D01*
X85848417Y-115099500D01*
X84151583Y-115099500D01*
X84151578Y-115099500D01*
X83957173Y-115130290D01*
X83769970Y-115191117D01*
X83594594Y-115280476D01*
X83503741Y-115346485D01*
X83435354Y-115396172D01*
X83435352Y-115396174D01*
X83435351Y-115396174D01*
X83296174Y-115535351D01*
X83296174Y-115535352D01*
X83296172Y-115535354D01*
X83246485Y-115603741D01*
X83180476Y-115694594D01*
X83091117Y-115869970D01*
X83030290Y-116057173D01*
X82999500Y-116251577D01*
X80500500Y-116251577D01*
X80500500Y-101251577D01*
X82999500Y-101251577D01*
X82999500Y-101448422D01*
X83030290Y-101642826D01*
X83091117Y-101830029D01*
X83180476Y-102005405D01*
X83296172Y-102164646D01*
X83435354Y-102303828D01*
X83594595Y-102419524D01*
X83663460Y-102454612D01*
X83769970Y-102508882D01*
X83769972Y-102508882D01*
X83769975Y-102508884D01*
X83812478Y-102522694D01*
X83957173Y-102569709D01*
X84151578Y-102600500D01*
X84151583Y-102600500D01*
X85848422Y-102600500D01*
X86042826Y-102569709D01*
X86230025Y-102508884D01*
X86405405Y-102419524D01*
X86564646Y-102303828D01*
X86703828Y-102164646D01*
X86819524Y-102005405D01*
X86908884Y-101830025D01*
X86969709Y-101642826D01*
X87000500Y-101448422D01*
X87000500Y-101251577D01*
X87999500Y-101251577D01*
X87999500Y-101448422D01*
X88030290Y-101642826D01*
X88091117Y-101830029D01*
X88180476Y-102005405D01*
X88296172Y-102164646D01*
X88435354Y-102303828D01*
X88594595Y-102419524D01*
X88663460Y-102454612D01*
X88769970Y-102508882D01*
X88769972Y-102508882D01*
X88769975Y-102508884D01*
X88812478Y-102522694D01*
X88957173Y-102569709D01*
X89151578Y-102600500D01*
X89151583Y-102600500D01*
X90848422Y-102600500D01*
X91042826Y-102569709D01*
X91230025Y-102508884D01*
X91405405Y-102419524D01*
X91564646Y-102303828D01*
X91703828Y-102164646D01*
X91819524Y-102005405D01*
X91908884Y-101830025D01*
X91969709Y-101642826D01*
X92000500Y-101448422D01*
X92000500Y-101251577D01*
X91969709Y-101057173D01*
X91908882Y-100869970D01*
X91847754Y-100750000D01*
X91819524Y-100694595D01*
X91703828Y-100535354D01*
X91564646Y-100396172D01*
X91405405Y-100280476D01*
X91230029Y-100191117D01*
X91042826Y-100130290D01*
X90848422Y-100099500D01*
X90848417Y-100099500D01*
X89151583Y-100099500D01*
X89151578Y-100099500D01*
X88957173Y-100130290D01*
X88769970Y-100191117D01*
X88594594Y-100280476D01*
X88503741Y-100346485D01*
X88435354Y-100396172D01*
X88435352Y-100396174D01*
X88435351Y-100396174D01*
X88296174Y-100535351D01*
X88296174Y-100535352D01*
X88296172Y-100535354D01*
X88246485Y-100603741D01*
X88180476Y-100694594D01*
X88091117Y-100869970D01*
X88030290Y-101057173D01*
X87999500Y-101251577D01*
X87000500Y-101251577D01*
X86969709Y-101057173D01*
X86908882Y-100869970D01*
X86847754Y-100750000D01*
X86819524Y-100694595D01*
X86703828Y-100535354D01*
X86564646Y-100396172D01*
X86405405Y-100280476D01*
X86230029Y-100191117D01*
X86042826Y-100130290D01*
X85848422Y-100099500D01*
X85848417Y-100099500D01*
X84151583Y-100099500D01*
X84151578Y-100099500D01*
X83957173Y-100130290D01*
X83769970Y-100191117D01*
X83594594Y-100280476D01*
X83503741Y-100346485D01*
X83435354Y-100396172D01*
X83435352Y-100396174D01*
X83435351Y-100396174D01*
X83296174Y-100535351D01*
X83296174Y-100535352D01*
X83296172Y-100535354D01*
X83246485Y-100603741D01*
X83180476Y-100694594D01*
X83091117Y-100869970D01*
X83030290Y-101057173D01*
X82999500Y-101251577D01*
X80500500Y-101251577D01*
X80500500Y-86251577D01*
X82999500Y-86251577D01*
X82999500Y-86448422D01*
X83030290Y-86642826D01*
X83091117Y-86830029D01*
X83180476Y-87005405D01*
X83296172Y-87164646D01*
X83435354Y-87303828D01*
X83594595Y-87419524D01*
X83677455Y-87461743D01*
X83769970Y-87508882D01*
X83769972Y-87508882D01*
X83769975Y-87508884D01*
X83870317Y-87541487D01*
X83957173Y-87569709D01*
X84151578Y-87600500D01*
X84151583Y-87600500D01*
X85848422Y-87600500D01*
X86042826Y-87569709D01*
X86230025Y-87508884D01*
X86405405Y-87419524D01*
X86564646Y-87303828D01*
X86703828Y-87164646D01*
X86819524Y-87005405D01*
X86908884Y-86830025D01*
X86969709Y-86642826D01*
X86980787Y-86572881D01*
X87000500Y-86448422D01*
X87000500Y-86251577D01*
X87999500Y-86251577D01*
X87999500Y-86448422D01*
X88030290Y-86642826D01*
X88091117Y-86830029D01*
X88180476Y-87005405D01*
X88296172Y-87164646D01*
X88435354Y-87303828D01*
X88594595Y-87419524D01*
X88677455Y-87461743D01*
X88769970Y-87508882D01*
X88769972Y-87508882D01*
X88769975Y-87508884D01*
X88870317Y-87541487D01*
X88957173Y-87569709D01*
X89151578Y-87600500D01*
X89151583Y-87600500D01*
X90848422Y-87600500D01*
X91042826Y-87569709D01*
X91230025Y-87508884D01*
X91405405Y-87419524D01*
X91564646Y-87303828D01*
X91703828Y-87164646D01*
X91819524Y-87005405D01*
X91908884Y-86830025D01*
X91969709Y-86642826D01*
X91980787Y-86572881D01*
X92000500Y-86448422D01*
X92000500Y-86251577D01*
X91969709Y-86057173D01*
X91941487Y-85970317D01*
X91908884Y-85869975D01*
X91908882Y-85869972D01*
X91908882Y-85869970D01*
X91819523Y-85694594D01*
X91703828Y-85535354D01*
X91564646Y-85396172D01*
X91405405Y-85280476D01*
X91349820Y-85252154D01*
X91230029Y-85191117D01*
X91042826Y-85130290D01*
X90848422Y-85099500D01*
X90848417Y-85099500D01*
X89151583Y-85099500D01*
X89151578Y-85099500D01*
X88957173Y-85130290D01*
X88769970Y-85191117D01*
X88594594Y-85280476D01*
X88503741Y-85346485D01*
X88435354Y-85396172D01*
X88435352Y-85396174D01*
X88435351Y-85396174D01*
X88296174Y-85535351D01*
X88296174Y-85535352D01*
X88296172Y-85535354D01*
X88246485Y-85603741D01*
X88180476Y-85694594D01*
X88091117Y-85869970D01*
X88030290Y-86057173D01*
X87999500Y-86251577D01*
X87000500Y-86251577D01*
X86969709Y-86057173D01*
X86941487Y-85970317D01*
X86908884Y-85869975D01*
X86908882Y-85869972D01*
X86908882Y-85869970D01*
X86819523Y-85694594D01*
X86703828Y-85535354D01*
X86564646Y-85396172D01*
X86405405Y-85280476D01*
X86349820Y-85252154D01*
X86230029Y-85191117D01*
X86042826Y-85130290D01*
X85848422Y-85099500D01*
X85848417Y-85099500D01*
X84151583Y-85099500D01*
X84151578Y-85099500D01*
X83957173Y-85130290D01*
X83769970Y-85191117D01*
X83594594Y-85280476D01*
X83503741Y-85346485D01*
X83435354Y-85396172D01*
X83435352Y-85396174D01*
X83435351Y-85396174D01*
X83296174Y-85535351D01*
X83296174Y-85535352D01*
X83296172Y-85535354D01*
X83246485Y-85603741D01*
X83180476Y-85694594D01*
X83091117Y-85869970D01*
X83030290Y-86057173D01*
X82999500Y-86251577D01*
X80500500Y-86251577D01*
X80500500Y-71251577D01*
X82999500Y-71251577D01*
X82999500Y-71448422D01*
X83030290Y-71642826D01*
X83091117Y-71830029D01*
X83180476Y-72005405D01*
X83296172Y-72164646D01*
X83435354Y-72303828D01*
X83594595Y-72419524D01*
X83677455Y-72461743D01*
X83769970Y-72508882D01*
X83769972Y-72508882D01*
X83769975Y-72508884D01*
X83870317Y-72541487D01*
X83957173Y-72569709D01*
X84151578Y-72600500D01*
X84151583Y-72600500D01*
X85848422Y-72600500D01*
X86042826Y-72569709D01*
X86230025Y-72508884D01*
X86405405Y-72419524D01*
X86564646Y-72303828D01*
X86703828Y-72164646D01*
X86819524Y-72005405D01*
X86908884Y-71830025D01*
X86969709Y-71642826D01*
X87000500Y-71448422D01*
X87000500Y-71251577D01*
X87999500Y-71251577D01*
X87999500Y-71448422D01*
X88030290Y-71642826D01*
X88091117Y-71830029D01*
X88180476Y-72005405D01*
X88296172Y-72164646D01*
X88435354Y-72303828D01*
X88594595Y-72419524D01*
X88677455Y-72461743D01*
X88769970Y-72508882D01*
X88769972Y-72508882D01*
X88769975Y-72508884D01*
X88870317Y-72541487D01*
X88957173Y-72569709D01*
X89151578Y-72600500D01*
X89151583Y-72600500D01*
X90848422Y-72600500D01*
X91042826Y-72569709D01*
X91230025Y-72508884D01*
X91405405Y-72419524D01*
X91564646Y-72303828D01*
X91703828Y-72164646D01*
X91819524Y-72005405D01*
X91908884Y-71830025D01*
X91969709Y-71642826D01*
X92000500Y-71448422D01*
X92000500Y-71251577D01*
X91969709Y-71057173D01*
X91908882Y-70869970D01*
X91819523Y-70694594D01*
X91703828Y-70535354D01*
X91564646Y-70396172D01*
X91405405Y-70280476D01*
X91230029Y-70191117D01*
X91042826Y-70130290D01*
X90848422Y-70099500D01*
X90848417Y-70099500D01*
X89151583Y-70099500D01*
X89151578Y-70099500D01*
X88957173Y-70130290D01*
X88769970Y-70191117D01*
X88594594Y-70280476D01*
X88503741Y-70346485D01*
X88435354Y-70396172D01*
X88435352Y-70396174D01*
X88435351Y-70396174D01*
X88296174Y-70535351D01*
X88296174Y-70535352D01*
X88296172Y-70535354D01*
X88246485Y-70603741D01*
X88180476Y-70694594D01*
X88091117Y-70869970D01*
X88030290Y-71057173D01*
X87999500Y-71251577D01*
X87000500Y-71251577D01*
X86969709Y-71057173D01*
X86908882Y-70869970D01*
X86819523Y-70694594D01*
X86703828Y-70535354D01*
X86564646Y-70396172D01*
X86405405Y-70280476D01*
X86230029Y-70191117D01*
X86042826Y-70130290D01*
X85848422Y-70099500D01*
X85848417Y-70099500D01*
X84151583Y-70099500D01*
X84151578Y-70099500D01*
X83957173Y-70130290D01*
X83769970Y-70191117D01*
X83594594Y-70280476D01*
X83503741Y-70346485D01*
X83435354Y-70396172D01*
X83435352Y-70396174D01*
X83435351Y-70396174D01*
X83296174Y-70535351D01*
X83296174Y-70535352D01*
X83296172Y-70535354D01*
X83246485Y-70603741D01*
X83180476Y-70694594D01*
X83091117Y-70869970D01*
X83030290Y-71057173D01*
X82999500Y-71251577D01*
X80500500Y-71251577D01*
X80500500Y-56251577D01*
X82999500Y-56251577D01*
X82999500Y-56448422D01*
X83030290Y-56642826D01*
X83091117Y-56830029D01*
X83180476Y-57005405D01*
X83296172Y-57164646D01*
X83435354Y-57303828D01*
X83594595Y-57419524D01*
X83677455Y-57461743D01*
X83769970Y-57508882D01*
X83769972Y-57508882D01*
X83769975Y-57508884D01*
X83870317Y-57541487D01*
X83957173Y-57569709D01*
X84151578Y-57600500D01*
X84151583Y-57600500D01*
X85848422Y-57600500D01*
X86042826Y-57569709D01*
X86230025Y-57508884D01*
X86405405Y-57419524D01*
X86564646Y-57303828D01*
X86703828Y-57164646D01*
X86819524Y-57005405D01*
X86908884Y-56830025D01*
X86969709Y-56642826D01*
X87000500Y-56448422D01*
X87000500Y-56251577D01*
X87999500Y-56251577D01*
X87999500Y-56448422D01*
X88030290Y-56642826D01*
X88091117Y-56830029D01*
X88180476Y-57005405D01*
X88296172Y-57164646D01*
X88435354Y-57303828D01*
X88594595Y-57419524D01*
X88677455Y-57461743D01*
X88769970Y-57508882D01*
X88769972Y-57508882D01*
X88769975Y-57508884D01*
X88870317Y-57541487D01*
X88957173Y-57569709D01*
X89151578Y-57600500D01*
X89151583Y-57600500D01*
X90848422Y-57600500D01*
X91042826Y-57569709D01*
X91230025Y-57508884D01*
X91405405Y-57419524D01*
X91564646Y-57303828D01*
X91703828Y-57164646D01*
X91819524Y-57005405D01*
X91908884Y-56830025D01*
X91969709Y-56642826D01*
X92000500Y-56448422D01*
X92000500Y-56251577D01*
X91969709Y-56057173D01*
X91908882Y-55869970D01*
X91819523Y-55694594D01*
X91703828Y-55535354D01*
X91564646Y-55396172D01*
X91405405Y-55280476D01*
X91230029Y-55191117D01*
X91042826Y-55130290D01*
X90848422Y-55099500D01*
X90848417Y-55099500D01*
X89151583Y-55099500D01*
X89151578Y-55099500D01*
X88957173Y-55130290D01*
X88769970Y-55191117D01*
X88594594Y-55280476D01*
X88503741Y-55346485D01*
X88435354Y-55396172D01*
X88435352Y-55396174D01*
X88435351Y-55396174D01*
X88296174Y-55535351D01*
X88296174Y-55535352D01*
X88296172Y-55535354D01*
X88246485Y-55603741D01*
X88180476Y-55694594D01*
X88091117Y-55869970D01*
X88030290Y-56057173D01*
X87999500Y-56251577D01*
X87000500Y-56251577D01*
X86969709Y-56057173D01*
X86908882Y-55869970D01*
X86819523Y-55694594D01*
X86703828Y-55535354D01*
X86564646Y-55396172D01*
X86405405Y-55280476D01*
X86230029Y-55191117D01*
X86042826Y-55130290D01*
X85848422Y-55099500D01*
X85848417Y-55099500D01*
X84151583Y-55099500D01*
X84151578Y-55099500D01*
X83957173Y-55130290D01*
X83769970Y-55191117D01*
X83594594Y-55280476D01*
X83503741Y-55346485D01*
X83435354Y-55396172D01*
X83435352Y-55396174D01*
X83435351Y-55396174D01*
X83296174Y-55535351D01*
X83296174Y-55535352D01*
X83296172Y-55535354D01*
X83246485Y-55603741D01*
X83180476Y-55694594D01*
X83091117Y-55869970D01*
X83030290Y-56057173D01*
X82999500Y-56251577D01*
X80500500Y-56251577D01*
X80500500Y-39151577D01*
X90749500Y-39151577D01*
X90749500Y-40848422D01*
X90780290Y-41042826D01*
X90841117Y-41230029D01*
X90874123Y-41294806D01*
X90930476Y-41405405D01*
X91046172Y-41564646D01*
X91185354Y-41703828D01*
X91344595Y-41819524D01*
X91427455Y-41861743D01*
X91519970Y-41908882D01*
X91519972Y-41908882D01*
X91519975Y-41908884D01*
X91620317Y-41941487D01*
X91707173Y-41969709D01*
X91901578Y-42000500D01*
X91901583Y-42000500D01*
X92098422Y-42000500D01*
X92292826Y-41969709D01*
X92480025Y-41908884D01*
X92655405Y-41819524D01*
X92814646Y-41703828D01*
X92953828Y-41564646D01*
X93069524Y-41405405D01*
X93158884Y-41230025D01*
X93219709Y-41042826D01*
X93233299Y-40957021D01*
X93250500Y-40848422D01*
X93250500Y-39151577D01*
X93219709Y-38957173D01*
X93158882Y-38769970D01*
X93069523Y-38594594D01*
X92953828Y-38435354D01*
X92814646Y-38296172D01*
X92655405Y-38180476D01*
X92480029Y-38091117D01*
X92292826Y-38030290D01*
X92098422Y-37999500D01*
X92098417Y-37999500D01*
X91901583Y-37999500D01*
X91901578Y-37999500D01*
X91707173Y-38030290D01*
X91519970Y-38091117D01*
X91344594Y-38180476D01*
X91253741Y-38246485D01*
X91185354Y-38296172D01*
X91185352Y-38296174D01*
X91185351Y-38296174D01*
X91046174Y-38435351D01*
X91046174Y-38435352D01*
X91046172Y-38435354D01*
X90996485Y-38503741D01*
X90930476Y-38594594D01*
X90841117Y-38769970D01*
X90780290Y-38957173D01*
X90749500Y-39151577D01*
X80500500Y-39151577D01*
X80500500Y-34072963D01*
X80520185Y-34005924D01*
X80528429Y-33998780D01*
X80503806Y-33955478D01*
X80500500Y-33927036D01*
X80500500Y-30624500D01*
X80520185Y-30557461D01*
X80572989Y-30511706D01*
X80624500Y-30500500D01*
X100876000Y-30500500D01*
X100943039Y-30520185D01*
G37*
G04 #@! TD.AperFunction*
M02*
