M48
; DRILL file {KiCad 8.0.8+1} date 2025-02-28T15:38:06+0000
; FORMAT={-:-/ absolute / metric / decimal}
; #@! TF.CreationDate,2025-02-28T15:38:06+00:00
; #@! TF.GenerationSoftware,Kicad,Pcbnew,8.0.8+1
; #@! TF.FileFunction,MixedPlating,1,4
FMAT,2
METRIC
; #@! TA.AperFunction,Plated,PTH,ViaDrill
T1C0.300
; #@! TA.AperFunction,Plated,PTH,ComponentDrill
T2C0.500
; #@! TA.AperFunction,Plated,PTH,ComponentDrill
T3C0.800
; #@! TA.AperFunction,Plated,PTH,ComponentDrill
T4C0.900
; #@! TA.AperFunction,Plated,PTH,ComponentDrill
T5C1.100
; #@! TA.AperFunction,Plated,PTH,ComponentDrill
T6C1.150
; #@! TA.AperFunction,Plated,PTH,ComponentDrill
T7C1.200
; #@! TA.AperFunction,Plated,PTH,ComponentDrill
T8C1.600
; #@! TA.AperFunction,Plated,PTH,ComponentDrill
T9C3.200
; #@! TA.AperFunction,NonPlated,NPTH,ComponentDrill
T10C0.991
; #@! TA.AperFunction,NonPlated,NPTH,ComponentDrill
T11C2.375
%
G90
G05
T1
X105.0Y-53.095
X105.0Y-68.0
X105.0Y-83.0
X105.0Y-98.0
X105.0Y-113.0
X105.0Y-128.0
X105.0Y-143.0
X105.0Y-158.0
X109.75Y-50.0
X113.0Y-102.5
X115.75Y-39.75
X115.75Y-102.5
X115.75Y-106.75
X117.0Y-110.75
X117.25Y-134.0
X117.9Y-112.0
X118.0Y-139.0
X118.0Y-144.0
X118.139Y-107.662
X118.25Y-106.25
X118.286Y-105.451
X119.25Y-99.75
X119.75Y-52.25
X119.75Y-138.5
X120.0Y-131.5
X120.6Y-127.75
X120.75Y-108.75
X121.0Y-103.25
X121.5Y-118.0
X121.75Y-108.75
X121.75Y-113.0
X122.55Y-113.0
X123.25Y-114.75
X123.5Y-103.25
X124.175Y-104.67
X124.184Y-105.553
X124.224Y-106.352
X124.25Y-117.5
X124.25Y-120.75
X124.5Y-100.75
X125.25Y-135.0
X125.5Y-41.0
X125.75Y-101.0
X126.0Y-111.5
X126.5Y-135.0
X126.726Y-105.074
X126.75Y-104.25
X127.5Y-111.5
X127.5Y-120.5
X127.75Y-115.25
X127.75Y-118.0
X128.0Y-138.25
X128.25Y-122.5
X128.25Y-150.25
X130.25Y-102.75
X130.25Y-103.55
X130.5Y-111.5
X130.75Y-122.5
X131.0Y-120.0
X133.5Y-130.0
X133.5Y-132.5
X135.962Y-112.017
X136.0Y-73.25
X136.0Y-101.25
X137.5Y-98.75
X138.75Y-109.75
T3
X120.347Y-65.0
X123.847Y-65.0
T4
X115.078Y-149.422
X115.078Y-151.922
X115.078Y-154.422
X121.078Y-149.422
X121.078Y-151.922
X121.078Y-154.422
T5
X118.25Y-81.5
X118.25Y-86.0
X124.75Y-81.5
X124.75Y-86.0
X131.0Y-81.5
X131.0Y-86.0
X137.5Y-81.5
X137.5Y-86.0
T6
X85.0Y-51.35
X85.0Y-56.35
X85.0Y-66.35
X85.0Y-71.35
X85.0Y-81.35
X85.0Y-86.35
X85.0Y-96.35
X85.0Y-101.35
X85.0Y-111.35
X85.0Y-116.35
X85.0Y-126.35
X85.0Y-131.35
X85.0Y-141.35
X85.0Y-146.35
X85.0Y-156.35
X85.0Y-161.35
X90.0Y-51.35
X90.0Y-56.35
X90.0Y-66.35
X90.0Y-71.35
X90.0Y-81.35
X90.0Y-86.35
X90.0Y-96.35
X90.0Y-101.35
X90.0Y-111.35
X90.0Y-116.35
X90.0Y-126.35
X90.0Y-131.35
X90.0Y-141.35
X90.0Y-146.35
X90.0Y-156.35
X90.0Y-161.35
X92.0Y-35.0
X92.0Y-40.0
X97.0Y-35.0
X97.0Y-40.0
X115.35Y-164.0
X115.35Y-169.0
X120.35Y-164.0
X120.35Y-169.0
T7
X103.34Y-34.5
X123.66Y-34.5
T8
X128.65Y-35.41
X128.65Y-40.49
X128.65Y-45.57
X128.65Y-50.65
T9
X84.0Y-34.0
X84.0Y-171.0
X136.0Y-34.0
X136.0Y-171.0
T10
X133.984Y-106.21
X135.0Y-111.29
X136.016Y-106.21
T11
X132.46Y-108.115
X132.46Y-111.29
X137.54Y-108.115
X137.54Y-111.29
T2
G00X138.9Y-138.15
M15
G01X138.2Y-138.15
M16
G05
G00X138.9Y-144.75
M15
G01X138.2Y-144.75
M16
G05
M30
