M48
; DRILL file {KiCad 8.0.8+1} date 2025-02-28T15:38:28+0000
; FORMAT={-:-/ absolute / inch / decimal}
; #@! TF.CreationDate,2025-02-28T15:38:28+00:00
; #@! TF.GenerationSoftware,Kicad,Pcbnew,8.0.8+1
; #@! TF.FileFunction,Plated,1,4,PTH
FMAT,2
INCH
; #@! TA.AperFunction,Plated,PTH,ViaDrill
T1C0.0118
; #@! TA.AperFunction,Plated,PTH,ComponentDrill
T2C0.0197
; #@! TA.AperFunction,Plated,PTH,ComponentDrill
T3C0.0315
; #@! TA.AperFunction,Plated,PTH,ComponentDrill
T4C0.0354
; #@! TA.AperFunction,Plated,PTH,ComponentDrill
T5C0.0433
; #@! TA.AperFunction,Plated,PTH,ComponentDrill
T6C0.0453
; #@! TA.AperFunction,Plated,PTH,ComponentDrill
T7C0.0472
; #@! TA.AperFunction,Plated,PTH,ComponentDrill
T8C0.0630
; #@! TA.AperFunction,Plated,PTH,ComponentDrill
T9C0.1260
%
G90
G05
T1
X4.1339Y-2.0904
X4.1339Y-2.6772
X4.1339Y-3.2677
X4.1339Y-3.8583
X4.1339Y-4.4488
X4.1339Y-5.0394
X4.1339Y-5.6299
X4.1339Y-6.2205
X4.3209Y-1.9685
X4.4488Y-4.0354
X4.5571Y-1.565
X4.5571Y-4.0354
X4.5571Y-4.2028
X4.6063Y-4.3602
X4.6161Y-5.2756
X4.6417Y-4.4094
X4.6457Y-5.4724
X4.6457Y-5.6693
X4.6512Y-4.2387
X4.6555Y-4.1831
X4.6569Y-4.1516
X4.6949Y-3.9272
X4.7146Y-2.0571
X4.7146Y-5.4528
X4.7244Y-5.1772
X4.748Y-5.0295
X4.7539Y-4.2815
X4.7638Y-4.065
X4.7835Y-4.6457
X4.7933Y-4.2815
X4.7933Y-4.4488
X4.8248Y-4.4488
X4.8524Y-4.5177
X4.8622Y-4.065
X4.8888Y-4.1209
X4.8891Y-4.1556
X4.8907Y-4.1871
X4.8917Y-4.626
X4.8917Y-4.7539
X4.9016Y-3.9665
X4.9311Y-5.315
X4.9409Y-1.6142
X4.9508Y-3.9764
X4.9606Y-4.3898
X4.9803Y-5.315
X4.9892Y-4.1368
X4.9902Y-4.1043
X5.0197Y-4.3898
X5.0197Y-4.7441
X5.0295Y-4.5374
X5.0295Y-4.6457
X5.0394Y-5.4429
X5.0492Y-4.8228
X5.0492Y-5.9154
X5.128Y-4.0453
X5.128Y-4.0768
X5.1378Y-4.3898
X5.1476Y-4.8228
X5.1575Y-4.7244
X5.2559Y-5.1181
X5.2559Y-5.2165
X5.3528Y-4.4101
X5.3543Y-2.8839
X5.3543Y-3.9862
X5.4134Y-3.8878
X5.4626Y-4.3209
T3
X4.7381Y-2.5591
X4.8759Y-2.5591
T4
X4.5306Y-5.8828
X4.5306Y-5.9812
X4.5306Y-6.0796
X4.7668Y-5.8828
X4.7668Y-5.9812
X4.7668Y-6.0796
T5
X4.6555Y-3.2087
X4.6555Y-3.3858
X4.9114Y-3.2087
X4.9114Y-3.3858
X5.1575Y-3.2087
X5.1575Y-3.3858
X5.4134Y-3.2087
X5.4134Y-3.3858
T6
X3.3465Y-2.0217
X3.3465Y-2.2185
X3.3465Y-2.6122
X3.3465Y-2.8091
X3.3465Y-3.2028
X3.3465Y-3.3996
X3.3465Y-3.7933
X3.3465Y-3.9902
X3.3465Y-4.3839
X3.3465Y-4.5807
X3.3465Y-4.9744
X3.3465Y-5.1713
X3.3465Y-5.565
X3.3465Y-5.7618
X3.3465Y-6.1555
X3.3465Y-6.3524
X3.5433Y-2.0217
X3.5433Y-2.2185
X3.5433Y-2.6122
X3.5433Y-2.8091
X3.5433Y-3.2028
X3.5433Y-3.3996
X3.5433Y-3.7933
X3.5433Y-3.9902
X3.5433Y-4.3839
X3.5433Y-4.5807
X3.5433Y-4.9744
X3.5433Y-5.1713
X3.5433Y-5.565
X3.5433Y-5.7618
X3.5433Y-6.1555
X3.5433Y-6.3524
X3.622Y-1.378
X3.622Y-1.5748
X3.8189Y-1.378
X3.8189Y-1.5748
X4.5413Y-6.4567
X4.5413Y-6.6535
X4.7382Y-6.4567
X4.7382Y-6.6535
T7
X4.0685Y-1.3583
X4.8685Y-1.3583
T8
X5.065Y-1.3941
X5.065Y-1.5941
X5.065Y-1.7941
X5.065Y-1.9941
T9
X3.3071Y-1.3386
X3.3071Y-6.7323
X5.3543Y-1.3386
X5.3543Y-6.7323
T2
G00X5.4685Y-5.439
M15
G01X5.4409Y-5.439
M16
G05
G00X5.4685Y-5.6988
M15
G01X5.4409Y-5.6988
M16
G05
M30
