%TF.GenerationSoftware,KiCad,Pcbnew,8.0.8+1*%
%TF.CreationDate,2025-02-28T15:38:28+00:00*%
%TF.ProjectId,belegt,62656c65-6774-42e6-9b69-6361645f7063,rev?*%
%TF.SameCoordinates,Original*%
%TF.FileFunction,Soldermask,Bot*%
%TF.FilePolarity,Negative*%
%FSLAX46Y46*%
G04 Gerber Fmt 4.6, Leading zero omitted, Abs format (unit mm)*
G04 Created by KiCad (PCBNEW 8.0.8+1) date 2025-02-28 15:38:28*
%MOMM*%
%LPD*%
G01*
G04 APERTURE LIST*
%ADD10R,3.000000X1.500000*%
%ADD11O,3.000000X1.500000*%
%ADD12C,2.000000*%
%ADD13C,5.500000*%
%ADD14C,2.374900*%
%ADD15C,0.990600*%
%ADD16R,1.500000X3.000000*%
%ADD17O,1.500000X3.000000*%
%ADD18R,1.600000X1.600000*%
%ADD19C,1.600000*%
%ADD20O,1.600000X0.900000*%
%ADD21R,3.200000X3.200000*%
%ADD22C,3.200000*%
%ADD23C,2.400000*%
%ADD24O,2.400000X2.400000*%
%ADD25R,1.800000X1.800000*%
%ADD26C,1.800000*%
G04 APERTURE END LIST*
D10*
%TO.C,J202*%
X90000000Y-66350000D03*
X85000000Y-66350000D03*
D11*
X90000000Y-71350000D03*
X85000000Y-71350000D03*
%TD*%
D10*
%TO.C,J207*%
X90000000Y-141350000D03*
X85000000Y-141350000D03*
D11*
X90000000Y-146350000D03*
X85000000Y-146350000D03*
%TD*%
D12*
%TO.C,SW103*%
X131000000Y-81500000D03*
X137500000Y-81500000D03*
X131000000Y-86000000D03*
X137500000Y-86000000D03*
%TD*%
%TO.C,SW102*%
X118250000Y-81500000D03*
X124750000Y-81500000D03*
X118250000Y-86000000D03*
X124750000Y-86000000D03*
%TD*%
D13*
%TO.C,H103*%
X136000000Y-34000000D03*
%TD*%
D14*
%TO.C,J102*%
X132460000Y-111290000D03*
D15*
X135000000Y-111290000D03*
D14*
X137540000Y-111290000D03*
X132460000Y-108115000D03*
X137540000Y-108115000D03*
D15*
X133984000Y-106210000D03*
X136016000Y-106210000D03*
%TD*%
D10*
%TO.C,J208*%
X90000000Y-156350000D03*
X85000000Y-156350000D03*
D11*
X90000000Y-161350000D03*
X85000000Y-161350000D03*
%TD*%
D16*
%TO.C,J103*%
X115350000Y-164000000D03*
X115350000Y-169000000D03*
D17*
X120350000Y-164000000D03*
X120350000Y-169000000D03*
%TD*%
D13*
%TO.C,H101*%
X84000000Y-34000000D03*
%TD*%
D10*
%TO.C,J206*%
X90000000Y-126350000D03*
X85000000Y-126350000D03*
D11*
X90000000Y-131350000D03*
X85000000Y-131350000D03*
%TD*%
D10*
%TO.C,J205*%
X90000000Y-111350000D03*
X85000000Y-111350000D03*
D11*
X90000000Y-116350000D03*
X85000000Y-116350000D03*
%TD*%
D10*
%TO.C,J201*%
X90000000Y-51350000D03*
X85000000Y-51350000D03*
D11*
X90000000Y-56350000D03*
X85000000Y-56350000D03*
%TD*%
D10*
%TO.C,J203*%
X90000000Y-81350000D03*
X85000000Y-81350000D03*
D11*
X90000000Y-86350000D03*
X85000000Y-86350000D03*
%TD*%
D18*
%TO.C,C111*%
X120347349Y-65000000D03*
D19*
X123847349Y-65000000D03*
%TD*%
D20*
%TO.C,J301*%
X138550000Y-144750000D03*
X138550000Y-138150000D03*
%TD*%
D13*
%TO.C,H104*%
X136000000Y-171000000D03*
%TD*%
%TO.C,H102*%
X84000000Y-171000000D03*
%TD*%
D21*
%TO.C,D102*%
X128650000Y-50650000D03*
D22*
X128650000Y-45570000D03*
X128650000Y-40490000D03*
X128650000Y-35410000D03*
%TD*%
D23*
%TO.C,R108*%
X123660000Y-34500000D03*
D24*
X103340000Y-34500000D03*
%TD*%
D16*
%TO.C,J101*%
X97000000Y-40000000D03*
X97000000Y-35000000D03*
D17*
X92000000Y-40000000D03*
X92000000Y-35000000D03*
%TD*%
D10*
%TO.C,J204*%
X90000000Y-96350000D03*
X85000000Y-96350000D03*
D11*
X90000000Y-101350000D03*
X85000000Y-101350000D03*
%TD*%
D25*
%TO.C,SW101*%
X115077500Y-154422500D03*
D26*
X115077500Y-151922500D03*
X115077500Y-149422500D03*
X121077500Y-154422500D03*
X121077500Y-151922500D03*
X121077500Y-149422500D03*
%TD*%
M02*
